SplineFontDB: 1.0
FontName: freedos
FullName: FreeDOS VGA
FamilyName: freedos
Weight: Medium
Comments: Licence: GNU GPL v2 or later.
Comments: Created from Henrique Peron's FreeDOS CPI font pack
Comments: Converted to UniFont .hex format for PC-BASIC by Rob Hagemans
Comments: Converted to WOFF with Luis Gonzalez Miranda's scripts.
Comments: See http://www.lgm.cl/trabajos/unifont/index.en.html for
Comments: information on Luis' scripts.
Comments: See http://czyborra.com/unifont
Comments: and http://unifoundry.com/unifont.html
Comments: for information on GNU Unifont.
Comments: See http://fontforge.sf.net for information on FontForge.
Comments: for the CPI font pack see http://www.freedos.org/software/?prog=cpidos
Comments: for PC-BASIC see http://www.pc-basic.org
Version: 1.00
ItalicAngle: 0
UnderlinePosition: -100
UnderlineWidth: 40
Ascent: 896
Descent: 128
NeedsXUIDChange: 1
XUID: [1021 140 1293607838 5610107]
FSType: 0
PfmFamily: 33
TTFWeight: 500
TTFWidth: 5
Panose: 2 0 6 4 0 0 0 0 0 0
LineGap: 72
VLineGap: 0
OS2WinAscent: 0
OS2WinAOffset: 1
OS2WinDescent: 0
OS2WinDOffset: 1
HheadAscent: 0
HheadAOffset: 1
HheadDescent: 0
HheadDOffset: 1
ScriptLang: 1
 1 latn 1 dflt
Encoding: UnicodeBmp
UnicodeInterp: none
DisplaySize: -24
AntiAlias: 1
FitToEm: 1
WinInfo: 0 50 22
TeXData: 1 0 0 346030 173015 115343 0 1048576 115343 783286 444596 497025 792723 393216 433062 380633 303038 157286 324010 404750 52429 2506097 1059062 262144
BeginChars: 65536 3
StartChar: # 16-pixel FreeDOS font
Encoding: 0 0 0
Width: 0
Flags: HW
TeX: 0 0 0 0
Fore
EndSplineSet
EndChar
StartChar: #
Encoding: 0 0 1
Width: 0
Flags: HW
TeX: 0 0 0 0
Fore
EndSplineSet
EndChar
StartChar: # The glyphs in this font are extracted from Henrique Perón's CPIDOS v3.0,
Encoding: 0 0 2
Width: 0
Flags: HW
TeX: 0 0 0 0
Fore
EndSplineSet
EndChar
StartChar: # as distributed with FreeDOS at http
Encoding: 0 0 3
Width: 624
Flags: HW
TeX: 0 0 0 0
Fore
624 576 m 25
 624 640 l 25
 560 640 l 25
 560 576 l 25
 624 576 l 25
496 576 m 25
 496 640 l 25
 368 640 l 25
 368 576 l 25
 496 576 l 25
304 576 m 25
 304 640 l 25
 112 640 l 25
 112 576 l 25
 304 576 l 25
624 -128 m 25
 624 -64 l 25
 560 -64 l 25
 560 -128 l 25
 624 -128 l 25
496 -128 m 25
 496 -64 l 25
 368 -64 l 25
 368 -128 l 25
 496 -128 l 25
EndSplineSet
EndChar
StartChar: # CPIDOS is Copyright (C) 2002-2011 by Henrique Peron (hperon@terra.com.br)
Encoding: 0 0 4
Width: 0
Flags: HW
TeX: 0 0 0 0
Fore
EndSplineSet
EndChar
StartChar: # The glyphs were mapped onto Unicode and converted to .HEX by Rob Hagemans.
Encoding: 0 0 5
Width: 0
Flags: HW
TeX: 0 0 0 0
Fore
EndSplineSet
EndChar
StartChar: #
Encoding: 0 0 6
Width: 0
Flags: HW
TeX: 0 0 0 0
Fore
EndSplineSet
EndChar
StartChar: # NOTES
Encoding: 0 0 7
Width: 0
Flags: HW
TeX: 0 0 0 0
Fore
EndSplineSet
EndChar
StartChar: # - CPIDOS contains several glyphs that have no corresponding code point in 
Encoding: 0 0 8
Width: 0
Flags: HW
TeX: 0 0 0 0
Fore
EndSplineSet
EndChar
StartChar: #   Unicode. These are not included in this file. Examples include 
Encoding: 0 0 9
Width: 0
Flags: HW
TeX: 0 0 0 0
Fore
EndSplineSet
EndChar
StartChar: #   Georgian Mkhedruli "capital letters", the złoty and forint signs, and 
Encoding: 0 0 10
Width: 0
Flags: HW
TeX: 0 0 0 0
Fore
EndSplineSet
EndChar
StartChar: #   letters with multiple precomposed diacritics. 
Encoding: 0 0 11
Width: 0
Flags: HW
TeX: 0 0 0 0
Fore
EndSplineSet
EndChar
StartChar: # - A choice has been made between multiple glyph variants included in CPIDOS
Encoding: 0 0 12
Width: 0
Flags: HW
TeX: 0 0 0 0
Fore
EndSplineSet
EndChar
StartChar: #   for some code points. In particular, for Greek glyphs, the variants from
Encoding: 0 0 13
Width: 0
Flags: HW
TeX: 0 0 0 0
Fore
EndSplineSet
EndChar
StartChar: #   the Greek codepages have been preferred over those from the Latin pages.
Encoding: 0 0 14
Width: 0
Flags: HW
TeX: 0 0 0 0
Fore
EndSplineSet
EndChar
StartChar: #   Some of those variants have found a home elsewhere, in particular at 
Encoding: 0 0 15
Width: 0
Flags: HW
TeX: 0 0 0 0
Fore
EndSplineSet
EndChar
StartChar: #   MICRO SIGN (U+00B5) GREEK THETA SYMBOL (U+03D1) GREEK PHI SYMBOL (U+03A6)  
Encoding: 0 0 16
Width: 0
Flags: HW
TeX: 0 0 0 0
Fore
EndSplineSet
EndChar
StartChar: #   GREEK LUNATE EPSILON SYMBOL (U+03F5).
Encoding: 0 0 17
Width: 0
Flags: HW
TeX: 0 0 0 0
Fore
EndSplineSet
EndChar
StartChar: #
Encoding: 0 0 18
Width: 0
Flags: HW
TeX: 0 0 0 0
Fore
EndSplineSet
EndChar
StartChar: # AUTHORS
Encoding: 0 0 19
Width: 0
Flags: HW
TeX: 0 0 0 0
Fore
EndSplineSet
EndChar
StartChar: # Henrique Perón
Encoding: 0 0 20
Width: 0
Flags: HW
TeX: 0 0 0 0
Fore
EndSplineSet
EndChar
StartChar: # Rob Hagemans
Encoding: 0 0 21
Width: 0
Flags: HW
TeX: 0 0 0 0
Fore
EndSplineSet
EndChar
StartChar: #
Encoding: 0 0 22
Width: 0
Flags: HW
TeX: 0 0 0 0
Fore
EndSplineSet
EndChar
StartChar: # LICENCE
Encoding: 0 0 23
Width: 0
Flags: HW
TeX: 0 0 0 0
Fore
EndSplineSet
EndChar
StartChar: # This file is distributed under the GNU GPL version 2.0 
Encoding: 0 0 24
Width: 0
Flags: HW
TeX: 0 0 0 0
Fore
EndSplineSet
EndChar
StartChar: # or, at your option, any later version.
Encoding: 0 0 25
Width: 0
Flags: HW
TeX: 0 0 0 0
Fore
EndSplineSet
EndChar
StartChar: #
Encoding: 0 0 26
Width: 0
Flags: HW
TeX: 0 0 0 0
Fore
EndSplineSet
EndChar
StartChar: 0000
Encoding: 0 0 27
Width: 512
Flags: HW
TeX: 0 0 0 0
Fore
EndSplineSet
EndChar
StartChar: 0020
Encoding: 32 32 28
Width: 512
Flags: HW
TeX: 0 0 0 0
Fore
EndSplineSet
EndChar
StartChar: 0021
Encoding: 33 33 29
Width: 512
Flags: HW
TeX: 0 0 0 0
Fore
320 640 m 25
 320 704 l 25
 192 704 l 25
 192 640 l 25
 320 640 l 25
384 576 m 25
 384 640 l 25
 128 640 l 25
 128 576 l 25
 384 576 l 25
384 512 m 25
 384 576 l 25
 128 576 l 25
 128 512 l 25
 384 512 l 25
384 448 m 25
 384 512 l 25
 128 512 l 25
 128 448 l 25
 384 448 l 25
320 384 m 25
 320 448 l 25
 192 448 l 25
 192 384 l 25
 320 384 l 25
320 320 m 25
 320 384 l 25
 192 384 l 25
 192 320 l 25
 320 320 l 25
320 256 m 25
 320 320 l 25
 192 320 l 25
 192 256 l 25
 320 256 l 25
320 128 m 25
 320 192 l 25
 192 192 l 25
 192 128 l 25
 320 128 l 25
320 64 m 25
 320 128 l 25
 192 128 l 25
 192 64 l 25
 320 64 l 25
EndSplineSet
EndChar
StartChar: 0022
Encoding: 34 34 30
Width: 512
Flags: HW
TeX: 0 0 0 0
Fore
448 768 m 25
 448 832 l 25
 320 832 l 25
 320 768 l 25
 448 768 l 25
192 768 m 25
 192 832 l 25
 64 832 l 25
 64 768 l 25
 192 768 l 25
448 704 m 25
 448 768 l 25
 320 768 l 25
 320 704 l 25
 448 704 l 25
192 704 m 25
 192 768 l 25
 64 768 l 25
 64 704 l 25
 192 704 l 25
448 640 m 25
 448 704 l 25
 320 704 l 25
 320 640 l 25
 448 640 l 25
192 640 m 25
 192 704 l 25
 64 704 l 25
 64 640 l 25
 192 640 l 25
384 576 m 25
 384 640 l 25
 320 640 l 25
 320 576 l 25
 384 576 l 25
192 576 m 25
 192 640 l 25
 128 640 l 25
 128 576 l 25
 192 576 l 25
EndSplineSet
EndChar
StartChar: 0023
Encoding: 35 35 31
Width: 512
Flags: HW
TeX: 0 0 0 0
Fore
384 576 m 25
 384 640 l 25
 256 640 l 25
 256 576 l 25
 384 576 l 25
192 576 m 25
 192 640 l 25
 64 640 l 25
 64 576 l 25
 192 576 l 25
384 512 m 25
 384 576 l 25
 256 576 l 25
 256 512 l 25
 384 512 l 25
192 512 m 25
 192 576 l 25
 64 576 l 25
 64 512 l 25
 192 512 l 25
448 448 m 25
 448 512 l 25
 0 512 l 25
 0 448 l 25
 448 448 l 25
384 384 m 25
 384 448 l 25
 256 448 l 25
 256 384 l 25
 384 384 l 25
192 384 m 25
 192 448 l 25
 64 448 l 25
 64 384 l 25
 192 384 l 25
384 320 m 25
 384 384 l 25
 256 384 l 25
 256 320 l 25
 384 320 l 25
192 320 m 25
 192 384 l 25
 64 384 l 25
 64 320 l 25
 192 320 l 25
384 256 m 25
 384 320 l 25
 256 320 l 25
 256 256 l 25
 384 256 l 25
192 256 m 25
 192 320 l 25
 64 320 l 25
 64 256 l 25
 192 256 l 25
448 192 m 25
 448 256 l 25
 0 256 l 25
 0 192 l 25
 448 192 l 25
384 128 m 25
 384 192 l 25
 256 192 l 25
 256 128 l 25
 384 128 l 25
192 128 m 25
 192 192 l 25
 64 192 l 25
 64 128 l 25
 192 128 l 25
384 64 m 25
 384 128 l 25
 256 128 l 25
 256 64 l 25
 384 64 l 25
192 64 m 25
 192 128 l 25
 64 128 l 25
 64 64 l 25
 192 64 l 25
EndSplineSet
EndChar
StartChar: 0024
Encoding: 36 36 32
Width: 512
Flags: HW
TeX: 0 0 0 0
Fore
320 768 m 25
 320 832 l 25
 192 832 l 25
 192 768 l 25
 320 768 l 25
320 704 m 25
 320 768 l 25
 192 768 l 25
 192 704 l 25
 320 704 l 25
384 640 m 25
 384 704 l 25
 64 704 l 25
 64 640 l 25
 384 640 l 25
448 576 m 25
 448 640 l 25
 320 640 l 25
 320 576 l 25
 448 576 l 25
128 576 m 25
 128 640 l 25
 0 640 l 25
 0 576 l 25
 128 576 l 25
448 512 m 25
 448 576 l 25
 384 576 l 25
 384 512 l 25
 448 512 l 25
128 512 m 25
 128 576 l 25
 0 576 l 25
 0 512 l 25
 128 512 l 25
128 448 m 25
 128 512 l 25
 0 512 l 25
 0 448 l 25
 128 448 l 25
384 384 m 25
 384 448 l 25
 64 448 l 25
 64 384 l 25
 384 384 l 25
448 320 m 25
 448 384 l 25
 320 384 l 25
 320 320 l 25
 448 320 l 25
448 256 m 25
 448 320 l 25
 320 320 l 25
 320 256 l 25
 448 256 l 25
448 192 m 25
 448 256 l 25
 320 256 l 25
 320 192 l 25
 448 192 l 25
64 192 m 25
 64 256 l 25
 0 256 l 25
 0 192 l 25
 64 192 l 25
448 128 m 25
 448 192 l 25
 320 192 l 25
 320 128 l 25
 448 128 l 25
128 128 m 25
 128 192 l 25
 0 192 l 25
 0 128 l 25
 128 128 l 25
384 64 m 25
 384 128 l 25
 64 128 l 25
 64 64 l 25
 384 64 l 25
320 0 m 25
 320 64 l 25
 192 64 l 25
 192 0 l 25
 320 0 l 25
320 -64 m 25
 320 0 l 25
 192 0 l 25
 192 -64 l 25
 320 -64 l 25
EndSplineSet
EndChar
StartChar: 0025
Encoding: 37 37 33
Width: 512
Flags: HW
TeX: 0 0 0 0
Fore
448 512 m 25
 448 576 l 25
 384 576 l 25
 384 512 l 25
 448 512 l 25
128 512 m 25
 128 576 l 25
 0 576 l 25
 0 512 l 25
 128 512 l 25
448 448 m 25
 448 512 l 25
 320 512 l 25
 320 448 l 25
 448 448 l 25
128 448 m 25
 128 512 l 25
 0 512 l 25
 0 448 l 25
 128 448 l 25
384 384 m 25
 384 448 l 25
 256 448 l 25
 256 384 l 25
 384 384 l 25
320 320 m 25
 320 384 l 25
 192 384 l 25
 192 320 l 25
 320 320 l 25
256 256 m 25
 256 320 l 25
 128 320 l 25
 128 256 l 25
 256 256 l 25
192 192 m 25
 192 256 l 25
 64 256 l 25
 64 192 l 25
 192 192 l 25
448 128 m 25
 448 192 l 25
 320 192 l 25
 320 128 l 25
 448 128 l 25
128 128 m 25
 128 192 l 25
 0 192 l 25
 0 128 l 25
 128 128 l 25
448 64 m 25
 448 128 l 25
 320 128 l 25
 320 64 l 25
 448 64 l 25
64 64 m 25
 64 128 l 25
 0 128 l 25
 0 64 l 25
 64 64 l 25
EndSplineSet
EndChar
StartChar: 0026
Encoding: 38 38 34
Width: 512
Flags: HW
TeX: 0 0 0 0
Fore
320 640 m 25
 320 704 l 25
 128 704 l 25
 128 640 l 25
 320 640 l 25
384 576 m 25
 384 640 l 25
 256 640 l 25
 256 576 l 25
 384 576 l 25
192 576 m 25
 192 640 l 25
 64 640 l 25
 64 576 l 25
 192 576 l 25
384 512 m 25
 384 576 l 25
 256 576 l 25
 256 512 l 25
 384 512 l 25
192 512 m 25
 192 576 l 25
 64 576 l 25
 64 512 l 25
 192 512 l 25
320 448 m 25
 320 512 l 25
 128 512 l 25
 128 448 l 25
 320 448 l 25
448 384 m 25
 448 448 l 25
 320 448 l 25
 320 384 l 25
 448 384 l 25
256 384 m 25
 256 448 l 25
 64 448 l 25
 64 384 l 25
 256 384 l 25
384 320 m 25
 384 384 l 25
 192 384 l 25
 192 320 l 25
 384 320 l 25
128 320 m 25
 128 384 l 25
 0 384 l 25
 0 320 l 25
 128 320 l 25
384 256 m 25
 384 320 l 25
 256 320 l 25
 256 256 l 25
 384 256 l 25
128 256 m 25
 128 320 l 25
 0 320 l 25
 0 256 l 25
 128 256 l 25
384 192 m 25
 384 256 l 25
 256 256 l 25
 256 192 l 25
 384 192 l 25
128 192 m 25
 128 256 l 25
 0 256 l 25
 0 192 l 25
 128 192 l 25
384 128 m 25
 384 192 l 25
 256 192 l 25
 256 128 l 25
 384 128 l 25
128 128 m 25
 128 192 l 25
 0 192 l 25
 0 128 l 25
 128 128 l 25
448 64 m 25
 448 128 l 25
 320 128 l 25
 320 64 l 25
 448 64 l 25
256 64 m 25
 256 128 l 25
 64 128 l 25
 64 64 l 25
 256 64 l 25
EndSplineSet
EndChar
StartChar: 0027
Encoding: 39 39 35
Width: 512
Flags: HW
TeX: 0 0 0 0
Fore
256 640 m 25
 256 704 l 25
 128 704 l 25
 128 640 l 25
 256 640 l 25
256 576 m 25
 256 640 l 25
 128 640 l 25
 128 576 l 25
 256 576 l 25
256 512 m 25
 256 576 l 25
 128 576 l 25
 128 512 l 25
 256 512 l 25
192 448 m 25
 192 512 l 25
 64 512 l 25
 64 448 l 25
 192 448 l 25
EndSplineSet
EndChar
StartChar: 0028
Encoding: 40 40 36
Width: 512
Flags: HW
TeX: 0 0 0 0
Fore
384 640 m 25
 384 704 l 25
 256 704 l 25
 256 640 l 25
 384 640 l 25
320 576 m 25
 320 640 l 25
 192 640 l 25
 192 576 l 25
 320 576 l 25
256 512 m 25
 256 576 l 25
 128 576 l 25
 128 512 l 25
 256 512 l 25
256 448 m 25
 256 512 l 25
 128 512 l 25
 128 448 l 25
 256 448 l 25
256 384 m 25
 256 448 l 25
 128 448 l 25
 128 384 l 25
 256 384 l 25
256 320 m 25
 256 384 l 25
 128 384 l 25
 128 320 l 25
 256 320 l 25
256 256 m 25
 256 320 l 25
 128 320 l 25
 128 256 l 25
 256 256 l 25
256 192 m 25
 256 256 l 25
 128 256 l 25
 128 192 l 25
 256 192 l 25
320 128 m 25
 320 192 l 25
 192 192 l 25
 192 128 l 25
 320 128 l 25
384 64 m 25
 384 128 l 25
 256 128 l 25
 256 64 l 25
 384 64 l 25
EndSplineSet
EndChar
StartChar: 0029
Encoding: 41 41 37
Width: 512
Flags: HW
TeX: 0 0 0 0
Fore
256 640 m 25
 256 704 l 25
 128 704 l 25
 128 640 l 25
 256 640 l 25
320 576 m 25
 320 640 l 25
 192 640 l 25
 192 576 l 25
 320 576 l 25
384 512 m 25
 384 576 l 25
 256 576 l 25
 256 512 l 25
 384 512 l 25
384 448 m 25
 384 512 l 25
 256 512 l 25
 256 448 l 25
 384 448 l 25
384 384 m 25
 384 448 l 25
 256 448 l 25
 256 384 l 25
 384 384 l 25
384 320 m 25
 384 384 l 25
 256 384 l 25
 256 320 l 25
 384 320 l 25
384 256 m 25
 384 320 l 25
 256 320 l 25
 256 256 l 25
 384 256 l 25
384 192 m 25
 384 256 l 25
 256 256 l 25
 256 192 l 25
 384 192 l 25
320 128 m 25
 320 192 l 25
 192 192 l 25
 192 128 l 25
 320 128 l 25
256 64 m 25
 256 128 l 25
 128 128 l 25
 128 64 l 25
 256 64 l 25
EndSplineSet
EndChar
StartChar: 002A
Encoding: 42 42 38
Width: 512
Flags: HW
TeX: 0 0 0 0
Fore
448 448 m 25
 448 512 l 25
 320 512 l 25
 320 448 l 25
 448 448 l 25
192 448 m 25
 192 512 l 25
 64 512 l 25
 64 448 l 25
 192 448 l 25
384 384 m 25
 384 448 l 25
 128 448 l 25
 128 384 l 25
 384 384 l 25
512 320 m 25
 512 384 l 25
 0 384 l 25
 0 320 l 25
 512 320 l 25
384 256 m 25
 384 320 l 25
 128 320 l 25
 128 256 l 25
 384 256 l 25
448 192 m 25
 448 256 l 25
 320 256 l 25
 320 192 l 25
 448 192 l 25
192 192 m 25
 192 256 l 25
 64 256 l 25
 64 192 l 25
 192 192 l 25
EndSplineSet
EndChar
StartChar: 002B
Encoding: 43 43 39
Width: 512
Flags: HW
TeX: 0 0 0 0
Fore
320 448 m 25
 320 512 l 25
 192 512 l 25
 192 448 l 25
 320 448 l 25
320 384 m 25
 320 448 l 25
 192 448 l 25
 192 384 l 25
 320 384 l 25
448 320 m 25
 448 384 l 25
 64 384 l 25
 64 320 l 25
 448 320 l 25
320 256 m 25
 320 320 l 25
 192 320 l 25
 192 256 l 25
 320 256 l 25
320 192 m 25
 320 256 l 25
 192 256 l 25
 192 192 l 25
 320 192 l 25
EndSplineSet
EndChar
StartChar: 002C
Encoding: 44 44 40
Width: 512
Flags: HW
TeX: 0 0 0 0
Fore
320 128 m 25
 320 192 l 25
 192 192 l 25
 192 128 l 25
 320 128 l 25
320 64 m 25
 320 128 l 25
 192 128 l 25
 192 64 l 25
 320 64 l 25
320 0 m 25
 320 64 l 25
 192 64 l 25
 192 0 l 25
 320 0 l 25
256 -64 m 25
 256 0 l 25
 128 0 l 25
 128 -64 l 25
 256 -64 l 25
EndSplineSet
EndChar
StartChar: 002D
Encoding: 45 45 41
Width: 512
Flags: HW
TeX: 0 0 0 0
Fore
448 320 m 25
 448 384 l 25
 0 384 l 25
 0 320 l 25
 448 320 l 25
EndSplineSet
EndChar
StartChar: 002E
Encoding: 46 46 42
Width: 512
Flags: HW
TeX: 0 0 0 0
Fore
320 128 m 25
 320 192 l 25
 192 192 l 25
 192 128 l 25
 320 128 l 25
320 64 m 25
 320 128 l 25
 192 128 l 25
 192 64 l 25
 320 64 l 25
EndSplineSet
EndChar
StartChar: 002F
Encoding: 47 47 43
Width: 512
Flags: HW
TeX: 0 0 0 0
Fore
448 512 m 25
 448 576 l 25
 384 576 l 25
 384 512 l 25
 448 512 l 25
448 448 m 25
 448 512 l 25
 320 512 l 25
 320 448 l 25
 448 448 l 25
384 384 m 25
 384 448 l 25
 256 448 l 25
 256 384 l 25
 384 384 l 25
320 320 m 25
 320 384 l 25
 192 384 l 25
 192 320 l 25
 320 320 l 25
256 256 m 25
 256 320 l 25
 128 320 l 25
 128 256 l 25
 256 256 l 25
192 192 m 25
 192 256 l 25
 64 256 l 25
 64 192 l 25
 192 192 l 25
128 128 m 25
 128 192 l 25
 0 192 l 25
 0 128 l 25
 128 128 l 25
64 64 m 25
 64 128 l 25
 0 128 l 25
 0 64 l 25
 64 64 l 25
EndSplineSet
EndChar
StartChar: 0030
Encoding: 48 48 44
Width: 512
Flags: HW
TeX: 0 0 0 0
Fore
320 640 m 25
 320 704 l 25
 128 704 l 25
 128 640 l 25
 320 640 l 25
384 576 m 25
 384 640 l 25
 256 640 l 25
 256 576 l 25
 384 576 l 25
192 576 m 25
 192 640 l 25
 64 640 l 25
 64 576 l 25
 192 576 l 25
448 512 m 25
 448 576 l 25
 320 576 l 25
 320 512 l 25
 448 512 l 25
128 512 m 25
 128 576 l 25
 0 576 l 25
 0 512 l 25
 128 512 l 25
448 448 m 25
 448 512 l 25
 320 512 l 25
 320 448 l 25
 448 448 l 25
128 448 m 25
 128 512 l 25
 0 512 l 25
 0 448 l 25
 128 448 l 25
448 384 m 25
 448 448 l 25
 320 448 l 25
 320 384 l 25
 448 384 l 25
256 384 m 25
 256 448 l 25
 192 448 l 25
 192 384 l 25
 256 384 l 25
128 384 m 25
 128 448 l 25
 0 448 l 25
 0 384 l 25
 128 384 l 25
448 320 m 25
 448 384 l 25
 320 384 l 25
 320 320 l 25
 448 320 l 25
256 320 m 25
 256 384 l 25
 192 384 l 25
 192 320 l 25
 256 320 l 25
128 320 m 25
 128 384 l 25
 0 384 l 25
 0 320 l 25
 128 320 l 25
448 256 m 25
 448 320 l 25
 320 320 l 25
 320 256 l 25
 448 256 l 25
128 256 m 25
 128 320 l 25
 0 320 l 25
 0 256 l 25
 128 256 l 25
448 192 m 25
 448 256 l 25
 320 256 l 25
 320 192 l 25
 448 192 l 25
128 192 m 25
 128 256 l 25
 0 256 l 25
 0 192 l 25
 128 192 l 25
384 128 m 25
 384 192 l 25
 256 192 l 25
 256 128 l 25
 384 128 l 25
192 128 m 25
 192 192 l 25
 64 192 l 25
 64 128 l 25
 192 128 l 25
320 64 m 25
 320 128 l 25
 128 128 l 25
 128 64 l 25
 320 64 l 25
EndSplineSet
EndChar
StartChar: 0031
Encoding: 49 49 45
Width: 512
Flags: HW
TeX: 0 0 0 0
Fore
320 640 m 25
 320 704 l 25
 192 704 l 25
 192 640 l 25
 320 640 l 25
320 576 m 25
 320 640 l 25
 128 640 l 25
 128 576 l 25
 320 576 l 25
320 512 m 25
 320 576 l 25
 64 576 l 25
 64 512 l 25
 320 512 l 25
320 448 m 25
 320 512 l 25
 192 512 l 25
 192 448 l 25
 320 448 l 25
320 384 m 25
 320 448 l 25
 192 448 l 25
 192 384 l 25
 320 384 l 25
320 320 m 25
 320 384 l 25
 192 384 l 25
 192 320 l 25
 320 320 l 25
320 256 m 25
 320 320 l 25
 192 320 l 25
 192 256 l 25
 320 256 l 25
320 192 m 25
 320 256 l 25
 192 256 l 25
 192 192 l 25
 320 192 l 25
320 128 m 25
 320 192 l 25
 192 192 l 25
 192 128 l 25
 320 128 l 25
448 64 m 25
 448 128 l 25
 64 128 l 25
 64 64 l 25
 448 64 l 25
EndSplineSet
EndChar
StartChar: 0032
Encoding: 50 50 46
Width: 512
Flags: HW
TeX: 0 0 0 0
Fore
384 640 m 25
 384 704 l 25
 64 704 l 25
 64 640 l 25
 384 640 l 25
448 576 m 25
 448 640 l 25
 320 640 l 25
 320 576 l 25
 448 576 l 25
128 576 m 25
 128 640 l 25
 0 640 l 25
 0 576 l 25
 128 576 l 25
448 512 m 25
 448 576 l 25
 320 576 l 25
 320 512 l 25
 448 512 l 25
384 448 m 25
 384 512 l 25
 256 512 l 25
 256 448 l 25
 384 448 l 25
320 384 m 25
 320 448 l 25
 192 448 l 25
 192 384 l 25
 320 384 l 25
256 320 m 25
 256 384 l 25
 128 384 l 25
 128 320 l 25
 256 320 l 25
192 256 m 25
 192 320 l 25
 64 320 l 25
 64 256 l 25
 192 256 l 25
128 192 m 25
 128 256 l 25
 0 256 l 25
 0 192 l 25
 128 192 l 25
448 128 m 25
 448 192 l 25
 320 192 l 25
 320 128 l 25
 448 128 l 25
128 128 m 25
 128 192 l 25
 0 192 l 25
 0 128 l 25
 128 128 l 25
448 64 m 25
 448 128 l 25
 0 128 l 25
 0 64 l 25
 448 64 l 25
EndSplineSet
EndChar
StartChar: 0033
Encoding: 51 51 47
Width: 512
Flags: HW
TeX: 0 0 0 0
Fore
384 640 m 25
 384 704 l 25
 64 704 l 25
 64 640 l 25
 384 640 l 25
448 576 m 25
 448 640 l 25
 320 640 l 25
 320 576 l 25
 448 576 l 25
128 576 m 25
 128 640 l 25
 0 640 l 25
 0 576 l 25
 128 576 l 25
448 512 m 25
 448 576 l 25
 320 576 l 25
 320 512 l 25
 448 512 l 25
448 448 m 25
 448 512 l 25
 320 512 l 25
 320 448 l 25
 448 448 l 25
384 384 m 25
 384 448 l 25
 128 448 l 25
 128 384 l 25
 384 384 l 25
448 320 m 25
 448 384 l 25
 320 384 l 25
 320 320 l 25
 448 320 l 25
448 256 m 25
 448 320 l 25
 320 320 l 25
 320 256 l 25
 448 256 l 25
448 192 m 25
 448 256 l 25
 320 256 l 25
 320 192 l 25
 448 192 l 25
448 128 m 25
 448 192 l 25
 320 192 l 25
 320 128 l 25
 448 128 l 25
128 128 m 25
 128 192 l 25
 0 192 l 25
 0 128 l 25
 128 128 l 25
384 64 m 25
 384 128 l 25
 64 128 l 25
 64 64 l 25
 384 64 l 25
EndSplineSet
EndChar
StartChar: 0034
Encoding: 52 52 48
Width: 512
Flags: HW
TeX: 0 0 0 0
Fore
384 640 m 25
 384 704 l 25
 256 704 l 25
 256 640 l 25
 384 640 l 25
384 576 m 25
 384 640 l 25
 192 640 l 25
 192 576 l 25
 384 576 l 25
384 512 m 25
 384 576 l 25
 128 576 l 25
 128 512 l 25
 384 512 l 25
384 448 m 25
 384 512 l 25
 256 512 l 25
 256 448 l 25
 384 448 l 25
192 448 m 25
 192 512 l 25
 64 512 l 25
 64 448 l 25
 192 448 l 25
384 384 m 25
 384 448 l 25
 256 448 l 25
 256 384 l 25
 384 384 l 25
128 384 m 25
 128 448 l 25
 0 448 l 25
 0 384 l 25
 128 384 l 25
448 320 m 25
 448 384 l 25
 0 384 l 25
 0 320 l 25
 448 320 l 25
384 256 m 25
 384 320 l 25
 256 320 l 25
 256 256 l 25
 384 256 l 25
384 192 m 25
 384 256 l 25
 256 256 l 25
 256 192 l 25
 384 192 l 25
384 128 m 25
 384 192 l 25
 256 192 l 25
 256 128 l 25
 384 128 l 25
448 64 m 25
 448 128 l 25
 192 128 l 25
 192 64 l 25
 448 64 l 25
EndSplineSet
EndChar
StartChar: 0035
Encoding: 53 53 49
Width: 512
Flags: HW
TeX: 0 0 0 0
Fore
448 640 m 25
 448 704 l 25
 0 704 l 25
 0 640 l 25
 448 640 l 25
128 576 m 25
 128 640 l 25
 0 640 l 25
 0 576 l 25
 128 576 l 25
128 512 m 25
 128 576 l 25
 0 576 l 25
 0 512 l 25
 128 512 l 25
128 448 m 25
 128 512 l 25
 0 512 l 25
 0 448 l 25
 128 448 l 25
384 384 m 25
 384 448 l 25
 0 448 l 25
 0 384 l 25
 384 384 l 25
448 320 m 25
 448 384 l 25
 320 384 l 25
 320 320 l 25
 448 320 l 25
448 256 m 25
 448 320 l 25
 320 320 l 25
 320 256 l 25
 448 256 l 25
448 192 m 25
 448 256 l 25
 320 256 l 25
 320 192 l 25
 448 192 l 25
448 128 m 25
 448 192 l 25
 320 192 l 25
 320 128 l 25
 448 128 l 25
128 128 m 25
 128 192 l 25
 0 192 l 25
 0 128 l 25
 128 128 l 25
384 64 m 25
 384 128 l 25
 64 128 l 25
 64 64 l 25
 384 64 l 25
EndSplineSet
EndChar
StartChar: 0036
Encoding: 54 54 50
Width: 512
Flags: HW
TeX: 0 0 0 0
Fore
320 640 m 25
 320 704 l 25
 128 704 l 25
 128 640 l 25
 320 640 l 25
192 576 m 25
 192 640 l 25
 64 640 l 25
 64 576 l 25
 192 576 l 25
128 512 m 25
 128 576 l 25
 0 576 l 25
 0 512 l 25
 128 512 l 25
128 448 m 25
 128 512 l 25
 0 512 l 25
 0 448 l 25
 128 448 l 25
384 384 m 25
 384 448 l 25
 0 448 l 25
 0 384 l 25
 384 384 l 25
448 320 m 25
 448 384 l 25
 320 384 l 25
 320 320 l 25
 448 320 l 25
128 320 m 25
 128 384 l 25
 0 384 l 25
 0 320 l 25
 128 320 l 25
448 256 m 25
 448 320 l 25
 320 320 l 25
 320 256 l 25
 448 256 l 25
128 256 m 25
 128 320 l 25
 0 320 l 25
 0 256 l 25
 128 256 l 25
448 192 m 25
 448 256 l 25
 320 256 l 25
 320 192 l 25
 448 192 l 25
128 192 m 25
 128 256 l 25
 0 256 l 25
 0 192 l 25
 128 192 l 25
448 128 m 25
 448 192 l 25
 320 192 l 25
 320 128 l 25
 448 128 l 25
128 128 m 25
 128 192 l 25
 0 192 l 25
 0 128 l 25
 128 128 l 25
384 64 m 25
 384 128 l 25
 64 128 l 25
 64 64 l 25
 384 64 l 25
EndSplineSet
EndChar
StartChar: 0037
Encoding: 55 55 51
Width: 512
Flags: HW
TeX: 0 0 0 0
Fore
448 640 m 25
 448 704 l 25
 0 704 l 25
 0 640 l 25
 448 640 l 25
448 576 m 25
 448 640 l 25
 320 640 l 25
 320 576 l 25
 448 576 l 25
128 576 m 25
 128 640 l 25
 0 640 l 25
 0 576 l 25
 128 576 l 25
448 512 m 25
 448 576 l 25
 320 576 l 25
 320 512 l 25
 448 512 l 25
448 448 m 25
 448 512 l 25
 320 512 l 25
 320 448 l 25
 448 448 l 25
384 384 m 25
 384 448 l 25
 256 448 l 25
 256 384 l 25
 384 384 l 25
320 320 m 25
 320 384 l 25
 192 384 l 25
 192 320 l 25
 320 320 l 25
256 256 m 25
 256 320 l 25
 128 320 l 25
 128 256 l 25
 256 256 l 25
256 192 m 25
 256 256 l 25
 128 256 l 25
 128 192 l 25
 256 192 l 25
256 128 m 25
 256 192 l 25
 128 192 l 25
 128 128 l 25
 256 128 l 25
256 64 m 25
 256 128 l 25
 128 128 l 25
 128 64 l 25
 256 64 l 25
EndSplineSet
EndChar
StartChar: 0038
Encoding: 56 56 52
Width: 512
Flags: HW
TeX: 0 0 0 0
Fore
384 640 m 25
 384 704 l 25
 64 704 l 25
 64 640 l 25
 384 640 l 25
448 576 m 25
 448 640 l 25
 320 640 l 25
 320 576 l 25
 448 576 l 25
128 576 m 25
 128 640 l 25
 0 640 l 25
 0 576 l 25
 128 576 l 25
448 512 m 25
 448 576 l 25
 320 576 l 25
 320 512 l 25
 448 512 l 25
128 512 m 25
 128 576 l 25
 0 576 l 25
 0 512 l 25
 128 512 l 25
448 448 m 25
 448 512 l 25
 320 512 l 25
 320 448 l 25
 448 448 l 25
128 448 m 25
 128 512 l 25
 0 512 l 25
 0 448 l 25
 128 448 l 25
384 384 m 25
 384 448 l 25
 64 448 l 25
 64 384 l 25
 384 384 l 25
448 320 m 25
 448 384 l 25
 320 384 l 25
 320 320 l 25
 448 320 l 25
128 320 m 25
 128 384 l 25
 0 384 l 25
 0 320 l 25
 128 320 l 25
448 256 m 25
 448 320 l 25
 320 320 l 25
 320 256 l 25
 448 256 l 25
128 256 m 25
 128 320 l 25
 0 320 l 25
 0 256 l 25
 128 256 l 25
448 192 m 25
 448 256 l 25
 320 256 l 25
 320 192 l 25
 448 192 l 25
128 192 m 25
 128 256 l 25
 0 256 l 25
 0 192 l 25
 128 192 l 25
448 128 m 25
 448 192 l 25
 320 192 l 25
 320 128 l 25
 448 128 l 25
128 128 m 25
 128 192 l 25
 0 192 l 25
 0 128 l 25
 128 128 l 25
384 64 m 25
 384 128 l 25
 64 128 l 25
 64 64 l 25
 384 64 l 25
EndSplineSet
EndChar
StartChar: 0039
Encoding: 57 57 53
Width: 512
Flags: HW
TeX: 0 0 0 0
Fore
384 640 m 25
 384 704 l 25
 64 704 l 25
 64 640 l 25
 384 640 l 25
448 576 m 25
 448 640 l 25
 320 640 l 25
 320 576 l 25
 448 576 l 25
128 576 m 25
 128 640 l 25
 0 640 l 25
 0 576 l 25
 128 576 l 25
448 512 m 25
 448 576 l 25
 320 576 l 25
 320 512 l 25
 448 512 l 25
128 512 m 25
 128 576 l 25
 0 576 l 25
 0 512 l 25
 128 512 l 25
448 448 m 25
 448 512 l 25
 320 512 l 25
 320 448 l 25
 448 448 l 25
128 448 m 25
 128 512 l 25
 0 512 l 25
 0 448 l 25
 128 448 l 25
448 384 m 25
 448 448 l 25
 64 448 l 25
 64 384 l 25
 448 384 l 25
448 320 m 25
 448 384 l 25
 320 384 l 25
 320 320 l 25
 448 320 l 25
448 256 m 25
 448 320 l 25
 320 320 l 25
 320 256 l 25
 448 256 l 25
448 192 m 25
 448 256 l 25
 320 256 l 25
 320 192 l 25
 448 192 l 25
384 128 m 25
 384 192 l 25
 256 192 l 25
 256 128 l 25
 384 128 l 25
320 64 m 25
 320 128 l 25
 64 128 l 25
 64 64 l 25
 320 64 l 25
EndSplineSet
EndChar
StartChar: 003A
Encoding: 58 58 54
Width: 512
Flags: HW
TeX: 0 0 0 0
Fore
320 448 m 25
 320 512 l 25
 192 512 l 25
 192 448 l 25
 320 448 l 25
320 384 m 25
 320 448 l 25
 192 448 l 25
 192 384 l 25
 320 384 l 25
320 128 m 25
 320 192 l 25
 192 192 l 25
 192 128 l 25
 320 128 l 25
320 64 m 25
 320 128 l 25
 192 128 l 25
 192 64 l 25
 320 64 l 25
EndSplineSet
EndChar
StartChar: 003B
Encoding: 59 59 55
Width: 512
Flags: HW
TeX: 0 0 0 0
Fore
320 448 m 25
 320 512 l 25
 192 512 l 25
 192 448 l 25
 320 448 l 25
320 384 m 25
 320 448 l 25
 192 448 l 25
 192 384 l 25
 320 384 l 25
320 128 m 25
 320 192 l 25
 192 192 l 25
 192 128 l 25
 320 128 l 25
320 64 m 25
 320 128 l 25
 192 128 l 25
 192 64 l 25
 320 64 l 25
256 0 m 25
 256 64 l 25
 128 64 l 25
 128 0 l 25
 256 0 l 25
EndSplineSet
EndChar
StartChar: 003C
Encoding: 60 60 56
Width: 512
Flags: HW
TeX: 0 0 0 0
Fore
448 576 m 25
 448 640 l 25
 320 640 l 25
 320 576 l 25
 448 576 l 25
384 512 m 25
 384 576 l 25
 256 576 l 25
 256 512 l 25
 384 512 l 25
320 448 m 25
 320 512 l 25
 192 512 l 25
 192 448 l 25
 320 448 l 25
256 384 m 25
 256 448 l 25
 128 448 l 25
 128 384 l 25
 256 384 l 25
192 320 m 25
 192 384 l 25
 64 384 l 25
 64 320 l 25
 192 320 l 25
256 256 m 25
 256 320 l 25
 128 320 l 25
 128 256 l 25
 256 256 l 25
320 192 m 25
 320 256 l 25
 192 256 l 25
 192 192 l 25
 320 192 l 25
384 128 m 25
 384 192 l 25
 256 192 l 25
 256 128 l 25
 384 128 l 25
448 64 m 25
 448 128 l 25
 320 128 l 25
 320 64 l 25
 448 64 l 25
EndSplineSet
EndChar
StartChar: 003D
Encoding: 61 61 57
Width: 512
Flags: HW
TeX: 0 0 0 0
Fore
448 448 m 25
 448 512 l 25
 64 512 l 25
 64 448 l 25
 448 448 l 25
448 256 m 25
 448 320 l 25
 64 320 l 25
 64 256 l 25
 448 256 l 25
EndSplineSet
EndChar
StartChar: 003E
Encoding: 62 62 58
Width: 512
Flags: HW
TeX: 0 0 0 0
Fore
192 576 m 25
 192 640 l 25
 64 640 l 25
 64 576 l 25
 192 576 l 25
256 512 m 25
 256 576 l 25
 128 576 l 25
 128 512 l 25
 256 512 l 25
320 448 m 25
 320 512 l 25
 192 512 l 25
 192 448 l 25
 320 448 l 25
384 384 m 25
 384 448 l 25
 256 448 l 25
 256 384 l 25
 384 384 l 25
448 320 m 25
 448 384 l 25
 320 384 l 25
 320 320 l 25
 448 320 l 25
384 256 m 25
 384 320 l 25
 256 320 l 25
 256 256 l 25
 384 256 l 25
320 192 m 25
 320 256 l 25
 192 256 l 25
 192 192 l 25
 320 192 l 25
256 128 m 25
 256 192 l 25
 128 192 l 25
 128 128 l 25
 256 128 l 25
192 64 m 25
 192 128 l 25
 64 128 l 25
 64 64 l 25
 192 64 l 25
EndSplineSet
EndChar
StartChar: 003F
Encoding: 63 63 59
Width: 512
Flags: HW
TeX: 0 0 0 0
Fore
384 640 m 25
 384 704 l 25
 64 704 l 25
 64 640 l 25
 384 640 l 25
448 576 m 25
 448 640 l 25
 320 640 l 25
 320 576 l 25
 448 576 l 25
128 576 m 25
 128 640 l 25
 0 640 l 25
 0 576 l 25
 128 576 l 25
448 512 m 25
 448 576 l 25
 320 576 l 25
 320 512 l 25
 448 512 l 25
128 512 m 25
 128 576 l 25
 0 576 l 25
 0 512 l 25
 128 512 l 25
384 448 m 25
 384 512 l 25
 256 512 l 25
 256 448 l 25
 384 448 l 25
320 384 m 25
 320 448 l 25
 192 448 l 25
 192 384 l 25
 320 384 l 25
320 320 m 25
 320 384 l 25
 192 384 l 25
 192 320 l 25
 320 320 l 25
320 256 m 25
 320 320 l 25
 192 320 l 25
 192 256 l 25
 320 256 l 25
320 128 m 25
 320 192 l 25
 192 192 l 25
 192 128 l 25
 320 128 l 25
320 64 m 25
 320 128 l 25
 192 128 l 25
 192 64 l 25
 320 64 l 25
EndSplineSet
EndChar
StartChar: 0040
Encoding: 64 64 60
Width: 512
Flags: HW
TeX: 0 0 0 0
Fore
384 576 m 25
 384 640 l 25
 64 640 l 25
 64 576 l 25
 384 576 l 25
448 512 m 25
 448 576 l 25
 320 576 l 25
 320 512 l 25
 448 512 l 25
128 512 m 25
 128 576 l 25
 0 576 l 25
 0 512 l 25
 128 512 l 25
448 448 m 25
 448 512 l 25
 320 512 l 25
 320 448 l 25
 448 448 l 25
128 448 m 25
 128 512 l 25
 0 512 l 25
 0 448 l 25
 128 448 l 25
448 384 m 25
 448 448 l 25
 192 448 l 25
 192 384 l 25
 448 384 l 25
128 384 m 25
 128 448 l 25
 0 448 l 25
 0 384 l 25
 128 384 l 25
448 320 m 25
 448 384 l 25
 192 384 l 25
 192 320 l 25
 448 320 l 25
128 320 m 25
 128 384 l 25
 0 384 l 25
 0 320 l 25
 128 320 l 25
448 256 m 25
 448 320 l 25
 192 320 l 25
 192 256 l 25
 448 256 l 25
128 256 m 25
 128 320 l 25
 0 320 l 25
 0 256 l 25
 128 256 l 25
384 192 m 25
 384 256 l 25
 192 256 l 25
 192 192 l 25
 384 192 l 25
128 192 m 25
 128 256 l 25
 0 256 l 25
 0 192 l 25
 128 192 l 25
128 128 m 25
 128 192 l 25
 0 192 l 25
 0 128 l 25
 128 128 l 25
384 64 m 25
 384 128 l 25
 64 128 l 25
 64 64 l 25
 384 64 l 25
EndSplineSet
EndChar
StartChar: 0041
Encoding: 65 65 61
Width: 512
Flags: HW
TeX: 0 0 0 0
Fore
256 640 m 25
 256 704 l 25
 192 704 l 25
 192 640 l 25
 256 640 l 25
320 576 m 25
 320 640 l 25
 128 640 l 25
 128 576 l 25
 320 576 l 25
384 512 m 25
 384 576 l 25
 256 576 l 25
 256 512 l 25
 384 512 l 25
192 512 m 25
 192 576 l 25
 64 576 l 25
 64 512 l 25
 192 512 l 25
448 448 m 25
 448 512 l 25
 320 512 l 25
 320 448 l 25
 448 448 l 25
128 448 m 25
 128 512 l 25
 0 512 l 25
 0 448 l 25
 128 448 l 25
448 384 m 25
 448 448 l 25
 320 448 l 25
 320 384 l 25
 448 384 l 25
128 384 m 25
 128 448 l 25
 0 448 l 25
 0 384 l 25
 128 384 l 25
448 320 m 25
 448 384 l 25
 0 384 l 25
 0 320 l 25
 448 320 l 25
448 256 m 25
 448 320 l 25
 320 320 l 25
 320 256 l 25
 448 256 l 25
128 256 m 25
 128 320 l 25
 0 320 l 25
 0 256 l 25
 128 256 l 25
448 192 m 25
 448 256 l 25
 320 256 l 25
 320 192 l 25
 448 192 l 25
128 192 m 25
 128 256 l 25
 0 256 l 25
 0 192 l 25
 128 192 l 25
448 128 m 25
 448 192 l 25
 320 192 l 25
 320 128 l 25
 448 128 l 25
128 128 m 25
 128 192 l 25
 0 192 l 25
 0 128 l 25
 128 128 l 25
448 64 m 25
 448 128 l 25
 320 128 l 25
 320 64 l 25
 448 64 l 25
128 64 m 25
 128 128 l 25
 0 128 l 25
 0 64 l 25
 128 64 l 25
EndSplineSet
EndChar
StartChar: 0042
Encoding: 66 66 62
Width: 512
Flags: HW
TeX: 0 0 0 0
Fore
384 640 m 25
 384 704 l 25
 0 704 l 25
 0 640 l 25
 384 640 l 25
448 576 m 25
 448 640 l 25
 320 640 l 25
 320 576 l 25
 448 576 l 25
192 576 m 25
 192 640 l 25
 64 640 l 25
 64 576 l 25
 192 576 l 25
448 512 m 25
 448 576 l 25
 320 576 l 25
 320 512 l 25
 448 512 l 25
192 512 m 25
 192 576 l 25
 64 576 l 25
 64 512 l 25
 192 512 l 25
448 448 m 25
 448 512 l 25
 320 512 l 25
 320 448 l 25
 448 448 l 25
192 448 m 25
 192 512 l 25
 64 512 l 25
 64 448 l 25
 192 448 l 25
384 384 m 25
 384 448 l 25
 64 448 l 25
 64 384 l 25
 384 384 l 25
448 320 m 25
 448 384 l 25
 320 384 l 25
 320 320 l 25
 448 320 l 25
192 320 m 25
 192 384 l 25
 64 384 l 25
 64 320 l 25
 192 320 l 25
448 256 m 25
 448 320 l 25
 320 320 l 25
 320 256 l 25
 448 256 l 25
192 256 m 25
 192 320 l 25
 64 320 l 25
 64 256 l 25
 192 256 l 25
448 192 m 25
 448 256 l 25
 320 256 l 25
 320 192 l 25
 448 192 l 25
192 192 m 25
 192 256 l 25
 64 256 l 25
 64 192 l 25
 192 192 l 25
448 128 m 25
 448 192 l 25
 320 192 l 25
 320 128 l 25
 448 128 l 25
192 128 m 25
 192 192 l 25
 64 192 l 25
 64 128 l 25
 192 128 l 25
384 64 m 25
 384 128 l 25
 0 128 l 25
 0 64 l 25
 384 64 l 25
EndSplineSet
EndChar
StartChar: 0043
Encoding: 67 67 63
Width: 512
Flags: HW
TeX: 0 0 0 0
Fore
384 640 m 25
 384 704 l 25
 128 704 l 25
 128 640 l 25
 384 640 l 25
448 576 m 25
 448 640 l 25
 320 640 l 25
 320 576 l 25
 448 576 l 25
192 576 m 25
 192 640 l 25
 64 640 l 25
 64 576 l 25
 192 576 l 25
448 512 m 25
 448 576 l 25
 384 576 l 25
 384 512 l 25
 448 512 l 25
128 512 m 25
 128 576 l 25
 0 576 l 25
 0 512 l 25
 128 512 l 25
128 448 m 25
 128 512 l 25
 0 512 l 25
 0 448 l 25
 128 448 l 25
128 384 m 25
 128 448 l 25
 0 448 l 25
 0 384 l 25
 128 384 l 25
128 320 m 25
 128 384 l 25
 0 384 l 25
 0 320 l 25
 128 320 l 25
128 256 m 25
 128 320 l 25
 0 320 l 25
 0 256 l 25
 128 256 l 25
448 192 m 25
 448 256 l 25
 384 256 l 25
 384 192 l 25
 448 192 l 25
128 192 m 25
 128 256 l 25
 0 256 l 25
 0 192 l 25
 128 192 l 25
448 128 m 25
 448 192 l 25
 320 192 l 25
 320 128 l 25
 448 128 l 25
192 128 m 25
 192 192 l 25
 64 192 l 25
 64 128 l 25
 192 128 l 25
384 64 m 25
 384 128 l 25
 128 128 l 25
 128 64 l 25
 384 64 l 25
EndSplineSet
EndChar
StartChar: 0044
Encoding: 68 68 64
Width: 512
Flags: HW
TeX: 0 0 0 0
Fore
320 640 m 25
 320 704 l 25
 0 704 l 25
 0 640 l 25
 320 640 l 25
384 576 m 25
 384 640 l 25
 256 640 l 25
 256 576 l 25
 384 576 l 25
192 576 m 25
 192 640 l 25
 64 640 l 25
 64 576 l 25
 192 576 l 25
448 512 m 25
 448 576 l 25
 320 576 l 25
 320 512 l 25
 448 512 l 25
192 512 m 25
 192 576 l 25
 64 576 l 25
 64 512 l 25
 192 512 l 25
448 448 m 25
 448 512 l 25
 320 512 l 25
 320 448 l 25
 448 448 l 25
192 448 m 25
 192 512 l 25
 64 512 l 25
 64 448 l 25
 192 448 l 25
448 384 m 25
 448 448 l 25
 320 448 l 25
 320 384 l 25
 448 384 l 25
192 384 m 25
 192 448 l 25
 64 448 l 25
 64 384 l 25
 192 384 l 25
448 320 m 25
 448 384 l 25
 320 384 l 25
 320 320 l 25
 448 320 l 25
192 320 m 25
 192 384 l 25
 64 384 l 25
 64 320 l 25
 192 320 l 25
448 256 m 25
 448 320 l 25
 320 320 l 25
 320 256 l 25
 448 256 l 25
192 256 m 25
 192 320 l 25
 64 320 l 25
 64 256 l 25
 192 256 l 25
448 192 m 25
 448 256 l 25
 320 256 l 25
 320 192 l 25
 448 192 l 25
192 192 m 25
 192 256 l 25
 64 256 l 25
 64 192 l 25
 192 192 l 25
384 128 m 25
 384 192 l 25
 256 192 l 25
 256 128 l 25
 384 128 l 25
192 128 m 25
 192 192 l 25
 64 192 l 25
 64 128 l 25
 192 128 l 25
320 64 m 25
 320 128 l 25
 0 128 l 25
 0 64 l 25
 320 64 l 25
EndSplineSet
EndChar
StartChar: 0045
Encoding: 69 69 65
Width: 512
Flags: HW
TeX: 0 0 0 0
Fore
448 640 m 25
 448 704 l 25
 0 704 l 25
 0 640 l 25
 448 640 l 25
448 576 m 25
 448 640 l 25
 320 640 l 25
 320 576 l 25
 448 576 l 25
192 576 m 25
 192 640 l 25
 64 640 l 25
 64 576 l 25
 192 576 l 25
448 512 m 25
 448 576 l 25
 384 576 l 25
 384 512 l 25
 448 512 l 25
192 512 m 25
 192 576 l 25
 64 576 l 25
 64 512 l 25
 192 512 l 25
320 448 m 25
 320 512 l 25
 256 512 l 25
 256 448 l 25
 320 448 l 25
192 448 m 25
 192 512 l 25
 64 512 l 25
 64 448 l 25
 192 448 l 25
320 384 m 25
 320 448 l 25
 64 448 l 25
 64 384 l 25
 320 384 l 25
320 320 m 25
 320 384 l 25
 256 384 l 25
 256 320 l 25
 320 320 l 25
192 320 m 25
 192 384 l 25
 64 384 l 25
 64 320 l 25
 192 320 l 25
192 256 m 25
 192 320 l 25
 64 320 l 25
 64 256 l 25
 192 256 l 25
448 192 m 25
 448 256 l 25
 384 256 l 25
 384 192 l 25
 448 192 l 25
192 192 m 25
 192 256 l 25
 64 256 l 25
 64 192 l 25
 192 192 l 25
448 128 m 25
 448 192 l 25
 320 192 l 25
 320 128 l 25
 448 128 l 25
192 128 m 25
 192 192 l 25
 64 192 l 25
 64 128 l 25
 192 128 l 25
448 64 m 25
 448 128 l 25
 0 128 l 25
 0 64 l 25
 448 64 l 25
EndSplineSet
EndChar
StartChar: 0046
Encoding: 70 70 66
Width: 512
Flags: HW
TeX: 0 0 0 0
Fore
448 640 m 25
 448 704 l 25
 0 704 l 25
 0 640 l 25
 448 640 l 25
448 576 m 25
 448 640 l 25
 320 640 l 25
 320 576 l 25
 448 576 l 25
192 576 m 25
 192 640 l 25
 64 640 l 25
 64 576 l 25
 192 576 l 25
448 512 m 25
 448 576 l 25
 384 576 l 25
 384 512 l 25
 448 512 l 25
192 512 m 25
 192 576 l 25
 64 576 l 25
 64 512 l 25
 192 512 l 25
320 448 m 25
 320 512 l 25
 256 512 l 25
 256 448 l 25
 320 448 l 25
192 448 m 25
 192 512 l 25
 64 512 l 25
 64 448 l 25
 192 448 l 25
320 384 m 25
 320 448 l 25
 64 448 l 25
 64 384 l 25
 320 384 l 25
320 320 m 25
 320 384 l 25
 256 384 l 25
 256 320 l 25
 320 320 l 25
192 320 m 25
 192 384 l 25
 64 384 l 25
 64 320 l 25
 192 320 l 25
192 256 m 25
 192 320 l 25
 64 320 l 25
 64 256 l 25
 192 256 l 25
192 192 m 25
 192 256 l 25
 64 256 l 25
 64 192 l 25
 192 192 l 25
192 128 m 25
 192 192 l 25
 64 192 l 25
 64 128 l 25
 192 128 l 25
256 64 m 25
 256 128 l 25
 0 128 l 25
 0 64 l 25
 256 64 l 25
EndSplineSet
EndChar
StartChar: 0047
Encoding: 71 71 67
Width: 512
Flags: HW
TeX: 0 0 0 0
Fore
384 640 m 25
 384 704 l 25
 128 704 l 25
 128 640 l 25
 384 640 l 25
448 576 m 25
 448 640 l 25
 320 640 l 25
 320 576 l 25
 448 576 l 25
192 576 m 25
 192 640 l 25
 64 640 l 25
 64 576 l 25
 192 576 l 25
448 512 m 25
 448 576 l 25
 384 576 l 25
 384 512 l 25
 448 512 l 25
128 512 m 25
 128 576 l 25
 0 576 l 25
 0 512 l 25
 128 512 l 25
128 448 m 25
 128 512 l 25
 0 512 l 25
 0 448 l 25
 128 448 l 25
128 384 m 25
 128 448 l 25
 0 448 l 25
 0 384 l 25
 128 384 l 25
448 320 m 25
 448 384 l 25
 192 384 l 25
 192 320 l 25
 448 320 l 25
128 320 m 25
 128 384 l 25
 0 384 l 25
 0 320 l 25
 128 320 l 25
448 256 m 25
 448 320 l 25
 320 320 l 25
 320 256 l 25
 448 256 l 25
128 256 m 25
 128 320 l 25
 0 320 l 25
 0 256 l 25
 128 256 l 25
448 192 m 25
 448 256 l 25
 320 256 l 25
 320 192 l 25
 448 192 l 25
128 192 m 25
 128 256 l 25
 0 256 l 25
 0 192 l 25
 128 192 l 25
448 128 m 25
 448 192 l 25
 320 192 l 25
 320 128 l 25
 448 128 l 25
192 128 m 25
 192 192 l 25
 64 192 l 25
 64 128 l 25
 192 128 l 25
448 64 m 25
 448 128 l 25
 384 128 l 25
 384 64 l 25
 448 64 l 25
320 64 m 25
 320 128 l 25
 128 128 l 25
 128 64 l 25
 320 64 l 25
EndSplineSet
EndChar
StartChar: 0048
Encoding: 72 72 68
Width: 512
Flags: HW
TeX: 0 0 0 0
Fore
448 640 m 25
 448 704 l 25
 320 704 l 25
 320 640 l 25
 448 640 l 25
128 640 m 25
 128 704 l 25
 0 704 l 25
 0 640 l 25
 128 640 l 25
448 576 m 25
 448 640 l 25
 320 640 l 25
 320 576 l 25
 448 576 l 25
128 576 m 25
 128 640 l 25
 0 640 l 25
 0 576 l 25
 128 576 l 25
448 512 m 25
 448 576 l 25
 320 576 l 25
 320 512 l 25
 448 512 l 25
128 512 m 25
 128 576 l 25
 0 576 l 25
 0 512 l 25
 128 512 l 25
448 448 m 25
 448 512 l 25
 320 512 l 25
 320 448 l 25
 448 448 l 25
128 448 m 25
 128 512 l 25
 0 512 l 25
 0 448 l 25
 128 448 l 25
448 384 m 25
 448 448 l 25
 0 448 l 25
 0 384 l 25
 448 384 l 25
448 320 m 25
 448 384 l 25
 320 384 l 25
 320 320 l 25
 448 320 l 25
128 320 m 25
 128 384 l 25
 0 384 l 25
 0 320 l 25
 128 320 l 25
448 256 m 25
 448 320 l 25
 320 320 l 25
 320 256 l 25
 448 256 l 25
128 256 m 25
 128 320 l 25
 0 320 l 25
 0 256 l 25
 128 256 l 25
448 192 m 25
 448 256 l 25
 320 256 l 25
 320 192 l 25
 448 192 l 25
128 192 m 25
 128 256 l 25
 0 256 l 25
 0 192 l 25
 128 192 l 25
448 128 m 25
 448 192 l 25
 320 192 l 25
 320 128 l 25
 448 128 l 25
128 128 m 25
 128 192 l 25
 0 192 l 25
 0 128 l 25
 128 128 l 25
448 64 m 25
 448 128 l 25
 320 128 l 25
 320 64 l 25
 448 64 l 25
128 64 m 25
 128 128 l 25
 0 128 l 25
 0 64 l 25
 128 64 l 25
EndSplineSet
EndChar
StartChar: 0049
Encoding: 73 73 69
Width: 512
Flags: HW
TeX: 0 0 0 0
Fore
384 640 m 25
 384 704 l 25
 128 704 l 25
 128 640 l 25
 384 640 l 25
320 576 m 25
 320 640 l 25
 192 640 l 25
 192 576 l 25
 320 576 l 25
320 512 m 25
 320 576 l 25
 192 576 l 25
 192 512 l 25
 320 512 l 25
320 448 m 25
 320 512 l 25
 192 512 l 25
 192 448 l 25
 320 448 l 25
320 384 m 25
 320 448 l 25
 192 448 l 25
 192 384 l 25
 320 384 l 25
320 320 m 25
 320 384 l 25
 192 384 l 25
 192 320 l 25
 320 320 l 25
320 256 m 25
 320 320 l 25
 192 320 l 25
 192 256 l 25
 320 256 l 25
320 192 m 25
 320 256 l 25
 192 256 l 25
 192 192 l 25
 320 192 l 25
320 128 m 25
 320 192 l 25
 192 192 l 25
 192 128 l 25
 320 128 l 25
384 64 m 25
 384 128 l 25
 128 128 l 25
 128 64 l 25
 384 64 l 25
EndSplineSet
EndChar
StartChar: 004A
Encoding: 74 74 70
Width: 512
Flags: HW
TeX: 0 0 0 0
Fore
448 640 m 25
 448 704 l 25
 192 704 l 25
 192 640 l 25
 448 640 l 25
384 576 m 25
 384 640 l 25
 256 640 l 25
 256 576 l 25
 384 576 l 25
384 512 m 25
 384 576 l 25
 256 576 l 25
 256 512 l 25
 384 512 l 25
384 448 m 25
 384 512 l 25
 256 512 l 25
 256 448 l 25
 384 448 l 25
384 384 m 25
 384 448 l 25
 256 448 l 25
 256 384 l 25
 384 384 l 25
384 320 m 25
 384 384 l 25
 256 384 l 25
 256 320 l 25
 384 320 l 25
384 256 m 25
 384 320 l 25
 256 320 l 25
 256 256 l 25
 384 256 l 25
128 256 m 25
 128 320 l 25
 0 320 l 25
 0 256 l 25
 128 256 l 25
384 192 m 25
 384 256 l 25
 256 256 l 25
 256 192 l 25
 384 192 l 25
128 192 m 25
 128 256 l 25
 0 256 l 25
 0 192 l 25
 128 192 l 25
384 128 m 25
 384 192 l 25
 256 192 l 25
 256 128 l 25
 384 128 l 25
128 128 m 25
 128 192 l 25
 0 192 l 25
 0 128 l 25
 128 128 l 25
320 64 m 25
 320 128 l 25
 64 128 l 25
 64 64 l 25
 320 64 l 25
EndSplineSet
EndChar
StartChar: 004B
Encoding: 75 75 71
Width: 512
Flags: HW
TeX: 0 0 0 0
Fore
448 640 m 25
 448 704 l 25
 320 704 l 25
 320 640 l 25
 448 640 l 25
192 640 m 25
 192 704 l 25
 0 704 l 25
 0 640 l 25
 192 640 l 25
448 576 m 25
 448 640 l 25
 320 640 l 25
 320 576 l 25
 448 576 l 25
192 576 m 25
 192 640 l 25
 64 640 l 25
 64 576 l 25
 192 576 l 25
448 512 m 25
 448 576 l 25
 320 576 l 25
 320 512 l 25
 448 512 l 25
192 512 m 25
 192 576 l 25
 64 576 l 25
 64 512 l 25
 192 512 l 25
384 448 m 25
 384 512 l 25
 256 512 l 25
 256 448 l 25
 384 448 l 25
192 448 m 25
 192 512 l 25
 64 512 l 25
 64 448 l 25
 192 448 l 25
320 384 m 25
 320 448 l 25
 64 448 l 25
 64 384 l 25
 320 384 l 25
320 320 m 25
 320 384 l 25
 64 384 l 25
 64 320 l 25
 320 320 l 25
384 256 m 25
 384 320 l 25
 256 320 l 25
 256 256 l 25
 384 256 l 25
192 256 m 25
 192 320 l 25
 64 320 l 25
 64 256 l 25
 192 256 l 25
448 192 m 25
 448 256 l 25
 320 256 l 25
 320 192 l 25
 448 192 l 25
192 192 m 25
 192 256 l 25
 64 256 l 25
 64 192 l 25
 192 192 l 25
448 128 m 25
 448 192 l 25
 320 192 l 25
 320 128 l 25
 448 128 l 25
192 128 m 25
 192 192 l 25
 64 192 l 25
 64 128 l 25
 192 128 l 25
448 64 m 25
 448 128 l 25
 320 128 l 25
 320 64 l 25
 448 64 l 25
192 64 m 25
 192 128 l 25
 0 128 l 25
 0 64 l 25
 192 64 l 25
EndSplineSet
EndChar
StartChar: 004C
Encoding: 76 76 72
Width: 512
Flags: HW
TeX: 0 0 0 0
Fore
256 640 m 25
 256 704 l 25
 0 704 l 25
 0 640 l 25
 256 640 l 25
192 576 m 25
 192 640 l 25
 64 640 l 25
 64 576 l 25
 192 576 l 25
192 512 m 25
 192 576 l 25
 64 576 l 25
 64 512 l 25
 192 512 l 25
192 448 m 25
 192 512 l 25
 64 512 l 25
 64 448 l 25
 192 448 l 25
192 384 m 25
 192 448 l 25
 64 448 l 25
 64 384 l 25
 192 384 l 25
192 320 m 25
 192 384 l 25
 64 384 l 25
 64 320 l 25
 192 320 l 25
192 256 m 25
 192 320 l 25
 64 320 l 25
 64 256 l 25
 192 256 l 25
448 192 m 25
 448 256 l 25
 384 256 l 25
 384 192 l 25
 448 192 l 25
192 192 m 25
 192 256 l 25
 64 256 l 25
 64 192 l 25
 192 192 l 25
448 128 m 25
 448 192 l 25
 320 192 l 25
 320 128 l 25
 448 128 l 25
192 128 m 25
 192 192 l 25
 64 192 l 25
 64 128 l 25
 192 128 l 25
448 64 m 25
 448 128 l 25
 0 128 l 25
 0 64 l 25
 448 64 l 25
EndSplineSet
EndChar
StartChar: 004D
Encoding: 77 77 73
Width: 512
Flags: HW
TeX: 0 0 0 0
Fore
448 640 m 25
 448 704 l 25
 320 704 l 25
 320 640 l 25
 448 640 l 25
128 640 m 25
 128 704 l 25
 0 704 l 25
 0 640 l 25
 128 640 l 25
448 576 m 25
 448 640 l 25
 256 640 l 25
 256 576 l 25
 448 576 l 25
192 576 m 25
 192 640 l 25
 0 640 l 25
 0 576 l 25
 192 576 l 25
448 512 m 25
 448 576 l 25
 0 576 l 25
 0 512 l 25
 448 512 l 25
448 448 m 25
 448 512 l 25
 0 512 l 25
 0 448 l 25
 448 448 l 25
448 384 m 25
 448 448 l 25
 320 448 l 25
 320 384 l 25
 448 384 l 25
256 384 m 25
 256 448 l 25
 192 448 l 25
 192 384 l 25
 256 384 l 25
128 384 m 25
 128 448 l 25
 0 448 l 25
 0 384 l 25
 128 384 l 25
448 320 m 25
 448 384 l 25
 320 384 l 25
 320 320 l 25
 448 320 l 25
128 320 m 25
 128 384 l 25
 0 384 l 25
 0 320 l 25
 128 320 l 25
448 256 m 25
 448 320 l 25
 320 320 l 25
 320 256 l 25
 448 256 l 25
128 256 m 25
 128 320 l 25
 0 320 l 25
 0 256 l 25
 128 256 l 25
448 192 m 25
 448 256 l 25
 320 256 l 25
 320 192 l 25
 448 192 l 25
128 192 m 25
 128 256 l 25
 0 256 l 25
 0 192 l 25
 128 192 l 25
448 128 m 25
 448 192 l 25
 320 192 l 25
 320 128 l 25
 448 128 l 25
128 128 m 25
 128 192 l 25
 0 192 l 25
 0 128 l 25
 128 128 l 25
448 64 m 25
 448 128 l 25
 320 128 l 25
 320 64 l 25
 448 64 l 25
128 64 m 25
 128 128 l 25
 0 128 l 25
 0 64 l 25
 128 64 l 25
EndSplineSet
EndChar
StartChar: 004E
Encoding: 78 78 74
Width: 512
Flags: HW
TeX: 0 0 0 0
Fore
448 640 m 25
 448 704 l 25
 320 704 l 25
 320 640 l 25
 448 640 l 25
128 640 m 25
 128 704 l 25
 0 704 l 25
 0 640 l 25
 128 640 l 25
448 576 m 25
 448 640 l 25
 320 640 l 25
 320 576 l 25
 448 576 l 25
192 576 m 25
 192 640 l 25
 0 640 l 25
 0 576 l 25
 192 576 l 25
448 512 m 25
 448 576 l 25
 320 576 l 25
 320 512 l 25
 448 512 l 25
256 512 m 25
 256 576 l 25
 0 576 l 25
 0 512 l 25
 256 512 l 25
448 448 m 25
 448 512 l 25
 0 512 l 25
 0 448 l 25
 448 448 l 25
448 384 m 25
 448 448 l 25
 192 448 l 25
 192 384 l 25
 448 384 l 25
128 384 m 25
 128 448 l 25
 0 448 l 25
 0 384 l 25
 128 384 l 25
448 320 m 25
 448 384 l 25
 256 384 l 25
 256 320 l 25
 448 320 l 25
128 320 m 25
 128 384 l 25
 0 384 l 25
 0 320 l 25
 128 320 l 25
448 256 m 25
 448 320 l 25
 320 320 l 25
 320 256 l 25
 448 256 l 25
128 256 m 25
 128 320 l 25
 0 320 l 25
 0 256 l 25
 128 256 l 25
448 192 m 25
 448 256 l 25
 320 256 l 25
 320 192 l 25
 448 192 l 25
128 192 m 25
 128 256 l 25
 0 256 l 25
 0 192 l 25
 128 192 l 25
448 128 m 25
 448 192 l 25
 320 192 l 25
 320 128 l 25
 448 128 l 25
128 128 m 25
 128 192 l 25
 0 192 l 25
 0 128 l 25
 128 128 l 25
448 64 m 25
 448 128 l 25
 320 128 l 25
 320 64 l 25
 448 64 l 25
128 64 m 25
 128 128 l 25
 0 128 l 25
 0 64 l 25
 128 64 l 25
EndSplineSet
EndChar
StartChar: 004F
Encoding: 79 79 75
Width: 512
Flags: HW
TeX: 0 0 0 0
Fore
384 640 m 25
 384 704 l 25
 64 704 l 25
 64 640 l 25
 384 640 l 25
448 576 m 25
 448 640 l 25
 320 640 l 25
 320 576 l 25
 448 576 l 25
128 576 m 25
 128 640 l 25
 0 640 l 25
 0 576 l 25
 128 576 l 25
448 512 m 25
 448 576 l 25
 320 576 l 25
 320 512 l 25
 448 512 l 25
128 512 m 25
 128 576 l 25
 0 576 l 25
 0 512 l 25
 128 512 l 25
448 448 m 25
 448 512 l 25
 320 512 l 25
 320 448 l 25
 448 448 l 25
128 448 m 25
 128 512 l 25
 0 512 l 25
 0 448 l 25
 128 448 l 25
448 384 m 25
 448 448 l 25
 320 448 l 25
 320 384 l 25
 448 384 l 25
128 384 m 25
 128 448 l 25
 0 448 l 25
 0 384 l 25
 128 384 l 25
448 320 m 25
 448 384 l 25
 320 384 l 25
 320 320 l 25
 448 320 l 25
128 320 m 25
 128 384 l 25
 0 384 l 25
 0 320 l 25
 128 320 l 25
448 256 m 25
 448 320 l 25
 320 320 l 25
 320 256 l 25
 448 256 l 25
128 256 m 25
 128 320 l 25
 0 320 l 25
 0 256 l 25
 128 256 l 25
448 192 m 25
 448 256 l 25
 320 256 l 25
 320 192 l 25
 448 192 l 25
128 192 m 25
 128 256 l 25
 0 256 l 25
 0 192 l 25
 128 192 l 25
448 128 m 25
 448 192 l 25
 320 192 l 25
 320 128 l 25
 448 128 l 25
128 128 m 25
 128 192 l 25
 0 192 l 25
 0 128 l 25
 128 128 l 25
384 64 m 25
 384 128 l 25
 64 128 l 25
 64 64 l 25
 384 64 l 25
EndSplineSet
EndChar
StartChar: 0050
Encoding: 80 80 76
Width: 512
Flags: HW
TeX: 0 0 0 0
Fore
384 640 m 25
 384 704 l 25
 0 704 l 25
 0 640 l 25
 384 640 l 25
448 576 m 25
 448 640 l 25
 320 640 l 25
 320 576 l 25
 448 576 l 25
192 576 m 25
 192 640 l 25
 64 640 l 25
 64 576 l 25
 192 576 l 25
448 512 m 25
 448 576 l 25
 320 576 l 25
 320 512 l 25
 448 512 l 25
192 512 m 25
 192 576 l 25
 64 576 l 25
 64 512 l 25
 192 512 l 25
448 448 m 25
 448 512 l 25
 320 512 l 25
 320 448 l 25
 448 448 l 25
192 448 m 25
 192 512 l 25
 64 512 l 25
 64 448 l 25
 192 448 l 25
384 384 m 25
 384 448 l 25
 64 448 l 25
 64 384 l 25
 384 384 l 25
192 320 m 25
 192 384 l 25
 64 384 l 25
 64 320 l 25
 192 320 l 25
192 256 m 25
 192 320 l 25
 64 320 l 25
 64 256 l 25
 192 256 l 25
192 192 m 25
 192 256 l 25
 64 256 l 25
 64 192 l 25
 192 192 l 25
192 128 m 25
 192 192 l 25
 64 192 l 25
 64 128 l 25
 192 128 l 25
256 64 m 25
 256 128 l 25
 0 128 l 25
 0 64 l 25
 256 64 l 25
EndSplineSet
EndChar
StartChar: 0051
Encoding: 81 81 77
Width: 512
Flags: HW
TeX: 0 0 0 0
Fore
384 640 m 25
 384 704 l 25
 64 704 l 25
 64 640 l 25
 384 640 l 25
448 576 m 25
 448 640 l 25
 320 640 l 25
 320 576 l 25
 448 576 l 25
128 576 m 25
 128 640 l 25
 0 640 l 25
 0 576 l 25
 128 576 l 25
448 512 m 25
 448 576 l 25
 320 576 l 25
 320 512 l 25
 448 512 l 25
128 512 m 25
 128 576 l 25
 0 576 l 25
 0 512 l 25
 128 512 l 25
448 448 m 25
 448 512 l 25
 320 512 l 25
 320 448 l 25
 448 448 l 25
128 448 m 25
 128 512 l 25
 0 512 l 25
 0 448 l 25
 128 448 l 25
448 384 m 25
 448 448 l 25
 320 448 l 25
 320 384 l 25
 448 384 l 25
128 384 m 25
 128 448 l 25
 0 448 l 25
 0 384 l 25
 128 384 l 25
448 320 m 25
 448 384 l 25
 320 384 l 25
 320 320 l 25
 448 320 l 25
128 320 m 25
 128 384 l 25
 0 384 l 25
 0 320 l 25
 128 320 l 25
448 256 m 25
 448 320 l 25
 320 320 l 25
 320 256 l 25
 448 256 l 25
128 256 m 25
 128 320 l 25
 0 320 l 25
 0 256 l 25
 128 256 l 25
448 192 m 25
 448 256 l 25
 320 256 l 25
 320 192 l 25
 448 192 l 25
256 192 m 25
 256 256 l 25
 192 256 l 25
 192 192 l 25
 256 192 l 25
128 192 m 25
 128 256 l 25
 0 256 l 25
 0 192 l 25
 128 192 l 25
448 128 m 25
 448 192 l 25
 192 192 l 25
 192 128 l 25
 448 128 l 25
128 128 m 25
 128 192 l 25
 0 192 l 25
 0 128 l 25
 128 128 l 25
384 64 m 25
 384 128 l 25
 64 128 l 25
 64 64 l 25
 384 64 l 25
384 0 m 25
 384 64 l 25
 256 64 l 25
 256 0 l 25
 384 0 l 25
448 -64 m 25
 448 0 l 25
 256 0 l 25
 256 -64 l 25
 448 -64 l 25
EndSplineSet
EndChar
StartChar: 0052
Encoding: 82 82 78
Width: 512
Flags: HW
TeX: 0 0 0 0
Fore
384 640 m 25
 384 704 l 25
 0 704 l 25
 0 640 l 25
 384 640 l 25
448 576 m 25
 448 640 l 25
 320 640 l 25
 320 576 l 25
 448 576 l 25
192 576 m 25
 192 640 l 25
 64 640 l 25
 64 576 l 25
 192 576 l 25
448 512 m 25
 448 576 l 25
 320 576 l 25
 320 512 l 25
 448 512 l 25
192 512 m 25
 192 576 l 25
 64 576 l 25
 64 512 l 25
 192 512 l 25
448 448 m 25
 448 512 l 25
 320 512 l 25
 320 448 l 25
 448 448 l 25
192 448 m 25
 192 512 l 25
 64 512 l 25
 64 448 l 25
 192 448 l 25
384 384 m 25
 384 448 l 25
 64 448 l 25
 64 384 l 25
 384 384 l 25
384 320 m 25
 384 384 l 25
 256 384 l 25
 256 320 l 25
 384 320 l 25
192 320 m 25
 192 384 l 25
 64 384 l 25
 64 320 l 25
 192 320 l 25
448 256 m 25
 448 320 l 25
 320 320 l 25
 320 256 l 25
 448 256 l 25
192 256 m 25
 192 320 l 25
 64 320 l 25
 64 256 l 25
 192 256 l 25
448 192 m 25
 448 256 l 25
 320 256 l 25
 320 192 l 25
 448 192 l 25
192 192 m 25
 192 256 l 25
 64 256 l 25
 64 192 l 25
 192 192 l 25
448 128 m 25
 448 192 l 25
 320 192 l 25
 320 128 l 25
 448 128 l 25
192 128 m 25
 192 192 l 25
 64 192 l 25
 64 128 l 25
 192 128 l 25
448 64 m 25
 448 128 l 25
 320 128 l 25
 320 64 l 25
 448 64 l 25
192 64 m 25
 192 128 l 25
 0 128 l 25
 0 64 l 25
 192 64 l 25
EndSplineSet
EndChar
StartChar: 0053
Encoding: 83 83 79
Width: 512
Flags: HW
TeX: 0 0 0 0
Fore
384 640 m 25
 384 704 l 25
 64 704 l 25
 64 640 l 25
 384 640 l 25
448 576 m 25
 448 640 l 25
 320 640 l 25
 320 576 l 25
 448 576 l 25
128 576 m 25
 128 640 l 25
 0 640 l 25
 0 576 l 25
 128 576 l 25
448 512 m 25
 448 576 l 25
 320 576 l 25
 320 512 l 25
 448 512 l 25
128 512 m 25
 128 576 l 25
 0 576 l 25
 0 512 l 25
 128 512 l 25
192 448 m 25
 192 512 l 25
 64 512 l 25
 64 448 l 25
 192 448 l 25
320 384 m 25
 320 448 l 25
 128 448 l 25
 128 384 l 25
 320 384 l 25
384 320 m 25
 384 384 l 25
 256 384 l 25
 256 320 l 25
 384 320 l 25
448 256 m 25
 448 320 l 25
 320 320 l 25
 320 256 l 25
 448 256 l 25
448 192 m 25
 448 256 l 25
 320 256 l 25
 320 192 l 25
 448 192 l 25
128 192 m 25
 128 256 l 25
 0 256 l 25
 0 192 l 25
 128 192 l 25
448 128 m 25
 448 192 l 25
 320 192 l 25
 320 128 l 25
 448 128 l 25
128 128 m 25
 128 192 l 25
 0 192 l 25
 0 128 l 25
 128 128 l 25
384 64 m 25
 384 128 l 25
 64 128 l 25
 64 64 l 25
 384 64 l 25
EndSplineSet
EndChar
StartChar: 0054
Encoding: 84 84 80
Width: 512
Flags: HW
TeX: 0 0 0 0
Fore
448 640 m 25
 448 704 l 25
 64 704 l 25
 64 640 l 25
 448 640 l 25
448 576 m 25
 448 640 l 25
 64 640 l 25
 64 576 l 25
 448 576 l 25
448 512 m 25
 448 576 l 25
 384 576 l 25
 384 512 l 25
 448 512 l 25
320 512 m 25
 320 576 l 25
 192 576 l 25
 192 512 l 25
 320 512 l 25
128 512 m 25
 128 576 l 25
 64 576 l 25
 64 512 l 25
 128 512 l 25
320 448 m 25
 320 512 l 25
 192 512 l 25
 192 448 l 25
 320 448 l 25
320 384 m 25
 320 448 l 25
 192 448 l 25
 192 384 l 25
 320 384 l 25
320 320 m 25
 320 384 l 25
 192 384 l 25
 192 320 l 25
 320 320 l 25
320 256 m 25
 320 320 l 25
 192 320 l 25
 192 256 l 25
 320 256 l 25
320 192 m 25
 320 256 l 25
 192 256 l 25
 192 192 l 25
 320 192 l 25
320 128 m 25
 320 192 l 25
 192 192 l 25
 192 128 l 25
 320 128 l 25
384 64 m 25
 384 128 l 25
 128 128 l 25
 128 64 l 25
 384 64 l 25
EndSplineSet
EndChar
StartChar: 0055
Encoding: 85 85 81
Width: 512
Flags: HW
TeX: 0 0 0 0
Fore
448 640 m 25
 448 704 l 25
 320 704 l 25
 320 640 l 25
 448 640 l 25
128 640 m 25
 128 704 l 25
 0 704 l 25
 0 640 l 25
 128 640 l 25
448 576 m 25
 448 640 l 25
 320 640 l 25
 320 576 l 25
 448 576 l 25
128 576 m 25
 128 640 l 25
 0 640 l 25
 0 576 l 25
 128 576 l 25
448 512 m 25
 448 576 l 25
 320 576 l 25
 320 512 l 25
 448 512 l 25
128 512 m 25
 128 576 l 25
 0 576 l 25
 0 512 l 25
 128 512 l 25
448 448 m 25
 448 512 l 25
 320 512 l 25
 320 448 l 25
 448 448 l 25
128 448 m 25
 128 512 l 25
 0 512 l 25
 0 448 l 25
 128 448 l 25
448 384 m 25
 448 448 l 25
 320 448 l 25
 320 384 l 25
 448 384 l 25
128 384 m 25
 128 448 l 25
 0 448 l 25
 0 384 l 25
 128 384 l 25
448 320 m 25
 448 384 l 25
 320 384 l 25
 320 320 l 25
 448 320 l 25
128 320 m 25
 128 384 l 25
 0 384 l 25
 0 320 l 25
 128 320 l 25
448 256 m 25
 448 320 l 25
 320 320 l 25
 320 256 l 25
 448 256 l 25
128 256 m 25
 128 320 l 25
 0 320 l 25
 0 256 l 25
 128 256 l 25
448 192 m 25
 448 256 l 25
 320 256 l 25
 320 192 l 25
 448 192 l 25
128 192 m 25
 128 256 l 25
 0 256 l 25
 0 192 l 25
 128 192 l 25
448 128 m 25
 448 192 l 25
 320 192 l 25
 320 128 l 25
 448 128 l 25
128 128 m 25
 128 192 l 25
 0 192 l 25
 0 128 l 25
 128 128 l 25
384 64 m 25
 384 128 l 25
 64 128 l 25
 64 64 l 25
 384 64 l 25
EndSplineSet
EndChar
StartChar: 0056
Encoding: 86 86 82
Width: 512
Flags: HW
TeX: 0 0 0 0
Fore
448 640 m 25
 448 704 l 25
 320 704 l 25
 320 640 l 25
 448 640 l 25
128 640 m 25
 128 704 l 25
 0 704 l 25
 0 640 l 25
 128 640 l 25
448 576 m 25
 448 640 l 25
 320 640 l 25
 320 576 l 25
 448 576 l 25
128 576 m 25
 128 640 l 25
 0 640 l 25
 0 576 l 25
 128 576 l 25
448 512 m 25
 448 576 l 25
 320 576 l 25
 320 512 l 25
 448 512 l 25
128 512 m 25
 128 576 l 25
 0 576 l 25
 0 512 l 25
 128 512 l 25
448 448 m 25
 448 512 l 25
 320 512 l 25
 320 448 l 25
 448 448 l 25
128 448 m 25
 128 512 l 25
 0 512 l 25
 0 448 l 25
 128 448 l 25
448 384 m 25
 448 448 l 25
 320 448 l 25
 320 384 l 25
 448 384 l 25
128 384 m 25
 128 448 l 25
 0 448 l 25
 0 384 l 25
 128 384 l 25
448 320 m 25
 448 384 l 25
 320 384 l 25
 320 320 l 25
 448 320 l 25
128 320 m 25
 128 384 l 25
 0 384 l 25
 0 320 l 25
 128 320 l 25
448 256 m 25
 448 320 l 25
 320 320 l 25
 320 256 l 25
 448 256 l 25
128 256 m 25
 128 320 l 25
 0 320 l 25
 0 256 l 25
 128 256 l 25
384 192 m 25
 384 256 l 25
 256 256 l 25
 256 192 l 25
 384 192 l 25
192 192 m 25
 192 256 l 25
 64 256 l 25
 64 192 l 25
 192 192 l 25
320 128 m 25
 320 192 l 25
 128 192 l 25
 128 128 l 25
 320 128 l 25
256 64 m 25
 256 128 l 25
 192 128 l 25
 192 64 l 25
 256 64 l 25
EndSplineSet
EndChar
StartChar: 0057
Encoding: 87 87 83
Width: 512
Flags: HW
TeX: 0 0 0 0
Fore
448 640 m 25
 448 704 l 25
 320 704 l 25
 320 640 l 25
 448 640 l 25
128 640 m 25
 128 704 l 25
 0 704 l 25
 0 640 l 25
 128 640 l 25
448 576 m 25
 448 640 l 25
 320 640 l 25
 320 576 l 25
 448 576 l 25
128 576 m 25
 128 640 l 25
 0 640 l 25
 0 576 l 25
 128 576 l 25
448 512 m 25
 448 576 l 25
 320 576 l 25
 320 512 l 25
 448 512 l 25
128 512 m 25
 128 576 l 25
 0 576 l 25
 0 512 l 25
 128 512 l 25
448 448 m 25
 448 512 l 25
 320 512 l 25
 320 448 l 25
 448 448 l 25
128 448 m 25
 128 512 l 25
 0 512 l 25
 0 448 l 25
 128 448 l 25
448 384 m 25
 448 448 l 25
 320 448 l 25
 320 384 l 25
 448 384 l 25
256 384 m 25
 256 448 l 25
 192 448 l 25
 192 384 l 25
 256 384 l 25
128 384 m 25
 128 448 l 25
 0 448 l 25
 0 384 l 25
 128 384 l 25
448 320 m 25
 448 384 l 25
 320 384 l 25
 320 320 l 25
 448 320 l 25
256 320 m 25
 256 384 l 25
 192 384 l 25
 192 320 l 25
 256 320 l 25
128 320 m 25
 128 384 l 25
 0 384 l 25
 0 320 l 25
 128 320 l 25
448 256 m 25
 448 320 l 25
 320 320 l 25
 320 256 l 25
 448 256 l 25
256 256 m 25
 256 320 l 25
 192 320 l 25
 192 256 l 25
 256 256 l 25
128 256 m 25
 128 320 l 25
 0 320 l 25
 0 256 l 25
 128 256 l 25
448 192 m 25
 448 256 l 25
 0 256 l 25
 0 192 l 25
 448 192 l 25
448 128 m 25
 448 192 l 25
 256 192 l 25
 256 128 l 25
 448 128 l 25
192 128 m 25
 192 192 l 25
 0 192 l 25
 0 128 l 25
 192 128 l 25
384 64 m 25
 384 128 l 25
 256 128 l 25
 256 64 l 25
 384 64 l 25
192 64 m 25
 192 128 l 25
 64 128 l 25
 64 64 l 25
 192 64 l 25
EndSplineSet
EndChar
StartChar: 0058
Encoding: 88 88 84
Width: 512
Flags: HW
TeX: 0 0 0 0
Fore
448 640 m 25
 448 704 l 25
 320 704 l 25
 320 640 l 25
 448 640 l 25
128 640 m 25
 128 704 l 25
 0 704 l 25
 0 640 l 25
 128 640 l 25
448 576 m 25
 448 640 l 25
 320 640 l 25
 320 576 l 25
 448 576 l 25
128 576 m 25
 128 640 l 25
 0 640 l 25
 0 576 l 25
 128 576 l 25
384 512 m 25
 384 576 l 25
 256 576 l 25
 256 512 l 25
 384 512 l 25
192 512 m 25
 192 576 l 25
 64 576 l 25
 64 512 l 25
 192 512 l 25
384 448 m 25
 384 512 l 25
 64 512 l 25
 64 448 l 25
 384 448 l 25
320 384 m 25
 320 448 l 25
 128 448 l 25
 128 384 l 25
 320 384 l 25
320 320 m 25
 320 384 l 25
 128 384 l 25
 128 320 l 25
 320 320 l 25
384 256 m 25
 384 320 l 25
 64 320 l 25
 64 256 l 25
 384 256 l 25
384 192 m 25
 384 256 l 25
 256 256 l 25
 256 192 l 25
 384 192 l 25
192 192 m 25
 192 256 l 25
 64 256 l 25
 64 192 l 25
 192 192 l 25
448 128 m 25
 448 192 l 25
 320 192 l 25
 320 128 l 25
 448 128 l 25
128 128 m 25
 128 192 l 25
 0 192 l 25
 0 128 l 25
 128 128 l 25
448 64 m 25
 448 128 l 25
 320 128 l 25
 320 64 l 25
 448 64 l 25
128 64 m 25
 128 128 l 25
 0 128 l 25
 0 64 l 25
 128 64 l 25
EndSplineSet
EndChar
StartChar: 0059
Encoding: 89 89 85
Width: 512
Flags: HW
TeX: 0 0 0 0
Fore
448 640 m 25
 448 704 l 25
 320 704 l 25
 320 640 l 25
 448 640 l 25
192 640 m 25
 192 704 l 25
 64 704 l 25
 64 640 l 25
 192 640 l 25
448 576 m 25
 448 640 l 25
 320 640 l 25
 320 576 l 25
 448 576 l 25
192 576 m 25
 192 640 l 25
 64 640 l 25
 64 576 l 25
 192 576 l 25
448 512 m 25
 448 576 l 25
 320 576 l 25
 320 512 l 25
 448 512 l 25
192 512 m 25
 192 576 l 25
 64 576 l 25
 64 512 l 25
 192 512 l 25
448 448 m 25
 448 512 l 25
 320 512 l 25
 320 448 l 25
 448 448 l 25
192 448 m 25
 192 512 l 25
 64 512 l 25
 64 448 l 25
 192 448 l 25
384 384 m 25
 384 448 l 25
 128 448 l 25
 128 384 l 25
 384 384 l 25
320 320 m 25
 320 384 l 25
 192 384 l 25
 192 320 l 25
 320 320 l 25
320 256 m 25
 320 320 l 25
 192 320 l 25
 192 256 l 25
 320 256 l 25
320 192 m 25
 320 256 l 25
 192 256 l 25
 192 192 l 25
 320 192 l 25
320 128 m 25
 320 192 l 25
 192 192 l 25
 192 128 l 25
 320 128 l 25
384 64 m 25
 384 128 l 25
 128 128 l 25
 128 64 l 25
 384 64 l 25
EndSplineSet
EndChar
StartChar: 005A
Encoding: 90 90 86
Width: 512
Flags: HW
TeX: 0 0 0 0
Fore
448 640 m 25
 448 704 l 25
 0 704 l 25
 0 640 l 25
 448 640 l 25
448 576 m 25
 448 640 l 25
 320 640 l 25
 320 576 l 25
 448 576 l 25
128 576 m 25
 128 640 l 25
 0 640 l 25
 0 576 l 25
 128 576 l 25
448 512 m 25
 448 576 l 25
 320 576 l 25
 320 512 l 25
 448 512 l 25
64 512 m 25
 64 576 l 25
 0 576 l 25
 0 512 l 25
 64 512 l 25
384 448 m 25
 384 512 l 25
 256 512 l 25
 256 448 l 25
 384 448 l 25
320 384 m 25
 320 448 l 25
 192 448 l 25
 192 384 l 25
 320 384 l 25
256 320 m 25
 256 384 l 25
 128 384 l 25
 128 320 l 25
 256 320 l 25
192 256 m 25
 192 320 l 25
 64 320 l 25
 64 256 l 25
 192 256 l 25
448 192 m 25
 448 256 l 25
 384 256 l 25
 384 192 l 25
 448 192 l 25
128 192 m 25
 128 256 l 25
 0 256 l 25
 0 192 l 25
 128 192 l 25
448 128 m 25
 448 192 l 25
 320 192 l 25
 320 128 l 25
 448 128 l 25
128 128 m 25
 128 192 l 25
 0 192 l 25
 0 128 l 25
 128 128 l 25
448 64 m 25
 448 128 l 25
 0 128 l 25
 0 64 l 25
 448 64 l 25
EndSplineSet
EndChar
StartChar: 005B
Encoding: 91 91 87
Width: 512
Flags: HW
TeX: 0 0 0 0
Fore
384 640 m 25
 384 704 l 25
 128 704 l 25
 128 640 l 25
 384 640 l 25
256 576 m 25
 256 640 l 25
 128 640 l 25
 128 576 l 25
 256 576 l 25
256 512 m 25
 256 576 l 25
 128 576 l 25
 128 512 l 25
 256 512 l 25
256 448 m 25
 256 512 l 25
 128 512 l 25
 128 448 l 25
 256 448 l 25
256 384 m 25
 256 448 l 25
 128 448 l 25
 128 384 l 25
 256 384 l 25
256 320 m 25
 256 384 l 25
 128 384 l 25
 128 320 l 25
 256 320 l 25
256 256 m 25
 256 320 l 25
 128 320 l 25
 128 256 l 25
 256 256 l 25
256 192 m 25
 256 256 l 25
 128 256 l 25
 128 192 l 25
 256 192 l 25
256 128 m 25
 256 192 l 25
 128 192 l 25
 128 128 l 25
 256 128 l 25
384 64 m 25
 384 128 l 25
 128 128 l 25
 128 64 l 25
 384 64 l 25
EndSplineSet
EndChar
StartChar: 005C
Encoding: 92 92 88
Width: 512
Flags: HW
TeX: 0 0 0 0
Fore
64 576 m 25
 64 640 l 25
 0 640 l 25
 0 576 l 25
 64 576 l 25
128 512 m 25
 128 576 l 25
 0 576 l 25
 0 512 l 25
 128 512 l 25
192 448 m 25
 192 512 l 25
 0 512 l 25
 0 448 l 25
 192 448 l 25
256 384 m 25
 256 448 l 25
 64 448 l 25
 64 384 l 25
 256 384 l 25
320 320 m 25
 320 384 l 25
 128 384 l 25
 128 320 l 25
 320 320 l 25
384 256 m 25
 384 320 l 25
 192 320 l 25
 192 256 l 25
 384 256 l 25
448 192 m 25
 448 256 l 25
 256 256 l 25
 256 192 l 25
 448 192 l 25
448 128 m 25
 448 192 l 25
 320 192 l 25
 320 128 l 25
 448 128 l 25
448 64 m 25
 448 128 l 25
 384 128 l 25
 384 64 l 25
 448 64 l 25
EndSplineSet
EndChar
StartChar: 005D
Encoding: 93 93 89
Width: 512
Flags: HW
TeX: 0 0 0 0
Fore
384 640 m 25
 384 704 l 25
 128 704 l 25
 128 640 l 25
 384 640 l 25
384 576 m 25
 384 640 l 25
 256 640 l 25
 256 576 l 25
 384 576 l 25
384 512 m 25
 384 576 l 25
 256 576 l 25
 256 512 l 25
 384 512 l 25
384 448 m 25
 384 512 l 25
 256 512 l 25
 256 448 l 25
 384 448 l 25
384 384 m 25
 384 448 l 25
 256 448 l 25
 256 384 l 25
 384 384 l 25
384 320 m 25
 384 384 l 25
 256 384 l 25
 256 320 l 25
 384 320 l 25
384 256 m 25
 384 320 l 25
 256 320 l 25
 256 256 l 25
 384 256 l 25
384 192 m 25
 384 256 l 25
 256 256 l 25
 256 192 l 25
 384 192 l 25
384 128 m 25
 384 192 l 25
 256 192 l 25
 256 128 l 25
 384 128 l 25
384 64 m 25
 384 128 l 25
 128 128 l 25
 128 64 l 25
 384 64 l 25
EndSplineSet
EndChar
StartChar: 005E
Encoding: 94 94 90
Width: 512
Flags: HW
TeX: 0 0 0 0
Fore
320 832 m 25
 320 896 l 25
 128 896 l 25
 128 832 l 25
 320 832 l 25
384 768 m 25
 384 832 l 25
 256 832 l 25
 256 768 l 25
 384 768 l 25
192 768 m 25
 192 832 l 25
 64 832 l 25
 64 768 l 25
 192 768 l 25
EndSplineSet
EndChar
StartChar: 005F
Encoding: 95 95 91
Width: 512
Flags: HW
TeX: 0 0 0 0
Fore
512 0 m 25
 512 64 l 25
 0 64 l 25
 0 0 l 25
 512 0 l 25
EndSplineSet
EndChar
StartChar: 0060
Encoding: 96 96 92
Width: 512
Flags: HW
TeX: 0 0 0 0
Fore
256 832 m 25
 256 896 l 25
 128 896 l 25
 128 832 l 25
 256 832 l 25
320 768 m 25
 320 832 l 25
 192 832 l 25
 192 768 l 25
 320 768 l 25
EndSplineSet
EndChar
StartChar: 0061
Encoding: 97 97 93
Width: 512
Flags: HW
TeX: 0 0 0 0
Fore
320 448 m 25
 320 512 l 25
 64 512 l 25
 64 448 l 25
 320 448 l 25
384 384 m 25
 384 448 l 25
 256 448 l 25
 256 384 l 25
 384 384 l 25
384 320 m 25
 384 384 l 25
 64 384 l 25
 64 320 l 25
 384 320 l 25
384 256 m 25
 384 320 l 25
 256 320 l 25
 256 256 l 25
 384 256 l 25
128 256 m 25
 128 320 l 25
 0 320 l 25
 0 256 l 25
 128 256 l 25
384 192 m 25
 384 256 l 25
 256 256 l 25
 256 192 l 25
 384 192 l 25
128 192 m 25
 128 256 l 25
 0 256 l 25
 0 192 l 25
 128 192 l 25
384 128 m 25
 384 192 l 25
 256 192 l 25
 256 128 l 25
 384 128 l 25
128 128 m 25
 128 192 l 25
 0 192 l 25
 0 128 l 25
 128 128 l 25
448 64 m 25
 448 128 l 25
 320 128 l 25
 320 64 l 25
 448 64 l 25
256 64 m 25
 256 128 l 25
 64 128 l 25
 64 64 l 25
 256 64 l 25
EndSplineSet
EndChar
StartChar: 0062
Encoding: 98 98 94
Width: 512
Flags: HW
TeX: 0 0 0 0
Fore
192 640 m 25
 192 704 l 25
 0 704 l 25
 0 640 l 25
 192 640 l 25
192 576 m 25
 192 640 l 25
 64 640 l 25
 64 576 l 25
 192 576 l 25
192 512 m 25
 192 576 l 25
 64 576 l 25
 64 512 l 25
 192 512 l 25
320 448 m 25
 320 512 l 25
 64 512 l 25
 64 448 l 25
 320 448 l 25
384 384 m 25
 384 448 l 25
 256 448 l 25
 256 384 l 25
 384 384 l 25
192 384 m 25
 192 448 l 25
 64 448 l 25
 64 384 l 25
 192 384 l 25
448 320 m 25
 448 384 l 25
 320 384 l 25
 320 320 l 25
 448 320 l 25
192 320 m 25
 192 384 l 25
 64 384 l 25
 64 320 l 25
 192 320 l 25
448 256 m 25
 448 320 l 25
 320 320 l 25
 320 256 l 25
 448 256 l 25
192 256 m 25
 192 320 l 25
 64 320 l 25
 64 256 l 25
 192 256 l 25
448 192 m 25
 448 256 l 25
 320 256 l 25
 320 192 l 25
 448 192 l 25
192 192 m 25
 192 256 l 25
 64 256 l 25
 64 192 l 25
 192 192 l 25
448 128 m 25
 448 192 l 25
 320 192 l 25
 320 128 l 25
 448 128 l 25
192 128 m 25
 192 192 l 25
 64 192 l 25
 64 128 l 25
 192 128 l 25
384 64 m 25
 384 128 l 25
 64 128 l 25
 64 64 l 25
 384 64 l 25
EndSplineSet
EndChar
StartChar: 0063
Encoding: 99 99 95
Width: 512
Flags: HW
TeX: 0 0 0 0
Fore
384 448 m 25
 384 512 l 25
 64 512 l 25
 64 448 l 25
 384 448 l 25
448 384 m 25
 448 448 l 25
 320 448 l 25
 320 384 l 25
 448 384 l 25
128 384 m 25
 128 448 l 25
 0 448 l 25
 0 384 l 25
 128 384 l 25
128 320 m 25
 128 384 l 25
 0 384 l 25
 0 320 l 25
 128 320 l 25
128 256 m 25
 128 320 l 25
 0 320 l 25
 0 256 l 25
 128 256 l 25
128 192 m 25
 128 256 l 25
 0 256 l 25
 0 192 l 25
 128 192 l 25
448 128 m 25
 448 192 l 25
 320 192 l 25
 320 128 l 25
 448 128 l 25
128 128 m 25
 128 192 l 25
 0 192 l 25
 0 128 l 25
 128 128 l 25
384 64 m 25
 384 128 l 25
 64 128 l 25
 64 64 l 25
 384 64 l 25
EndSplineSet
EndChar
StartChar: 0064
Encoding: 100 100 96
Width: 512
Flags: HW
TeX: 0 0 0 0
Fore
384 640 m 25
 384 704 l 25
 192 704 l 25
 192 640 l 25
 384 640 l 25
384 576 m 25
 384 640 l 25
 256 640 l 25
 256 576 l 25
 384 576 l 25
384 512 m 25
 384 576 l 25
 256 576 l 25
 256 512 l 25
 384 512 l 25
384 448 m 25
 384 512 l 25
 128 512 l 25
 128 448 l 25
 384 448 l 25
384 384 m 25
 384 448 l 25
 256 448 l 25
 256 384 l 25
 384 384 l 25
192 384 m 25
 192 448 l 25
 64 448 l 25
 64 384 l 25
 192 384 l 25
384 320 m 25
 384 384 l 25
 256 384 l 25
 256 320 l 25
 384 320 l 25
128 320 m 25
 128 384 l 25
 0 384 l 25
 0 320 l 25
 128 320 l 25
384 256 m 25
 384 320 l 25
 256 320 l 25
 256 256 l 25
 384 256 l 25
128 256 m 25
 128 320 l 25
 0 320 l 25
 0 256 l 25
 128 256 l 25
384 192 m 25
 384 256 l 25
 256 256 l 25
 256 192 l 25
 384 192 l 25
128 192 m 25
 128 256 l 25
 0 256 l 25
 0 192 l 25
 128 192 l 25
384 128 m 25
 384 192 l 25
 256 192 l 25
 256 128 l 25
 384 128 l 25
128 128 m 25
 128 192 l 25
 0 192 l 25
 0 128 l 25
 128 128 l 25
448 64 m 25
 448 128 l 25
 320 128 l 25
 320 64 l 25
 448 64 l 25
256 64 m 25
 256 128 l 25
 64 128 l 25
 64 64 l 25
 256 64 l 25
EndSplineSet
EndChar
StartChar: 0065
Encoding: 101 101 97
Width: 512
Flags: HW
TeX: 0 0 0 0
Fore
384 448 m 25
 384 512 l 25
 64 512 l 25
 64 448 l 25
 384 448 l 25
448 384 m 25
 448 448 l 25
 320 448 l 25
 320 384 l 25
 448 384 l 25
128 384 m 25
 128 448 l 25
 0 448 l 25
 0 384 l 25
 128 384 l 25
448 320 m 25
 448 384 l 25
 0 384 l 25
 0 320 l 25
 448 320 l 25
128 256 m 25
 128 320 l 25
 0 320 l 25
 0 256 l 25
 128 256 l 25
128 192 m 25
 128 256 l 25
 0 256 l 25
 0 192 l 25
 128 192 l 25
448 128 m 25
 448 192 l 25
 320 192 l 25
 320 128 l 25
 448 128 l 25
128 128 m 25
 128 192 l 25
 0 192 l 25
 0 128 l 25
 128 128 l 25
384 64 m 25
 384 128 l 25
 64 128 l 25
 64 64 l 25
 384 64 l 25
EndSplineSet
EndChar
StartChar: 0066
Encoding: 102 102 98
Width: 512
Flags: HW
TeX: 0 0 0 0
Fore
384 640 m 25
 384 704 l 25
 192 704 l 25
 192 640 l 25
 384 640 l 25
448 576 m 25
 448 640 l 25
 320 640 l 25
 320 576 l 25
 448 576 l 25
256 576 m 25
 256 640 l 25
 128 640 l 25
 128 576 l 25
 256 576 l 25
448 512 m 25
 448 576 l 25
 384 576 l 25
 384 512 l 25
 448 512 l 25
256 512 m 25
 256 576 l 25
 128 576 l 25
 128 512 l 25
 256 512 l 25
256 448 m 25
 256 512 l 25
 128 512 l 25
 128 448 l 25
 256 448 l 25
320 384 m 25
 320 448 l 25
 64 448 l 25
 64 384 l 25
 320 384 l 25
256 320 m 25
 256 384 l 25
 128 384 l 25
 128 320 l 25
 256 320 l 25
256 256 m 25
 256 320 l 25
 128 320 l 25
 128 256 l 25
 256 256 l 25
256 192 m 25
 256 256 l 25
 128 256 l 25
 128 192 l 25
 256 192 l 25
256 128 m 25
 256 192 l 25
 128 192 l 25
 128 128 l 25
 256 128 l 25
320 64 m 25
 320 128 l 25
 64 128 l 25
 64 64 l 25
 320 64 l 25
EndSplineSet
EndChar
StartChar: 0067
Encoding: 103 103 99
Width: 512
Flags: HW
TeX: 0 0 0 0
Fore
448 448 m 25
 448 512 l 25
 320 512 l 25
 320 448 l 25
 448 448 l 25
256 448 m 25
 256 512 l 25
 64 512 l 25
 64 448 l 25
 256 448 l 25
384 384 m 25
 384 448 l 25
 256 448 l 25
 256 384 l 25
 384 384 l 25
128 384 m 25
 128 448 l 25
 0 448 l 25
 0 384 l 25
 128 384 l 25
384 320 m 25
 384 384 l 25
 256 384 l 25
 256 320 l 25
 384 320 l 25
128 320 m 25
 128 384 l 25
 0 384 l 25
 0 320 l 25
 128 320 l 25
384 256 m 25
 384 320 l 25
 256 320 l 25
 256 256 l 25
 384 256 l 25
128 256 m 25
 128 320 l 25
 0 320 l 25
 0 256 l 25
 128 256 l 25
384 192 m 25
 384 256 l 25
 256 256 l 25
 256 192 l 25
 384 192 l 25
128 192 m 25
 128 256 l 25
 0 256 l 25
 0 192 l 25
 128 192 l 25
384 128 m 25
 384 192 l 25
 256 192 l 25
 256 128 l 25
 384 128 l 25
128 128 m 25
 128 192 l 25
 0 192 l 25
 0 128 l 25
 128 128 l 25
384 64 m 25
 384 128 l 25
 64 128 l 25
 64 64 l 25
 384 64 l 25
384 0 m 25
 384 64 l 25
 256 64 l 25
 256 0 l 25
 384 0 l 25
384 -64 m 25
 384 0 l 25
 256 0 l 25
 256 -64 l 25
 384 -64 l 25
128 -64 m 25
 128 0 l 25
 0 0 l 25
 0 -64 l 25
 128 -64 l 25
320 -128 m 25
 320 -64 l 25
 64 -64 l 25
 64 -128 l 25
 320 -128 l 25
EndSplineSet
EndChar
StartChar: 0068
Encoding: 104 104 100
Width: 512
Flags: HW
TeX: 0 0 0 0
Fore
192 640 m 25
 192 704 l 25
 0 704 l 25
 0 640 l 25
 192 640 l 25
192 576 m 25
 192 640 l 25
 64 640 l 25
 64 576 l 25
 192 576 l 25
192 512 m 25
 192 576 l 25
 64 576 l 25
 64 512 l 25
 192 512 l 25
384 448 m 25
 384 512 l 25
 256 512 l 25
 256 448 l 25
 384 448 l 25
192 448 m 25
 192 512 l 25
 64 512 l 25
 64 448 l 25
 192 448 l 25
448 384 m 25
 448 448 l 25
 320 448 l 25
 320 384 l 25
 448 384 l 25
256 384 m 25
 256 448 l 25
 64 448 l 25
 64 384 l 25
 256 384 l 25
448 320 m 25
 448 384 l 25
 320 384 l 25
 320 320 l 25
 448 320 l 25
192 320 m 25
 192 384 l 25
 64 384 l 25
 64 320 l 25
 192 320 l 25
448 256 m 25
 448 320 l 25
 320 320 l 25
 320 256 l 25
 448 256 l 25
192 256 m 25
 192 320 l 25
 64 320 l 25
 64 256 l 25
 192 256 l 25
448 192 m 25
 448 256 l 25
 320 256 l 25
 320 192 l 25
 448 192 l 25
192 192 m 25
 192 256 l 25
 64 256 l 25
 64 192 l 25
 192 192 l 25
448 128 m 25
 448 192 l 25
 320 192 l 25
 320 128 l 25
 448 128 l 25
192 128 m 25
 192 192 l 25
 64 192 l 25
 64 128 l 25
 192 128 l 25
448 64 m 25
 448 128 l 25
 320 128 l 25
 320 64 l 25
 448 64 l 25
192 64 m 25
 192 128 l 25
 0 128 l 25
 0 64 l 25
 192 64 l 25
EndSplineSet
EndChar
StartChar: 0069
Encoding: 105 105 101
Width: 512
Flags: HW
TeX: 0 0 0 0
Fore
320 640 m 25
 320 704 l 25
 192 704 l 25
 192 640 l 25
 320 640 l 25
320 576 m 25
 320 640 l 25
 192 640 l 25
 192 576 l 25
 320 576 l 25
320 448 m 25
 320 512 l 25
 128 512 l 25
 128 448 l 25
 320 448 l 25
320 384 m 25
 320 448 l 25
 192 448 l 25
 192 384 l 25
 320 384 l 25
320 320 m 25
 320 384 l 25
 192 384 l 25
 192 320 l 25
 320 320 l 25
320 256 m 25
 320 320 l 25
 192 320 l 25
 192 256 l 25
 320 256 l 25
320 192 m 25
 320 256 l 25
 192 256 l 25
 192 192 l 25
 320 192 l 25
320 128 m 25
 320 192 l 25
 192 192 l 25
 192 128 l 25
 320 128 l 25
384 64 m 25
 384 128 l 25
 128 128 l 25
 128 64 l 25
 384 64 l 25
EndSplineSet
EndChar
StartChar: 006A
Encoding: 106 106 102
Width: 512
Flags: HW
TeX: 0 0 0 0
Fore
448 640 m 25
 448 704 l 25
 320 704 l 25
 320 640 l 25
 448 640 l 25
448 576 m 25
 448 640 l 25
 320 640 l 25
 320 576 l 25
 448 576 l 25
448 448 m 25
 448 512 l 25
 256 512 l 25
 256 448 l 25
 448 448 l 25
448 384 m 25
 448 448 l 25
 320 448 l 25
 320 384 l 25
 448 384 l 25
448 320 m 25
 448 384 l 25
 320 384 l 25
 320 320 l 25
 448 320 l 25
448 256 m 25
 448 320 l 25
 320 320 l 25
 320 256 l 25
 448 256 l 25
448 192 m 25
 448 256 l 25
 320 256 l 25
 320 192 l 25
 448 192 l 25
448 128 m 25
 448 192 l 25
 320 192 l 25
 320 128 l 25
 448 128 l 25
448 64 m 25
 448 128 l 25
 320 128 l 25
 320 64 l 25
 448 64 l 25
448 0 m 25
 448 64 l 25
 320 64 l 25
 320 0 l 25
 448 0 l 25
192 0 m 25
 192 64 l 25
 64 64 l 25
 64 0 l 25
 192 0 l 25
448 -64 m 25
 448 0 l 25
 320 0 l 25
 320 -64 l 25
 448 -64 l 25
192 -64 m 25
 192 0 l 25
 64 0 l 25
 64 -64 l 25
 192 -64 l 25
384 -128 m 25
 384 -64 l 25
 128 -64 l 25
 128 -128 l 25
 384 -128 l 25
EndSplineSet
EndChar
StartChar: 006B
Encoding: 107 107 103
Width: 512
Flags: HW
TeX: 0 0 0 0
Fore
192 640 m 25
 192 704 l 25
 0 704 l 25
 0 640 l 25
 192 640 l 25
192 576 m 25
 192 640 l 25
 64 640 l 25
 64 576 l 25
 192 576 l 25
192 512 m 25
 192 576 l 25
 64 576 l 25
 64 512 l 25
 192 512 l 25
448 448 m 25
 448 512 l 25
 320 512 l 25
 320 448 l 25
 448 448 l 25
192 448 m 25
 192 512 l 25
 64 512 l 25
 64 448 l 25
 192 448 l 25
384 384 m 25
 384 448 l 25
 256 448 l 25
 256 384 l 25
 384 384 l 25
192 384 m 25
 192 448 l 25
 64 448 l 25
 64 384 l 25
 192 384 l 25
320 320 m 25
 320 384 l 25
 64 384 l 25
 64 320 l 25
 320 320 l 25
320 256 m 25
 320 320 l 25
 64 320 l 25
 64 256 l 25
 320 256 l 25
384 192 m 25
 384 256 l 25
 256 256 l 25
 256 192 l 25
 384 192 l 25
192 192 m 25
 192 256 l 25
 64 256 l 25
 64 192 l 25
 192 192 l 25
448 128 m 25
 448 192 l 25
 320 192 l 25
 320 128 l 25
 448 128 l 25
192 128 m 25
 192 192 l 25
 64 192 l 25
 64 128 l 25
 192 128 l 25
448 64 m 25
 448 128 l 25
 320 128 l 25
 320 64 l 25
 448 64 l 25
192 64 m 25
 192 128 l 25
 0 128 l 25
 0 64 l 25
 192 64 l 25
EndSplineSet
EndChar
StartChar: 006C
Encoding: 108 108 104
Width: 512
Flags: HW
TeX: 0 0 0 0
Fore
320 640 m 25
 320 704 l 25
 128 704 l 25
 128 640 l 25
 320 640 l 25
320 576 m 25
 320 640 l 25
 192 640 l 25
 192 576 l 25
 320 576 l 25
320 512 m 25
 320 576 l 25
 192 576 l 25
 192 512 l 25
 320 512 l 25
320 448 m 25
 320 512 l 25
 192 512 l 25
 192 448 l 25
 320 448 l 25
320 384 m 25
 320 448 l 25
 192 448 l 25
 192 384 l 25
 320 384 l 25
320 320 m 25
 320 384 l 25
 192 384 l 25
 192 320 l 25
 320 320 l 25
320 256 m 25
 320 320 l 25
 192 320 l 25
 192 256 l 25
 320 256 l 25
320 192 m 25
 320 256 l 25
 192 256 l 25
 192 192 l 25
 320 192 l 25
320 128 m 25
 320 192 l 25
 192 192 l 25
 192 128 l 25
 320 128 l 25
384 64 m 25
 384 128 l 25
 128 128 l 25
 128 64 l 25
 384 64 l 25
EndSplineSet
EndChar
StartChar: 006D
Encoding: 109 109 105
Width: 512
Flags: HW
TeX: 0 0 0 0
Fore
384 448 m 25
 384 512 l 25
 256 512 l 25
 256 448 l 25
 384 448 l 25
192 448 m 25
 192 512 l 25
 0 512 l 25
 0 448 l 25
 192 448 l 25
448 384 m 25
 448 448 l 25
 0 448 l 25
 0 384 l 25
 448 384 l 25
448 320 m 25
 448 384 l 25
 320 384 l 25
 320 320 l 25
 448 320 l 25
256 320 m 25
 256 384 l 25
 192 384 l 25
 192 320 l 25
 256 320 l 25
128 320 m 25
 128 384 l 25
 0 384 l 25
 0 320 l 25
 128 320 l 25
448 256 m 25
 448 320 l 25
 320 320 l 25
 320 256 l 25
 448 256 l 25
256 256 m 25
 256 320 l 25
 192 320 l 25
 192 256 l 25
 256 256 l 25
128 256 m 25
 128 320 l 25
 0 320 l 25
 0 256 l 25
 128 256 l 25
448 192 m 25
 448 256 l 25
 320 256 l 25
 320 192 l 25
 448 192 l 25
256 192 m 25
 256 256 l 25
 192 256 l 25
 192 192 l 25
 256 192 l 25
128 192 m 25
 128 256 l 25
 0 256 l 25
 0 192 l 25
 128 192 l 25
448 128 m 25
 448 192 l 25
 320 192 l 25
 320 128 l 25
 448 128 l 25
256 128 m 25
 256 192 l 25
 192 192 l 25
 192 128 l 25
 256 128 l 25
128 128 m 25
 128 192 l 25
 0 192 l 25
 0 128 l 25
 128 128 l 25
448 64 m 25
 448 128 l 25
 320 128 l 25
 320 64 l 25
 448 64 l 25
128 64 m 25
 128 128 l 25
 0 128 l 25
 0 64 l 25
 128 64 l 25
EndSplineSet
EndChar
StartChar: 006E
Encoding: 110 110 106
Width: 512
Flags: HW
TeX: 0 0 0 0
Fore
384 448 m 25
 384 512 l 25
 192 512 l 25
 192 448 l 25
 384 448 l 25
128 448 m 25
 128 512 l 25
 0 512 l 25
 0 448 l 25
 128 448 l 25
448 384 m 25
 448 448 l 25
 320 448 l 25
 320 384 l 25
 448 384 l 25
192 384 m 25
 192 448 l 25
 64 448 l 25
 64 384 l 25
 192 384 l 25
448 320 m 25
 448 384 l 25
 320 384 l 25
 320 320 l 25
 448 320 l 25
192 320 m 25
 192 384 l 25
 64 384 l 25
 64 320 l 25
 192 320 l 25
448 256 m 25
 448 320 l 25
 320 320 l 25
 320 256 l 25
 448 256 l 25
192 256 m 25
 192 320 l 25
 64 320 l 25
 64 256 l 25
 192 256 l 25
448 192 m 25
 448 256 l 25
 320 256 l 25
 320 192 l 25
 448 192 l 25
192 192 m 25
 192 256 l 25
 64 256 l 25
 64 192 l 25
 192 192 l 25
448 128 m 25
 448 192 l 25
 320 192 l 25
 320 128 l 25
 448 128 l 25
192 128 m 25
 192 192 l 25
 64 192 l 25
 64 128 l 25
 192 128 l 25
448 64 m 25
 448 128 l 25
 320 128 l 25
 320 64 l 25
 448 64 l 25
192 64 m 25
 192 128 l 25
 64 128 l 25
 64 64 l 25
 192 64 l 25
EndSplineSet
EndChar
StartChar: 006F
Encoding: 111 111 107
Width: 512
Flags: HW
TeX: 0 0 0 0
Fore
384 448 m 25
 384 512 l 25
 64 512 l 25
 64 448 l 25
 384 448 l 25
448 384 m 25
 448 448 l 25
 320 448 l 25
 320 384 l 25
 448 384 l 25
128 384 m 25
 128 448 l 25
 0 448 l 25
 0 384 l 25
 128 384 l 25
448 320 m 25
 448 384 l 25
 320 384 l 25
 320 320 l 25
 448 320 l 25
128 320 m 25
 128 384 l 25
 0 384 l 25
 0 320 l 25
 128 320 l 25
448 256 m 25
 448 320 l 25
 320 320 l 25
 320 256 l 25
 448 256 l 25
128 256 m 25
 128 320 l 25
 0 320 l 25
 0 256 l 25
 128 256 l 25
448 192 m 25
 448 256 l 25
 320 256 l 25
 320 192 l 25
 448 192 l 25
128 192 m 25
 128 256 l 25
 0 256 l 25
 0 192 l 25
 128 192 l 25
448 128 m 25
 448 192 l 25
 320 192 l 25
 320 128 l 25
 448 128 l 25
128 128 m 25
 128 192 l 25
 0 192 l 25
 0 128 l 25
 128 128 l 25
384 64 m 25
 384 128 l 25
 64 128 l 25
 64 64 l 25
 384 64 l 25
EndSplineSet
EndChar
StartChar: 0070
Encoding: 112 112 108
Width: 512
Flags: HW
TeX: 0 0 0 0
Fore
384 448 m 25
 384 512 l 25
 192 512 l 25
 192 448 l 25
 384 448 l 25
128 448 m 25
 128 512 l 25
 0 512 l 25
 0 448 l 25
 128 448 l 25
448 384 m 25
 448 448 l 25
 320 448 l 25
 320 384 l 25
 448 384 l 25
192 384 m 25
 192 448 l 25
 64 448 l 25
 64 384 l 25
 192 384 l 25
448 320 m 25
 448 384 l 25
 320 384 l 25
 320 320 l 25
 448 320 l 25
192 320 m 25
 192 384 l 25
 64 384 l 25
 64 320 l 25
 192 320 l 25
448 256 m 25
 448 320 l 25
 320 320 l 25
 320 256 l 25
 448 256 l 25
192 256 m 25
 192 320 l 25
 64 320 l 25
 64 256 l 25
 192 256 l 25
448 192 m 25
 448 256 l 25
 320 256 l 25
 320 192 l 25
 448 192 l 25
192 192 m 25
 192 256 l 25
 64 256 l 25
 64 192 l 25
 192 192 l 25
448 128 m 25
 448 192 l 25
 320 192 l 25
 320 128 l 25
 448 128 l 25
192 128 m 25
 192 192 l 25
 64 192 l 25
 64 128 l 25
 192 128 l 25
384 64 m 25
 384 128 l 25
 64 128 l 25
 64 64 l 25
 384 64 l 25
192 0 m 25
 192 64 l 25
 64 64 l 25
 64 0 l 25
 192 0 l 25
192 -64 m 25
 192 0 l 25
 64 0 l 25
 64 -64 l 25
 192 -64 l 25
256 -128 m 25
 256 -64 l 25
 0 -64 l 25
 0 -128 l 25
 256 -128 l 25
EndSplineSet
EndChar
StartChar: 0071
Encoding: 113 113 109
Width: 512
Flags: HW
TeX: 0 0 0 0
Fore
448 448 m 25
 448 512 l 25
 320 512 l 25
 320 448 l 25
 448 448 l 25
256 448 m 25
 256 512 l 25
 64 512 l 25
 64 448 l 25
 256 448 l 25
384 384 m 25
 384 448 l 25
 256 448 l 25
 256 384 l 25
 384 384 l 25
128 384 m 25
 128 448 l 25
 0 448 l 25
 0 384 l 25
 128 384 l 25
384 320 m 25
 384 384 l 25
 256 384 l 25
 256 320 l 25
 384 320 l 25
128 320 m 25
 128 384 l 25
 0 384 l 25
 0 320 l 25
 128 320 l 25
384 256 m 25
 384 320 l 25
 256 320 l 25
 256 256 l 25
 384 256 l 25
128 256 m 25
 128 320 l 25
 0 320 l 25
 0 256 l 25
 128 256 l 25
384 192 m 25
 384 256 l 25
 256 256 l 25
 256 192 l 25
 384 192 l 25
128 192 m 25
 128 256 l 25
 0 256 l 25
 0 192 l 25
 128 192 l 25
384 128 m 25
 384 192 l 25
 256 192 l 25
 256 128 l 25
 384 128 l 25
128 128 m 25
 128 192 l 25
 0 192 l 25
 0 128 l 25
 128 128 l 25
384 64 m 25
 384 128 l 25
 64 128 l 25
 64 64 l 25
 384 64 l 25
384 0 m 25
 384 64 l 25
 256 64 l 25
 256 0 l 25
 384 0 l 25
384 -64 m 25
 384 0 l 25
 256 0 l 25
 256 -64 l 25
 384 -64 l 25
448 -128 m 25
 448 -64 l 25
 192 -64 l 25
 192 -128 l 25
 448 -128 l 25
EndSplineSet
EndChar
StartChar: 0072
Encoding: 114 114 110
Width: 512
Flags: HW
TeX: 0 0 0 0
Fore
384 448 m 25
 384 512 l 25
 192 512 l 25
 192 448 l 25
 384 448 l 25
128 448 m 25
 128 512 l 25
 0 512 l 25
 0 448 l 25
 128 448 l 25
448 384 m 25
 448 448 l 25
 320 448 l 25
 320 384 l 25
 448 384 l 25
256 384 m 25
 256 448 l 25
 64 448 l 25
 64 384 l 25
 256 384 l 25
448 320 m 25
 448 384 l 25
 320 384 l 25
 320 320 l 25
 448 320 l 25
192 320 m 25
 192 384 l 25
 64 384 l 25
 64 320 l 25
 192 320 l 25
192 256 m 25
 192 320 l 25
 64 320 l 25
 64 256 l 25
 192 256 l 25
192 192 m 25
 192 256 l 25
 64 256 l 25
 64 192 l 25
 192 192 l 25
192 128 m 25
 192 192 l 25
 64 192 l 25
 64 128 l 25
 192 128 l 25
256 64 m 25
 256 128 l 25
 0 128 l 25
 0 64 l 25
 256 64 l 25
EndSplineSet
EndChar
StartChar: 0073
Encoding: 115 115 111
Width: 512
Flags: HW
TeX: 0 0 0 0
Fore
384 448 m 25
 384 512 l 25
 64 512 l 25
 64 448 l 25
 384 448 l 25
448 384 m 25
 448 448 l 25
 320 448 l 25
 320 384 l 25
 448 384 l 25
128 384 m 25
 128 448 l 25
 0 448 l 25
 0 384 l 25
 128 384 l 25
192 320 m 25
 192 384 l 25
 64 384 l 25
 64 320 l 25
 192 320 l 25
320 256 m 25
 320 320 l 25
 128 320 l 25
 128 256 l 25
 320 256 l 25
384 192 m 25
 384 256 l 25
 256 256 l 25
 256 192 l 25
 384 192 l 25
448 128 m 25
 448 192 l 25
 320 192 l 25
 320 128 l 25
 448 128 l 25
128 128 m 25
 128 192 l 25
 0 192 l 25
 0 128 l 25
 128 128 l 25
384 64 m 25
 384 128 l 25
 64 128 l 25
 64 64 l 25
 384 64 l 25
EndSplineSet
EndChar
StartChar: 0074
Encoding: 116 116 112
Width: 512
Flags: HW
TeX: 0 0 0 0
Fore
256 640 m 25
 256 704 l 25
 192 704 l 25
 192 640 l 25
 256 640 l 25
256 576 m 25
 256 640 l 25
 128 640 l 25
 128 576 l 25
 256 576 l 25
256 512 m 25
 256 576 l 25
 128 576 l 25
 128 512 l 25
 256 512 l 25
384 448 m 25
 384 512 l 25
 0 512 l 25
 0 448 l 25
 384 448 l 25
256 384 m 25
 256 448 l 25
 128 448 l 25
 128 384 l 25
 256 384 l 25
256 320 m 25
 256 384 l 25
 128 384 l 25
 128 320 l 25
 256 320 l 25
256 256 m 25
 256 320 l 25
 128 320 l 25
 128 256 l 25
 256 256 l 25
256 192 m 25
 256 256 l 25
 128 256 l 25
 128 192 l 25
 256 192 l 25
448 128 m 25
 448 192 l 25
 320 192 l 25
 320 128 l 25
 448 128 l 25
256 128 m 25
 256 192 l 25
 128 192 l 25
 128 128 l 25
 256 128 l 25
384 64 m 25
 384 128 l 25
 192 128 l 25
 192 64 l 25
 384 64 l 25
EndSplineSet
EndChar
StartChar: 0075
Encoding: 117 117 113
Width: 512
Flags: HW
TeX: 0 0 0 0
Fore
384 448 m 25
 384 512 l 25
 256 512 l 25
 256 448 l 25
 384 448 l 25
128 448 m 25
 128 512 l 25
 0 512 l 25
 0 448 l 25
 128 448 l 25
384 384 m 25
 384 448 l 25
 256 448 l 25
 256 384 l 25
 384 384 l 25
128 384 m 25
 128 448 l 25
 0 448 l 25
 0 384 l 25
 128 384 l 25
384 320 m 25
 384 384 l 25
 256 384 l 25
 256 320 l 25
 384 320 l 25
128 320 m 25
 128 384 l 25
 0 384 l 25
 0 320 l 25
 128 320 l 25
384 256 m 25
 384 320 l 25
 256 320 l 25
 256 256 l 25
 384 256 l 25
128 256 m 25
 128 320 l 25
 0 320 l 25
 0 256 l 25
 128 256 l 25
384 192 m 25
 384 256 l 25
 256 256 l 25
 256 192 l 25
 384 192 l 25
128 192 m 25
 128 256 l 25
 0 256 l 25
 0 192 l 25
 128 192 l 25
384 128 m 25
 384 192 l 25
 256 192 l 25
 256 128 l 25
 384 128 l 25
128 128 m 25
 128 192 l 25
 0 192 l 25
 0 128 l 25
 128 128 l 25
448 64 m 25
 448 128 l 25
 320 128 l 25
 320 64 l 25
 448 64 l 25
256 64 m 25
 256 128 l 25
 64 128 l 25
 64 64 l 25
 256 64 l 25
EndSplineSet
EndChar
StartChar: 0076
Encoding: 118 118 114
Width: 512
Flags: HW
TeX: 0 0 0 0
Fore
448 448 m 25
 448 512 l 25
 320 512 l 25
 320 448 l 25
 448 448 l 25
128 448 m 25
 128 512 l 25
 0 512 l 25
 0 448 l 25
 128 448 l 25
448 384 m 25
 448 448 l 25
 320 448 l 25
 320 384 l 25
 448 384 l 25
128 384 m 25
 128 448 l 25
 0 448 l 25
 0 384 l 25
 128 384 l 25
448 320 m 25
 448 384 l 25
 320 384 l 25
 320 320 l 25
 448 320 l 25
128 320 m 25
 128 384 l 25
 0 384 l 25
 0 320 l 25
 128 320 l 25
448 256 m 25
 448 320 l 25
 320 320 l 25
 320 256 l 25
 448 256 l 25
128 256 m 25
 128 320 l 25
 0 320 l 25
 0 256 l 25
 128 256 l 25
448 192 m 25
 448 256 l 25
 320 256 l 25
 320 192 l 25
 448 192 l 25
128 192 m 25
 128 256 l 25
 0 256 l 25
 0 192 l 25
 128 192 l 25
384 128 m 25
 384 192 l 25
 256 192 l 25
 256 128 l 25
 384 128 l 25
192 128 m 25
 192 192 l 25
 64 192 l 25
 64 128 l 25
 192 128 l 25
320 64 m 25
 320 128 l 25
 128 128 l 25
 128 64 l 25
 320 64 l 25
EndSplineSet
EndChar
StartChar: 0077
Encoding: 119 119 115
Width: 512
Flags: HW
TeX: 0 0 0 0
Fore
448 448 m 25
 448 512 l 25
 320 512 l 25
 320 448 l 25
 448 448 l 25
128 448 m 25
 128 512 l 25
 0 512 l 25
 0 448 l 25
 128 448 l 25
448 384 m 25
 448 448 l 25
 320 448 l 25
 320 384 l 25
 448 384 l 25
128 384 m 25
 128 448 l 25
 0 448 l 25
 0 384 l 25
 128 384 l 25
448 320 m 25
 448 384 l 25
 320 384 l 25
 320 320 l 25
 448 320 l 25
256 320 m 25
 256 384 l 25
 192 384 l 25
 192 320 l 25
 256 320 l 25
128 320 m 25
 128 384 l 25
 0 384 l 25
 0 320 l 25
 128 320 l 25
448 256 m 25
 448 320 l 25
 320 320 l 25
 320 256 l 25
 448 256 l 25
256 256 m 25
 256 320 l 25
 192 320 l 25
 192 256 l 25
 256 256 l 25
128 256 m 25
 128 320 l 25
 0 320 l 25
 0 256 l 25
 128 256 l 25
448 192 m 25
 448 256 l 25
 320 256 l 25
 320 192 l 25
 448 192 l 25
256 192 m 25
 256 256 l 25
 192 256 l 25
 192 192 l 25
 256 192 l 25
128 192 m 25
 128 256 l 25
 0 256 l 25
 0 192 l 25
 128 192 l 25
448 128 m 25
 448 192 l 25
 0 192 l 25
 0 128 l 25
 448 128 l 25
384 64 m 25
 384 128 l 25
 256 128 l 25
 256 64 l 25
 384 64 l 25
192 64 m 25
 192 128 l 25
 64 128 l 25
 64 64 l 25
 192 64 l 25
EndSplineSet
EndChar
StartChar: 0078
Encoding: 120 120 116
Width: 512
Flags: HW
TeX: 0 0 0 0
Fore
448 448 m 25
 448 512 l 25
 320 512 l 25
 320 448 l 25
 448 448 l 25
128 448 m 25
 128 512 l 25
 0 512 l 25
 0 448 l 25
 128 448 l 25
384 384 m 25
 384 448 l 25
 256 448 l 25
 256 384 l 25
 384 384 l 25
192 384 m 25
 192 448 l 25
 64 448 l 25
 64 384 l 25
 192 384 l 25
320 320 m 25
 320 384 l 25
 128 384 l 25
 128 320 l 25
 320 320 l 25
320 256 m 25
 320 320 l 25
 128 320 l 25
 128 256 l 25
 320 256 l 25
320 192 m 25
 320 256 l 25
 128 256 l 25
 128 192 l 25
 320 192 l 25
384 128 m 25
 384 192 l 25
 256 192 l 25
 256 128 l 25
 384 128 l 25
192 128 m 25
 192 192 l 25
 64 192 l 25
 64 128 l 25
 192 128 l 25
448 64 m 25
 448 128 l 25
 320 128 l 25
 320 64 l 25
 448 64 l 25
128 64 m 25
 128 128 l 25
 0 128 l 25
 0 64 l 25
 128 64 l 25
EndSplineSet
EndChar
StartChar: 0079
Encoding: 121 121 117
Width: 512
Flags: HW
TeX: 0 0 0 0
Fore
448 448 m 25
 448 512 l 25
 320 512 l 25
 320 448 l 25
 448 448 l 25
128 448 m 25
 128 512 l 25
 0 512 l 25
 0 448 l 25
 128 448 l 25
448 384 m 25
 448 448 l 25
 320 448 l 25
 320 384 l 25
 448 384 l 25
128 384 m 25
 128 448 l 25
 0 448 l 25
 0 384 l 25
 128 384 l 25
448 320 m 25
 448 384 l 25
 320 384 l 25
 320 320 l 25
 448 320 l 25
128 320 m 25
 128 384 l 25
 0 384 l 25
 0 320 l 25
 128 320 l 25
448 256 m 25
 448 320 l 25
 320 320 l 25
 320 256 l 25
 448 256 l 25
128 256 m 25
 128 320 l 25
 0 320 l 25
 0 256 l 25
 128 256 l 25
448 192 m 25
 448 256 l 25
 320 256 l 25
 320 192 l 25
 448 192 l 25
128 192 m 25
 128 256 l 25
 0 256 l 25
 0 192 l 25
 128 192 l 25
448 128 m 25
 448 192 l 25
 320 192 l 25
 320 128 l 25
 448 128 l 25
128 128 m 25
 128 192 l 25
 0 192 l 25
 0 128 l 25
 128 128 l 25
448 64 m 25
 448 128 l 25
 64 128 l 25
 64 64 l 25
 448 64 l 25
448 0 m 25
 448 64 l 25
 320 64 l 25
 320 0 l 25
 448 0 l 25
384 -64 m 25
 384 0 l 25
 256 0 l 25
 256 -64 l 25
 384 -64 l 25
320 -128 m 25
 320 -64 l 25
 0 -64 l 25
 0 -128 l 25
 320 -128 l 25
EndSplineSet
EndChar
StartChar: 007A
Encoding: 122 122 118
Width: 512
Flags: HW
TeX: 0 0 0 0
Fore
448 448 m 25
 448 512 l 25
 0 512 l 25
 0 448 l 25
 448 448 l 25
384 384 m 25
 384 448 l 25
 256 448 l 25
 256 384 l 25
 384 384 l 25
128 384 m 25
 128 448 l 25
 0 448 l 25
 0 384 l 25
 128 384 l 25
320 320 m 25
 320 384 l 25
 192 384 l 25
 192 320 l 25
 320 320 l 25
256 256 m 25
 256 320 l 25
 128 320 l 25
 128 256 l 25
 256 256 l 25
192 192 m 25
 192 256 l 25
 64 256 l 25
 64 192 l 25
 192 192 l 25
448 128 m 25
 448 192 l 25
 320 192 l 25
 320 128 l 25
 448 128 l 25
128 128 m 25
 128 192 l 25
 0 192 l 25
 0 128 l 25
 128 128 l 25
448 64 m 25
 448 128 l 25
 0 128 l 25
 0 64 l 25
 448 64 l 25
EndSplineSet
EndChar
StartChar: 007B
Encoding: 123 123 119
Width: 512
Flags: HW
TeX: 0 0 0 0
Fore
448 640 m 25
 448 704 l 25
 256 704 l 25
 256 640 l 25
 448 640 l 25
320 576 m 25
 320 640 l 25
 192 640 l 25
 192 576 l 25
 320 576 l 25
320 512 m 25
 320 576 l 25
 192 576 l 25
 192 512 l 25
 320 512 l 25
320 448 m 25
 320 512 l 25
 192 512 l 25
 192 448 l 25
 320 448 l 25
256 384 m 25
 256 448 l 25
 64 448 l 25
 64 384 l 25
 256 384 l 25
320 320 m 25
 320 384 l 25
 192 384 l 25
 192 320 l 25
 320 320 l 25
320 256 m 25
 320 320 l 25
 192 320 l 25
 192 256 l 25
 320 256 l 25
320 192 m 25
 320 256 l 25
 192 256 l 25
 192 192 l 25
 320 192 l 25
320 128 m 25
 320 192 l 25
 192 192 l 25
 192 128 l 25
 320 128 l 25
448 64 m 25
 448 128 l 25
 256 128 l 25
 256 64 l 25
 448 64 l 25
EndSplineSet
EndChar
StartChar: 007C
Encoding: 124 124 120
Width: 512
Flags: HW
TeX: 0 0 0 0
Fore
320 640 m 25
 320 704 l 25
 192 704 l 25
 192 640 l 25
 320 640 l 25
320 576 m 25
 320 640 l 25
 192 640 l 25
 192 576 l 25
 320 576 l 25
320 512 m 25
 320 576 l 25
 192 576 l 25
 192 512 l 25
 320 512 l 25
320 448 m 25
 320 512 l 25
 192 512 l 25
 192 448 l 25
 320 448 l 25
320 384 m 25
 320 448 l 25
 192 448 l 25
 192 384 l 25
 320 384 l 25
320 320 m 25
 320 384 l 25
 192 384 l 25
 192 320 l 25
 320 320 l 25
320 256 m 25
 320 320 l 25
 192 320 l 25
 192 256 l 25
 320 256 l 25
320 192 m 25
 320 256 l 25
 192 256 l 25
 192 192 l 25
 320 192 l 25
320 128 m 25
 320 192 l 25
 192 192 l 25
 192 128 l 25
 320 128 l 25
320 64 m 25
 320 128 l 25
 192 128 l 25
 192 64 l 25
 320 64 l 25
EndSplineSet
EndChar
StartChar: 007D
Encoding: 125 125 121
Width: 512
Flags: HW
TeX: 0 0 0 0
Fore
256 640 m 25
 256 704 l 25
 64 704 l 25
 64 640 l 25
 256 640 l 25
320 576 m 25
 320 640 l 25
 192 640 l 25
 192 576 l 25
 320 576 l 25
320 512 m 25
 320 576 l 25
 192 576 l 25
 192 512 l 25
 320 512 l 25
320 448 m 25
 320 512 l 25
 192 512 l 25
 192 448 l 25
 320 448 l 25
448 384 m 25
 448 448 l 25
 256 448 l 25
 256 384 l 25
 448 384 l 25
320 320 m 25
 320 384 l 25
 192 384 l 25
 192 320 l 25
 320 320 l 25
320 256 m 25
 320 320 l 25
 192 320 l 25
 192 256 l 25
 320 256 l 25
320 192 m 25
 320 256 l 25
 192 256 l 25
 192 192 l 25
 320 192 l 25
320 128 m 25
 320 192 l 25
 192 192 l 25
 192 128 l 25
 320 128 l 25
256 64 m 25
 256 128 l 25
 64 128 l 25
 64 64 l 25
 256 64 l 25
EndSplineSet
EndChar
StartChar: 007E
Encoding: 126 126 122
Width: 512
Flags: HW
TeX: 0 0 0 0
Fore
448 832 m 25
 448 896 l 25
 320 896 l 25
 320 832 l 25
 448 832 l 25
256 832 m 25
 256 896 l 25
 64 896 l 25
 64 832 l 25
 256 832 l 25
384 768 m 25
 384 832 l 25
 192 832 l 25
 192 768 l 25
 384 768 l 25
128 768 m 25
 128 832 l 25
 0 832 l 25
 0 768 l 25
 128 768 l 25
EndSplineSet
EndChar
StartChar: 00A0
Encoding: 160 160 123
Width: 512
Flags: HW
TeX: 0 0 0 0
Fore
EndSplineSet
EndChar
StartChar: 00A1
Encoding: 161 161 124
Width: 512
Flags: HW
TeX: 0 0 0 0
Fore
320 640 m 25
 320 704 l 25
 192 704 l 25
 192 640 l 25
 320 640 l 25
320 576 m 25
 320 640 l 25
 192 640 l 25
 192 576 l 25
 320 576 l 25
320 448 m 25
 320 512 l 25
 192 512 l 25
 192 448 l 25
 320 448 l 25
320 384 m 25
 320 448 l 25
 192 448 l 25
 192 384 l 25
 320 384 l 25
320 320 m 25
 320 384 l 25
 192 384 l 25
 192 320 l 25
 320 320 l 25
384 256 m 25
 384 320 l 25
 128 320 l 25
 128 256 l 25
 384 256 l 25
384 192 m 25
 384 256 l 25
 128 256 l 25
 128 192 l 25
 384 192 l 25
384 128 m 25
 384 192 l 25
 128 192 l 25
 128 128 l 25
 384 128 l 25
320 64 m 25
 320 128 l 25
 192 128 l 25
 192 64 l 25
 320 64 l 25
EndSplineSet
EndChar
StartChar: 00A2
Encoding: 162 162 125
Width: 512
Flags: HW
TeX: 0 0 0 0
Fore
320 640 m 25
 320 704 l 25
 192 704 l 25
 192 640 l 25
 320 640 l 25
320 576 m 25
 320 640 l 25
 192 640 l 25
 192 576 l 25
 320 576 l 25
384 512 m 25
 384 576 l 25
 64 576 l 25
 64 512 l 25
 384 512 l 25
448 448 m 25
 448 512 l 25
 320 512 l 25
 320 448 l 25
 448 448 l 25
128 448 m 25
 128 512 l 25
 0 512 l 25
 0 448 l 25
 128 448 l 25
128 384 m 25
 128 448 l 25
 0 448 l 25
 0 384 l 25
 128 384 l 25
128 320 m 25
 128 384 l 25
 0 384 l 25
 0 320 l 25
 128 320 l 25
448 256 m 25
 448 320 l 25
 320 320 l 25
 320 256 l 25
 448 256 l 25
128 256 m 25
 128 320 l 25
 0 320 l 25
 0 256 l 25
 128 256 l 25
384 192 m 25
 384 256 l 25
 64 256 l 25
 64 192 l 25
 384 192 l 25
320 128 m 25
 320 192 l 25
 192 192 l 25
 192 128 l 25
 320 128 l 25
320 64 m 25
 320 128 l 25
 192 128 l 25
 192 64 l 25
 320 64 l 25
EndSplineSet
EndChar
StartChar: 00A3
Encoding: 163 163 126
Width: 512
Flags: HW
TeX: 0 0 0 0
Fore
320 640 m 25
 320 704 l 25
 128 704 l 25
 128 640 l 25
 320 640 l 25
384 576 m 25
 384 640 l 25
 256 640 l 25
 256 576 l 25
 384 576 l 25
192 576 m 25
 192 640 l 25
 64 640 l 25
 64 576 l 25
 192 576 l 25
384 512 m 25
 384 576 l 25
 320 576 l 25
 320 512 l 25
 384 512 l 25
192 512 m 25
 192 576 l 25
 64 576 l 25
 64 512 l 25
 192 512 l 25
192 448 m 25
 192 512 l 25
 64 512 l 25
 64 448 l 25
 192 448 l 25
256 384 m 25
 256 448 l 25
 0 448 l 25
 0 384 l 25
 256 384 l 25
192 320 m 25
 192 384 l 25
 64 384 l 25
 64 320 l 25
 192 320 l 25
192 256 m 25
 192 320 l 25
 64 320 l 25
 64 256 l 25
 192 256 l 25
192 192 m 25
 192 256 l 25
 64 256 l 25
 64 192 l 25
 192 192 l 25
448 128 m 25
 448 192 l 25
 320 192 l 25
 320 128 l 25
 448 128 l 25
192 128 m 25
 192 192 l 25
 64 192 l 25
 64 128 l 25
 192 128 l 25
384 64 m 25
 384 128 l 25
 0 128 l 25
 0 64 l 25
 384 64 l 25
EndSplineSet
EndChar
StartChar: 00A4
Encoding: 164 164 127
Width: 512
Flags: HW
TeX: 0 0 0 0
Fore
448 512 m 25
 448 576 l 25
 320 576 l 25
 320 512 l 25
 448 512 l 25
128 512 m 25
 128 576 l 25
 0 576 l 25
 0 512 l 25
 128 512 l 25
384 448 m 25
 384 512 l 25
 64 512 l 25
 64 448 l 25
 384 448 l 25
448 384 m 25
 448 448 l 25
 320 448 l 25
 320 384 l 25
 448 384 l 25
128 384 m 25
 128 448 l 25
 0 448 l 25
 0 384 l 25
 128 384 l 25
448 320 m 25
 448 384 l 25
 320 384 l 25
 320 320 l 25
 448 320 l 25
128 320 m 25
 128 384 l 25
 0 384 l 25
 0 320 l 25
 128 320 l 25
448 256 m 25
 448 320 l 25
 320 320 l 25
 320 256 l 25
 448 256 l 25
128 256 m 25
 128 320 l 25
 0 320 l 25
 0 256 l 25
 128 256 l 25
448 192 m 25
 448 256 l 25
 320 256 l 25
 320 192 l 25
 448 192 l 25
128 192 m 25
 128 256 l 25
 0 256 l 25
 0 192 l 25
 128 192 l 25
384 128 m 25
 384 192 l 25
 64 192 l 25
 64 128 l 25
 384 128 l 25
448 64 m 25
 448 128 l 25
 320 128 l 25
 320 64 l 25
 448 64 l 25
128 64 m 25
 128 128 l 25
 0 128 l 25
 0 64 l 25
 128 64 l 25
EndSplineSet
EndChar
StartChar: 00A5
Encoding: 165 165 128
Width: 512
Flags: HW
TeX: 0 0 0 0
Fore
448 640 m 25
 448 704 l 25
 320 704 l 25
 320 640 l 25
 448 640 l 25
192 640 m 25
 192 704 l 25
 64 704 l 25
 64 640 l 25
 192 640 l 25
448 576 m 25
 448 640 l 25
 320 640 l 25
 320 576 l 25
 448 576 l 25
192 576 m 25
 192 640 l 25
 64 640 l 25
 64 576 l 25
 192 576 l 25
384 512 m 25
 384 576 l 25
 128 576 l 25
 128 512 l 25
 384 512 l 25
320 448 m 25
 320 512 l 25
 192 512 l 25
 192 448 l 25
 320 448 l 25
448 384 m 25
 448 448 l 25
 64 448 l 25
 64 384 l 25
 448 384 l 25
320 320 m 25
 320 384 l 25
 192 384 l 25
 192 320 l 25
 320 320 l 25
448 256 m 25
 448 320 l 25
 64 320 l 25
 64 256 l 25
 448 256 l 25
320 192 m 25
 320 256 l 25
 192 256 l 25
 192 192 l 25
 320 192 l 25
320 128 m 25
 320 192 l 25
 192 192 l 25
 192 128 l 25
 320 128 l 25
320 64 m 25
 320 128 l 25
 192 128 l 25
 192 64 l 25
 320 64 l 25
EndSplineSet
EndChar
StartChar: 00A6
Encoding: 166 166 129
Width: 512
Flags: HW
TeX: 0 0 0 0
Fore
320 768 m 25
 320 832 l 25
 192 832 l 25
 192 768 l 25
 320 768 l 25
320 704 m 25
 320 768 l 25
 192 768 l 25
 192 704 l 25
 320 704 l 25
320 640 m 25
 320 704 l 25
 192 704 l 25
 192 640 l 25
 320 640 l 25
320 576 m 25
 320 640 l 25
 192 640 l 25
 192 576 l 25
 320 576 l 25
320 512 m 25
 320 576 l 25
 192 576 l 25
 192 512 l 25
 320 512 l 25
320 320 m 25
 320 384 l 25
 192 384 l 25
 192 320 l 25
 320 320 l 25
320 256 m 25
 320 320 l 25
 192 320 l 25
 192 256 l 25
 320 256 l 25
320 192 m 25
 320 256 l 25
 192 256 l 25
 192 192 l 25
 320 192 l 25
320 128 m 25
 320 192 l 25
 192 192 l 25
 192 128 l 25
 320 128 l 25
320 64 m 25
 320 128 l 25
 192 128 l 25
 192 64 l 25
 320 64 l 25
EndSplineSet
EndChar
StartChar: 00A7
Encoding: 167 167 130
Width: 512
Flags: HW
TeX: 0 0 0 0
Fore
384 768 m 25
 384 832 l 25
 64 832 l 25
 64 768 l 25
 384 768 l 25
448 704 m 25
 448 768 l 25
 320 768 l 25
 320 704 l 25
 448 704 l 25
128 704 m 25
 128 768 l 25
 0 768 l 25
 0 704 l 25
 128 704 l 25
192 640 m 25
 192 704 l 25
 64 704 l 25
 64 640 l 25
 192 640 l 25
320 576 m 25
 320 640 l 25
 128 640 l 25
 128 576 l 25
 320 576 l 25
384 512 m 25
 384 576 l 25
 256 576 l 25
 256 512 l 25
 384 512 l 25
192 512 m 25
 192 576 l 25
 64 576 l 25
 64 512 l 25
 192 512 l 25
448 448 m 25
 448 512 l 25
 320 512 l 25
 320 448 l 25
 448 448 l 25
128 448 m 25
 128 512 l 25
 0 512 l 25
 0 448 l 25
 128 448 l 25
448 384 m 25
 448 448 l 25
 320 448 l 25
 320 384 l 25
 448 384 l 25
128 384 m 25
 128 448 l 25
 0 448 l 25
 0 384 l 25
 128 384 l 25
384 320 m 25
 384 384 l 25
 256 384 l 25
 256 320 l 25
 384 320 l 25
192 320 m 25
 192 384 l 25
 64 384 l 25
 64 320 l 25
 192 320 l 25
320 256 m 25
 320 320 l 25
 128 320 l 25
 128 256 l 25
 320 256 l 25
384 192 m 25
 384 256 l 25
 256 256 l 25
 256 192 l 25
 384 192 l 25
448 128 m 25
 448 192 l 25
 320 192 l 25
 320 128 l 25
 448 128 l 25
128 128 m 25
 128 192 l 25
 0 192 l 25
 0 128 l 25
 128 128 l 25
384 64 m 25
 384 128 l 25
 64 128 l 25
 64 64 l 25
 384 64 l 25
EndSplineSet
EndChar
StartChar: 00A8
Encoding: 168 168 131
Width: 512
Flags: HW
TeX: 0 0 0 0
Fore
448 768 m 25
 448 832 l 25
 320 832 l 25
 320 768 l 25
 448 768 l 25
128 768 m 25
 128 832 l 25
 0 832 l 25
 0 768 l 25
 128 768 l 25
EndSplineSet
EndChar
StartChar: 00A9
Encoding: 169 169 132
Width: 512
Flags: HW
TeX: 0 0 0 0
Fore
384 640 m 25
 384 704 l 25
 64 704 l 25
 64 640 l 25
 384 640 l 25
448 576 m 25
 448 640 l 25
 384 640 l 25
 384 576 l 25
 448 576 l 25
64 576 m 25
 64 640 l 25
 0 640 l 25
 0 576 l 25
 64 576 l 25
448 512 m 25
 448 576 l 25
 384 576 l 25
 384 512 l 25
 448 512 l 25
320 512 m 25
 320 576 l 25
 192 576 l 25
 192 512 l 25
 320 512 l 25
64 512 m 25
 64 576 l 25
 0 576 l 25
 0 512 l 25
 64 512 l 25
448 448 m 25
 448 512 l 25
 384 512 l 25
 384 448 l 25
 448 448 l 25
192 448 m 25
 192 512 l 25
 128 512 l 25
 128 448 l 25
 192 448 l 25
64 448 m 25
 64 512 l 25
 0 512 l 25
 0 448 l 25
 64 448 l 25
448 384 m 25
 448 448 l 25
 384 448 l 25
 384 384 l 25
 448 384 l 25
192 384 m 25
 192 448 l 25
 128 448 l 25
 128 384 l 25
 192 384 l 25
64 384 m 25
 64 448 l 25
 0 448 l 25
 0 384 l 25
 64 384 l 25
448 320 m 25
 448 384 l 25
 384 384 l 25
 384 320 l 25
 448 320 l 25
192 320 m 25
 192 384 l 25
 128 384 l 25
 128 320 l 25
 192 320 l 25
64 320 m 25
 64 384 l 25
 0 384 l 25
 0 320 l 25
 64 320 l 25
448 256 m 25
 448 320 l 25
 384 320 l 25
 384 256 l 25
 448 256 l 25
192 256 m 25
 192 320 l 25
 128 320 l 25
 128 256 l 25
 192 256 l 25
64 256 m 25
 64 320 l 25
 0 320 l 25
 0 256 l 25
 64 256 l 25
448 192 m 25
 448 256 l 25
 384 256 l 25
 384 192 l 25
 448 192 l 25
320 192 m 25
 320 256 l 25
 192 256 l 25
 192 192 l 25
 320 192 l 25
64 192 m 25
 64 256 l 25
 0 256 l 25
 0 192 l 25
 64 192 l 25
448 128 m 25
 448 192 l 25
 384 192 l 25
 384 128 l 25
 448 128 l 25
64 128 m 25
 64 192 l 25
 0 192 l 25
 0 128 l 25
 64 128 l 25
384 64 m 25
 384 128 l 25
 64 128 l 25
 64 64 l 25
 384 64 l 25
EndSplineSet
EndChar
StartChar: 00AA
Encoding: 170 170 133
Width: 512
Flags: HW
TeX: 0 0 0 0
Fore
384 640 m 25
 384 704 l 25
 128 704 l 25
 128 640 l 25
 384 640 l 25
384 576 m 25
 384 640 l 25
 256 640 l 25
 256 576 l 25
 384 576 l 25
192 576 m 25
 192 640 l 25
 64 640 l 25
 64 576 l 25
 192 576 l 25
384 512 m 25
 384 576 l 25
 256 576 l 25
 256 512 l 25
 384 512 l 25
192 512 m 25
 192 576 l 25
 64 576 l 25
 64 512 l 25
 192 512 l 25
448 448 m 25
 448 512 l 25
 320 512 l 25
 320 448 l 25
 448 448 l 25
256 448 m 25
 256 512 l 25
 128 512 l 25
 128 448 l 25
 256 448 l 25
448 320 m 25
 448 384 l 25
 64 384 l 25
 64 320 l 25
 448 320 l 25
EndSplineSet
EndChar
StartChar: 00AB
Encoding: 171 171 134
Width: 512
Flags: HW
TeX: 0 0 0 0
Fore
448 320 m 25
 448 384 l 25
 320 384 l 25
 320 320 l 25
 448 320 l 25
256 320 m 25
 256 384 l 25
 128 384 l 25
 128 320 l 25
 256 320 l 25
384 256 m 25
 384 320 l 25
 256 320 l 25
 256 256 l 25
 384 256 l 25
192 256 m 25
 192 320 l 25
 64 320 l 25
 64 256 l 25
 192 256 l 25
320 192 m 25
 320 256 l 25
 192 256 l 25
 192 192 l 25
 320 192 l 25
128 192 m 25
 128 256 l 25
 0 256 l 25
 0 192 l 25
 128 192 l 25
384 128 m 25
 384 192 l 25
 256 192 l 25
 256 128 l 25
 384 128 l 25
192 128 m 25
 192 192 l 25
 64 192 l 25
 64 128 l 25
 192 128 l 25
448 64 m 25
 448 128 l 25
 320 128 l 25
 320 64 l 25
 448 64 l 25
256 64 m 25
 256 128 l 25
 128 128 l 25
 128 64 l 25
 256 64 l 25
EndSplineSet
EndChar
StartChar: 00AC
Encoding: 172 172 135
Width: 512
Flags: HW
TeX: 0 0 0 0
Fore
448 448 m 25
 448 512 l 25
 0 512 l 25
 0 448 l 25
 448 448 l 25
448 384 m 25
 448 448 l 25
 320 448 l 25
 320 384 l 25
 448 384 l 25
448 320 m 25
 448 384 l 25
 320 384 l 25
 320 320 l 25
 448 320 l 25
448 256 m 25
 448 320 l 25
 320 320 l 25
 320 256 l 25
 448 256 l 25
448 192 m 25
 448 256 l 25
 320 256 l 25
 320 192 l 25
 448 192 l 25
EndSplineSet
EndChar
StartChar: 00AD
Encoding: 173 173 136
Width: 512
Flags: HW
TeX: 0 0 0 0
Fore
448 320 m 25
 448 384 l 25
 0 384 l 25
 0 320 l 25
 448 320 l 25
EndSplineSet
EndChar
StartChar: 00AE
Encoding: 174 174 137
Width: 512
Flags: HW
TeX: 0 0 0 0
Fore
384 640 m 25
 384 704 l 25
 64 704 l 25
 64 640 l 25
 384 640 l 25
448 576 m 25
 448 640 l 25
 384 640 l 25
 384 576 l 25
 448 576 l 25
64 576 m 25
 64 640 l 25
 0 640 l 25
 0 576 l 25
 64 576 l 25
448 512 m 25
 448 576 l 25
 384 576 l 25
 384 512 l 25
 448 512 l 25
256 512 m 25
 256 576 l 25
 128 576 l 25
 128 512 l 25
 256 512 l 25
64 512 m 25
 64 576 l 25
 0 576 l 25
 0 512 l 25
 64 512 l 25
448 448 m 25
 448 512 l 25
 384 512 l 25
 384 448 l 25
 448 448 l 25
320 448 m 25
 320 512 l 25
 256 512 l 25
 256 448 l 25
 320 448 l 25
192 448 m 25
 192 512 l 25
 128 512 l 25
 128 448 l 25
 192 448 l 25
64 448 m 25
 64 512 l 25
 0 512 l 25
 0 448 l 25
 64 448 l 25
448 384 m 25
 448 448 l 25
 384 448 l 25
 384 384 l 25
 448 384 l 25
320 384 m 25
 320 448 l 25
 256 448 l 25
 256 384 l 25
 320 384 l 25
192 384 m 25
 192 448 l 25
 128 448 l 25
 128 384 l 25
 192 384 l 25
64 384 m 25
 64 448 l 25
 0 448 l 25
 0 384 l 25
 64 384 l 25
448 320 m 25
 448 384 l 25
 384 384 l 25
 384 320 l 25
 448 320 l 25
256 320 m 25
 256 384 l 25
 128 384 l 25
 128 320 l 25
 256 320 l 25
64 320 m 25
 64 384 l 25
 0 384 l 25
 0 320 l 25
 64 320 l 25
448 256 m 25
 448 320 l 25
 384 320 l 25
 384 256 l 25
 448 256 l 25
320 256 m 25
 320 320 l 25
 256 320 l 25
 256 256 l 25
 320 256 l 25
192 256 m 25
 192 320 l 25
 128 320 l 25
 128 256 l 25
 192 256 l 25
64 256 m 25
 64 320 l 25
 0 320 l 25
 0 256 l 25
 64 256 l 25
448 192 m 25
 448 256 l 25
 384 256 l 25
 384 192 l 25
 448 192 l 25
320 192 m 25
 320 256 l 25
 256 256 l 25
 256 192 l 25
 320 192 l 25
192 192 m 25
 192 256 l 25
 128 256 l 25
 128 192 l 25
 192 192 l 25
64 192 m 25
 64 256 l 25
 0 256 l 25
 0 192 l 25
 64 192 l 25
448 128 m 25
 448 192 l 25
 384 192 l 25
 384 128 l 25
 448 128 l 25
64 128 m 25
 64 192 l 25
 0 192 l 25
 0 128 l 25
 64 128 l 25
384 64 m 25
 384 128 l 25
 64 128 l 25
 64 64 l 25
 384 64 l 25
EndSplineSet
EndChar
StartChar: 00AF
Encoding: 175 175 138
Width: 512
Flags: HW
TeX: 0 0 0 0
Fore
512 768 m 25
 512 832 l 25
 0 832 l 25
 0 768 l 25
 512 768 l 25
EndSplineSet
EndChar
StartChar: 00B0
Encoding: 176 176 139
Width: 512
Flags: HW
TeX: 0 0 0 0
Fore
320 640 m 25
 320 704 l 25
 128 704 l 25
 128 640 l 25
 320 640 l 25
384 576 m 25
 384 640 l 25
 256 640 l 25
 256 576 l 25
 384 576 l 25
192 576 m 25
 192 640 l 25
 64 640 l 25
 64 576 l 25
 192 576 l 25
384 512 m 25
 384 576 l 25
 256 576 l 25
 256 512 l 25
 384 512 l 25
192 512 m 25
 192 576 l 25
 64 576 l 25
 64 512 l 25
 192 512 l 25
320 448 m 25
 320 512 l 25
 128 512 l 25
 128 448 l 25
 320 448 l 25
EndSplineSet
EndChar
StartChar: 00B1
Encoding: 177 177 140
Width: 512
Flags: HW
TeX: 0 0 0 0
Fore
320 576 m 25
 320 640 l 25
 192 640 l 25
 192 576 l 25
 320 576 l 25
320 512 m 25
 320 576 l 25
 192 576 l 25
 192 512 l 25
 320 512 l 25
448 448 m 25
 448 512 l 25
 64 512 l 25
 64 448 l 25
 448 448 l 25
320 384 m 25
 320 448 l 25
 192 448 l 25
 192 384 l 25
 320 384 l 25
320 320 m 25
 320 384 l 25
 192 384 l 25
 192 320 l 25
 320 320 l 25
448 128 m 25
 448 192 l 25
 64 192 l 25
 64 128 l 25
 448 128 l 25
EndSplineSet
EndChar
StartChar: 00B2
Encoding: 178 178 141
Width: 512
Flags: HW
TeX: 0 0 0 0
Fore
384 640 m 25
 384 704 l 25
 128 704 l 25
 128 640 l 25
 384 640 l 25
448 576 m 25
 448 640 l 25
 320 640 l 25
 320 576 l 25
 448 576 l 25
192 576 m 25
 192 640 l 25
 64 640 l 25
 64 576 l 25
 192 576 l 25
384 512 m 25
 384 576 l 25
 256 576 l 25
 256 512 l 25
 384 512 l 25
320 448 m 25
 320 512 l 25
 192 512 l 25
 192 448 l 25
 320 448 l 25
448 384 m 25
 448 448 l 25
 384 448 l 25
 384 384 l 25
 448 384 l 25
256 384 m 25
 256 448 l 25
 128 448 l 25
 128 384 l 25
 256 384 l 25
448 320 m 25
 448 384 l 25
 64 384 l 25
 64 320 l 25
 448 320 l 25
EndSplineSet
EndChar
StartChar: 00B3
Encoding: 179 179 142
Width: 512
Flags: HW
TeX: 0 0 0 0
Fore
384 640 m 25
 384 704 l 25
 64 704 l 25
 64 640 l 25
 384 640 l 25
448 576 m 25
 448 640 l 25
 320 640 l 25
 320 576 l 25
 448 576 l 25
384 512 m 25
 384 576 l 25
 128 576 l 25
 128 512 l 25
 384 512 l 25
448 448 m 25
 448 512 l 25
 320 512 l 25
 320 448 l 25
 448 448 l 25
448 384 m 25
 448 448 l 25
 320 448 l 25
 320 384 l 25
 448 384 l 25
384 320 m 25
 384 384 l 25
 64 384 l 25
 64 320 l 25
 384 320 l 25
EndSplineSet
EndChar
StartChar: 00B4
Encoding: 180 180 143
Width: 512
Flags: HW
TeX: 0 0 0 0
Fore
384 832 m 25
 384 896 l 25
 256 896 l 25
 256 832 l 25
 384 832 l 25
320 768 m 25
 320 832 l 25
 192 832 l 25
 192 768 l 25
 320 768 l 25
EndSplineSet
EndChar
StartChar: 00B5
Encoding: 181 181 144
Width: 512
Flags: HW
TeX: 0 0 0 0
Fore
448 448 m 25
 448 512 l 25
 320 512 l 25
 320 448 l 25
 448 448 l 25
192 448 m 25
 192 512 l 25
 64 512 l 25
 64 448 l 25
 192 448 l 25
448 384 m 25
 448 448 l 25
 320 448 l 25
 320 384 l 25
 448 384 l 25
192 384 m 25
 192 448 l 25
 64 448 l 25
 64 384 l 25
 192 384 l 25
448 320 m 25
 448 384 l 25
 320 384 l 25
 320 320 l 25
 448 320 l 25
192 320 m 25
 192 384 l 25
 64 384 l 25
 64 320 l 25
 192 320 l 25
448 256 m 25
 448 320 l 25
 320 320 l 25
 320 256 l 25
 448 256 l 25
192 256 m 25
 192 320 l 25
 64 320 l 25
 64 256 l 25
 192 256 l 25
448 192 m 25
 448 256 l 25
 320 256 l 25
 320 192 l 25
 448 192 l 25
192 192 m 25
 192 256 l 25
 64 256 l 25
 64 192 l 25
 192 192 l 25
448 128 m 25
 448 192 l 25
 320 192 l 25
 320 128 l 25
 448 128 l 25
192 128 m 25
 192 192 l 25
 64 192 l 25
 64 128 l 25
 192 128 l 25
384 64 m 25
 384 128 l 25
 64 128 l 25
 64 64 l 25
 384 64 l 25
192 0 m 25
 192 64 l 25
 64 64 l 25
 64 0 l 25
 192 0 l 25
192 -64 m 25
 192 0 l 25
 64 0 l 25
 64 -64 l 25
 192 -64 l 25
128 -128 m 25
 128 -64 l 25
 0 -64 l 25
 0 -128 l 25
 128 -128 l 25
EndSplineSet
EndChar
StartChar: 00B6
Encoding: 182 182 145
Width: 512
Flags: HW
TeX: 0 0 0 0
Fore
512 640 m 25
 512 704 l 25
 64 704 l 25
 64 640 l 25
 512 640 l 25
512 576 m 25
 512 640 l 25
 384 640 l 25
 384 576 l 25
 512 576 l 25
320 576 m 25
 320 640 l 25
 192 640 l 25
 192 576 l 25
 320 576 l 25
128 576 m 25
 128 640 l 25
 0 640 l 25
 0 576 l 25
 128 576 l 25
512 512 m 25
 512 576 l 25
 384 576 l 25
 384 512 l 25
 512 512 l 25
320 512 m 25
 320 576 l 25
 192 576 l 25
 192 512 l 25
 320 512 l 25
128 512 m 25
 128 576 l 25
 0 576 l 25
 0 512 l 25
 128 512 l 25
512 448 m 25
 512 512 l 25
 384 512 l 25
 384 448 l 25
 512 448 l 25
320 448 m 25
 320 512 l 25
 192 512 l 25
 192 448 l 25
 320 448 l 25
128 448 m 25
 128 512 l 25
 0 512 l 25
 0 448 l 25
 128 448 l 25
512 384 m 25
 512 448 l 25
 384 448 l 25
 384 384 l 25
 512 384 l 25
320 384 m 25
 320 448 l 25
 64 448 l 25
 64 384 l 25
 320 384 l 25
512 320 m 25
 512 384 l 25
 384 384 l 25
 384 320 l 25
 512 320 l 25
320 320 m 25
 320 384 l 25
 192 384 l 25
 192 320 l 25
 320 320 l 25
512 256 m 25
 512 320 l 25
 384 320 l 25
 384 256 l 25
 512 256 l 25
320 256 m 25
 320 320 l 25
 192 320 l 25
 192 256 l 25
 320 256 l 25
512 192 m 25
 512 256 l 25
 384 256 l 25
 384 192 l 25
 512 192 l 25
320 192 m 25
 320 256 l 25
 192 256 l 25
 192 192 l 25
 320 192 l 25
512 128 m 25
 512 192 l 25
 384 192 l 25
 384 128 l 25
 512 128 l 25
320 128 m 25
 320 192 l 25
 192 192 l 25
 192 128 l 25
 320 128 l 25
512 64 m 25
 512 128 l 25
 384 128 l 25
 384 64 l 25
 512 64 l 25
320 64 m 25
 320 128 l 25
 192 128 l 25
 192 64 l 25
 320 64 l 25
EndSplineSet
EndChar
StartChar: 00B7
Encoding: 183 183 146
Width: 512
Flags: HW
TeX: 0 0 0 0
Fore
320 320 m 25
 320 384 l 25
 192 384 l 25
 192 320 l 25
 320 320 l 25
EndSplineSet
EndChar
StartChar: 00B8
Encoding: 184 184 147
Width: 512
Flags: HW
TeX: 0 0 0 0
Fore
320 0 m 25
 320 64 l 25
 192 64 l 25
 192 0 l 25
 320 0 l 25
384 -64 m 25
 384 0 l 25
 256 0 l 25
 256 -64 l 25
 384 -64 l 25
320 -128 m 25
 320 -64 l 25
 64 -64 l 25
 64 -128 l 25
 320 -128 l 25
EndSplineSet
EndChar
StartChar: 00B9
Encoding: 185 185 148
Width: 512
Flags: HW
TeX: 0 0 0 0
Fore
320 640 m 25
 320 704 l 25
 192 704 l 25
 192 640 l 25
 320 640 l 25
320 576 m 25
 320 640 l 25
 128 640 l 25
 128 576 l 25
 320 576 l 25
320 512 m 25
 320 576 l 25
 192 576 l 25
 192 512 l 25
 320 512 l 25
320 448 m 25
 320 512 l 25
 192 512 l 25
 192 448 l 25
 320 448 l 25
320 384 m 25
 320 448 l 25
 192 448 l 25
 192 384 l 25
 320 384 l 25
384 320 m 25
 384 384 l 25
 128 384 l 25
 128 320 l 25
 384 320 l 25
EndSplineSet
EndChar
StartChar: 00BA
Encoding: 186 186 149
Width: 512
Flags: HW
TeX: 0 0 0 0
Fore
320 640 m 25
 320 704 l 25
 128 704 l 25
 128 640 l 25
 320 640 l 25
384 576 m 25
 384 640 l 25
 256 640 l 25
 256 576 l 25
 384 576 l 25
192 576 m 25
 192 640 l 25
 64 640 l 25
 64 576 l 25
 192 576 l 25
384 512 m 25
 384 576 l 25
 256 576 l 25
 256 512 l 25
 384 512 l 25
192 512 m 25
 192 576 l 25
 64 576 l 25
 64 512 l 25
 192 512 l 25
320 448 m 25
 320 512 l 25
 128 512 l 25
 128 448 l 25
 320 448 l 25
384 320 m 25
 384 384 l 25
 64 384 l 25
 64 320 l 25
 384 320 l 25
EndSplineSet
EndChar
StartChar: 00BB
Encoding: 187 187 150
Width: 512
Flags: HW
TeX: 0 0 0 0
Fore
320 320 m 25
 320 384 l 25
 192 384 l 25
 192 320 l 25
 320 320 l 25
128 320 m 25
 128 384 l 25
 0 384 l 25
 0 320 l 25
 128 320 l 25
384 256 m 25
 384 320 l 25
 256 320 l 25
 256 256 l 25
 384 256 l 25
192 256 m 25
 192 320 l 25
 64 320 l 25
 64 256 l 25
 192 256 l 25
448 192 m 25
 448 256 l 25
 320 256 l 25
 320 192 l 25
 448 192 l 25
256 192 m 25
 256 256 l 25
 128 256 l 25
 128 192 l 25
 256 192 l 25
384 128 m 25
 384 192 l 25
 256 192 l 25
 256 128 l 25
 384 128 l 25
192 128 m 25
 192 192 l 25
 64 192 l 25
 64 128 l 25
 192 128 l 25
320 64 m 25
 320 128 l 25
 192 128 l 25
 192 64 l 25
 320 64 l 25
128 64 m 25
 128 128 l 25
 0 128 l 25
 0 64 l 25
 128 64 l 25
EndSplineSet
EndChar
StartChar: 00BC
Encoding: 188 188 151
Width: 512
Flags: HW
TeX: 0 0 0 0
Fore
192 768 m 25
 192 832 l 25
 64 832 l 25
 64 768 l 25
 192 768 l 25
192 704 m 25
 192 768 l 25
 0 768 l 25
 0 704 l 25
 192 704 l 25
448 640 m 25
 448 704 l 25
 384 704 l 25
 384 640 l 25
 448 640 l 25
192 640 m 25
 192 704 l 25
 64 704 l 25
 64 640 l 25
 192 640 l 25
448 576 m 25
 448 640 l 25
 320 640 l 25
 320 576 l 25
 448 576 l 25
192 576 m 25
 192 640 l 25
 64 640 l 25
 64 576 l 25
 192 576 l 25
384 512 m 25
 384 576 l 25
 256 576 l 25
 256 512 l 25
 384 512 l 25
192 512 m 25
 192 576 l 25
 64 576 l 25
 64 512 l 25
 192 512 l 25
320 448 m 25
 320 512 l 25
 192 512 l 25
 192 448 l 25
 320 448 l 25
256 384 m 25
 256 448 l 25
 128 448 l 25
 128 384 l 25
 256 384 l 25
448 320 m 25
 448 384 l 25
 320 384 l 25
 320 320 l 25
 448 320 l 25
192 320 m 25
 192 384 l 25
 64 384 l 25
 64 320 l 25
 192 320 l 25
448 256 m 25
 448 320 l 25
 256 320 l 25
 256 256 l 25
 448 256 l 25
128 256 m 25
 128 320 l 25
 0 320 l 25
 0 256 l 25
 128 256 l 25
448 192 m 25
 448 256 l 25
 384 256 l 25
 384 192 l 25
 448 192 l 25
320 192 m 25
 320 256 l 25
 192 256 l 25
 192 192 l 25
 320 192 l 25
64 192 m 25
 64 256 l 25
 0 256 l 25
 0 192 l 25
 64 192 l 25
512 128 m 25
 512 192 l 25
 128 192 l 25
 128 128 l 25
 512 128 l 25
448 64 m 25
 448 128 l 25
 320 128 l 25
 320 64 l 25
 448 64 l 25
448 0 m 25
 448 64 l 25
 320 64 l 25
 320 0 l 25
 448 0 l 25
EndSplineSet
EndChar
StartChar: 00BD
Encoding: 189 189 152
Width: 512
Flags: HW
TeX: 0 0 0 0
Fore
192 768 m 25
 192 832 l 25
 64 832 l 25
 64 768 l 25
 192 768 l 25
192 704 m 25
 192 768 l 25
 0 768 l 25
 0 704 l 25
 192 704 l 25
448 640 m 25
 448 704 l 25
 384 704 l 25
 384 640 l 25
 448 640 l 25
192 640 m 25
 192 704 l 25
 64 704 l 25
 64 640 l 25
 192 640 l 25
448 576 m 25
 448 640 l 25
 320 640 l 25
 320 576 l 25
 448 576 l 25
192 576 m 25
 192 640 l 25
 64 640 l 25
 64 576 l 25
 192 576 l 25
384 512 m 25
 384 576 l 25
 256 576 l 25
 256 512 l 25
 384 512 l 25
192 512 m 25
 192 576 l 25
 64 576 l 25
 64 512 l 25
 192 512 l 25
320 448 m 25
 320 512 l 25
 192 512 l 25
 192 448 l 25
 320 448 l 25
256 384 m 25
 256 448 l 25
 128 448 l 25
 128 384 l 25
 256 384 l 25
192 320 m 25
 192 384 l 25
 64 384 l 25
 64 320 l 25
 192 320 l 25
384 256 m 25
 384 320 l 25
 192 320 l 25
 192 256 l 25
 384 256 l 25
128 256 m 25
 128 320 l 25
 0 320 l 25
 0 256 l 25
 128 256 l 25
448 192 m 25
 448 256 l 25
 320 256 l 25
 320 192 l 25
 448 192 l 25
64 192 m 25
 64 256 l 25
 0 256 l 25
 0 192 l 25
 64 192 l 25
384 128 m 25
 384 192 l 25
 256 192 l 25
 256 128 l 25
 384 128 l 25
320 64 m 25
 320 128 l 25
 192 128 l 25
 192 64 l 25
 320 64 l 25
448 0 m 25
 448 64 l 25
 128 64 l 25
 128 0 l 25
 448 0 l 25
EndSplineSet
EndChar
StartChar: 00BE
Encoding: 190 190 153
Width: 512
Flags: HW
TeX: 0 0 0 0
Fore
192 768 m 25
 192 832 l 25
 0 832 l 25
 0 768 l 25
 192 768 l 25
256 704 m 25
 256 768 l 25
 128 768 l 25
 128 704 l 25
 256 704 l 25
448 640 m 25
 448 704 l 25
 384 704 l 25
 384 640 l 25
 448 640 l 25
192 640 m 25
 192 704 l 25
 64 704 l 25
 64 640 l 25
 192 640 l 25
448 576 m 25
 448 640 l 25
 320 640 l 25
 320 576 l 25
 448 576 l 25
256 576 m 25
 256 640 l 25
 128 640 l 25
 128 576 l 25
 256 576 l 25
384 512 m 25
 384 576 l 25
 256 576 l 25
 256 512 l 25
 384 512 l 25
192 512 m 25
 192 576 l 25
 0 576 l 25
 0 512 l 25
 192 512 l 25
320 448 m 25
 320 512 l 25
 192 512 l 25
 192 448 l 25
 320 448 l 25
256 384 m 25
 256 448 l 25
 128 448 l 25
 128 384 l 25
 256 384 l 25
448 320 m 25
 448 384 l 25
 320 384 l 25
 320 320 l 25
 448 320 l 25
192 320 m 25
 192 384 l 25
 64 384 l 25
 64 320 l 25
 192 320 l 25
448 256 m 25
 448 320 l 25
 256 320 l 25
 256 256 l 25
 448 256 l 25
128 256 m 25
 128 320 l 25
 0 320 l 25
 0 256 l 25
 128 256 l 25
448 192 m 25
 448 256 l 25
 384 256 l 25
 384 192 l 25
 448 192 l 25
320 192 m 25
 320 256 l 25
 192 256 l 25
 192 192 l 25
 320 192 l 25
64 192 m 25
 64 256 l 25
 0 256 l 25
 0 192 l 25
 64 192 l 25
512 128 m 25
 512 192 l 25
 128 192 l 25
 128 128 l 25
 512 128 l 25
448 64 m 25
 448 128 l 25
 320 128 l 25
 320 64 l 25
 448 64 l 25
448 0 m 25
 448 64 l 25
 320 64 l 25
 320 0 l 25
 448 0 l 25
EndSplineSet
EndChar
StartChar: 00BF
Encoding: 191 191 154
Width: 512
Flags: HW
TeX: 0 0 0 0
Fore
256 640 m 25
 256 704 l 25
 128 704 l 25
 128 640 l 25
 256 640 l 25
256 576 m 25
 256 640 l 25
 128 640 l 25
 128 576 l 25
 256 576 l 25
256 448 m 25
 256 512 l 25
 128 512 l 25
 128 448 l 25
 256 448 l 25
256 384 m 25
 256 448 l 25
 128 448 l 25
 128 384 l 25
 256 384 l 25
192 320 m 25
 192 384 l 25
 64 384 l 25
 64 320 l 25
 192 320 l 25
128 256 m 25
 128 320 l 25
 0 320 l 25
 0 256 l 25
 128 256 l 25
448 192 m 25
 448 256 l 25
 320 256 l 25
 320 192 l 25
 448 192 l 25
128 192 m 25
 128 256 l 25
 0 256 l 25
 0 192 l 25
 128 192 l 25
448 128 m 25
 448 192 l 25
 320 192 l 25
 320 128 l 25
 448 128 l 25
128 128 m 25
 128 192 l 25
 0 192 l 25
 0 128 l 25
 128 128 l 25
384 64 m 25
 384 128 l 25
 64 128 l 25
 64 64 l 25
 384 64 l 25
EndSplineSet
EndChar
StartChar: 00C0
Encoding: 192 192 155
Width: 512
Flags: HW
TeX: 0 0 0 0
Fore
192 832 m 25
 192 896 l 25
 64 896 l 25
 64 832 l 25
 192 832 l 25
256 768 m 25
 256 832 l 25
 128 832 l 25
 128 768 l 25
 256 768 l 25
256 640 m 25
 256 704 l 25
 192 704 l 25
 192 640 l 25
 256 640 l 25
320 576 m 25
 320 640 l 25
 128 640 l 25
 128 576 l 25
 320 576 l 25
384 512 m 25
 384 576 l 25
 256 576 l 25
 256 512 l 25
 384 512 l 25
192 512 m 25
 192 576 l 25
 64 576 l 25
 64 512 l 25
 192 512 l 25
448 448 m 25
 448 512 l 25
 320 512 l 25
 320 448 l 25
 448 448 l 25
128 448 m 25
 128 512 l 25
 0 512 l 25
 0 448 l 25
 128 448 l 25
448 384 m 25
 448 448 l 25
 320 448 l 25
 320 384 l 25
 448 384 l 25
128 384 m 25
 128 448 l 25
 0 448 l 25
 0 384 l 25
 128 384 l 25
448 320 m 25
 448 384 l 25
 0 384 l 25
 0 320 l 25
 448 320 l 25
448 256 m 25
 448 320 l 25
 320 320 l 25
 320 256 l 25
 448 256 l 25
128 256 m 25
 128 320 l 25
 0 320 l 25
 0 256 l 25
 128 256 l 25
448 192 m 25
 448 256 l 25
 320 256 l 25
 320 192 l 25
 448 192 l 25
128 192 m 25
 128 256 l 25
 0 256 l 25
 0 192 l 25
 128 192 l 25
448 128 m 25
 448 192 l 25
 320 192 l 25
 320 128 l 25
 448 128 l 25
128 128 m 25
 128 192 l 25
 0 192 l 25
 0 128 l 25
 128 128 l 25
448 64 m 25
 448 128 l 25
 320 128 l 25
 320 64 l 25
 448 64 l 25
128 64 m 25
 128 128 l 25
 0 128 l 25
 0 64 l 25
 128 64 l 25
EndSplineSet
EndChar
StartChar: 00C1
Encoding: 193 193 156
Width: 512
Flags: HW
TeX: 0 0 0 0
Fore
384 832 m 25
 384 896 l 25
 256 896 l 25
 256 832 l 25
 384 832 l 25
320 768 m 25
 320 832 l 25
 192 832 l 25
 192 768 l 25
 320 768 l 25
256 640 m 25
 256 704 l 25
 192 704 l 25
 192 640 l 25
 256 640 l 25
320 576 m 25
 320 640 l 25
 128 640 l 25
 128 576 l 25
 320 576 l 25
384 512 m 25
 384 576 l 25
 256 576 l 25
 256 512 l 25
 384 512 l 25
192 512 m 25
 192 576 l 25
 64 576 l 25
 64 512 l 25
 192 512 l 25
448 448 m 25
 448 512 l 25
 320 512 l 25
 320 448 l 25
 448 448 l 25
128 448 m 25
 128 512 l 25
 0 512 l 25
 0 448 l 25
 128 448 l 25
448 384 m 25
 448 448 l 25
 320 448 l 25
 320 384 l 25
 448 384 l 25
128 384 m 25
 128 448 l 25
 0 448 l 25
 0 384 l 25
 128 384 l 25
448 320 m 25
 448 384 l 25
 0 384 l 25
 0 320 l 25
 448 320 l 25
448 256 m 25
 448 320 l 25
 320 320 l 25
 320 256 l 25
 448 256 l 25
128 256 m 25
 128 320 l 25
 0 320 l 25
 0 256 l 25
 128 256 l 25
448 192 m 25
 448 256 l 25
 320 256 l 25
 320 192 l 25
 448 192 l 25
128 192 m 25
 128 256 l 25
 0 256 l 25
 0 192 l 25
 128 192 l 25
448 128 m 25
 448 192 l 25
 320 192 l 25
 320 128 l 25
 448 128 l 25
128 128 m 25
 128 192 l 25
 0 192 l 25
 0 128 l 25
 128 128 l 25
448 64 m 25
 448 128 l 25
 320 128 l 25
 320 64 l 25
 448 64 l 25
128 64 m 25
 128 128 l 25
 0 128 l 25
 0 64 l 25
 128 64 l 25
EndSplineSet
EndChar
StartChar: 00C2
Encoding: 194 194 157
Width: 512
Flags: HW
TeX: 0 0 0 0
Fore
320 832 m 25
 320 896 l 25
 128 896 l 25
 128 832 l 25
 320 832 l 25
384 768 m 25
 384 832 l 25
 256 832 l 25
 256 768 l 25
 384 768 l 25
192 768 m 25
 192 832 l 25
 64 832 l 25
 64 768 l 25
 192 768 l 25
256 640 m 25
 256 704 l 25
 192 704 l 25
 192 640 l 25
 256 640 l 25
320 576 m 25
 320 640 l 25
 128 640 l 25
 128 576 l 25
 320 576 l 25
384 512 m 25
 384 576 l 25
 256 576 l 25
 256 512 l 25
 384 512 l 25
192 512 m 25
 192 576 l 25
 64 576 l 25
 64 512 l 25
 192 512 l 25
448 448 m 25
 448 512 l 25
 320 512 l 25
 320 448 l 25
 448 448 l 25
128 448 m 25
 128 512 l 25
 0 512 l 25
 0 448 l 25
 128 448 l 25
448 384 m 25
 448 448 l 25
 320 448 l 25
 320 384 l 25
 448 384 l 25
128 384 m 25
 128 448 l 25
 0 448 l 25
 0 384 l 25
 128 384 l 25
448 320 m 25
 448 384 l 25
 0 384 l 25
 0 320 l 25
 448 320 l 25
448 256 m 25
 448 320 l 25
 320 320 l 25
 320 256 l 25
 448 256 l 25
128 256 m 25
 128 320 l 25
 0 320 l 25
 0 256 l 25
 128 256 l 25
448 192 m 25
 448 256 l 25
 320 256 l 25
 320 192 l 25
 448 192 l 25
128 192 m 25
 128 256 l 25
 0 256 l 25
 0 192 l 25
 128 192 l 25
448 128 m 25
 448 192 l 25
 320 192 l 25
 320 128 l 25
 448 128 l 25
128 128 m 25
 128 192 l 25
 0 192 l 25
 0 128 l 25
 128 128 l 25
448 64 m 25
 448 128 l 25
 320 128 l 25
 320 64 l 25
 448 64 l 25
128 64 m 25
 128 128 l 25
 0 128 l 25
 0 64 l 25
 128 64 l 25
EndSplineSet
EndChar
StartChar: 00C3
Encoding: 195 195 158
Width: 512
Flags: HW
TeX: 0 0 0 0
Fore
448 832 m 25
 448 896 l 25
 320 896 l 25
 320 832 l 25
 448 832 l 25
256 832 m 25
 256 896 l 25
 64 896 l 25
 64 832 l 25
 256 832 l 25
384 768 m 25
 384 832 l 25
 192 832 l 25
 192 768 l 25
 384 768 l 25
128 768 m 25
 128 832 l 25
 0 832 l 25
 0 768 l 25
 128 768 l 25
256 640 m 25
 256 704 l 25
 192 704 l 25
 192 640 l 25
 256 640 l 25
320 576 m 25
 320 640 l 25
 128 640 l 25
 128 576 l 25
 320 576 l 25
384 512 m 25
 384 576 l 25
 256 576 l 25
 256 512 l 25
 384 512 l 25
192 512 m 25
 192 576 l 25
 64 576 l 25
 64 512 l 25
 192 512 l 25
448 448 m 25
 448 512 l 25
 320 512 l 25
 320 448 l 25
 448 448 l 25
128 448 m 25
 128 512 l 25
 0 512 l 25
 0 448 l 25
 128 448 l 25
448 384 m 25
 448 448 l 25
 320 448 l 25
 320 384 l 25
 448 384 l 25
128 384 m 25
 128 448 l 25
 0 448 l 25
 0 384 l 25
 128 384 l 25
448 320 m 25
 448 384 l 25
 0 384 l 25
 0 320 l 25
 448 320 l 25
448 256 m 25
 448 320 l 25
 320 320 l 25
 320 256 l 25
 448 256 l 25
128 256 m 25
 128 320 l 25
 0 320 l 25
 0 256 l 25
 128 256 l 25
448 192 m 25
 448 256 l 25
 320 256 l 25
 320 192 l 25
 448 192 l 25
128 192 m 25
 128 256 l 25
 0 256 l 25
 0 192 l 25
 128 192 l 25
448 128 m 25
 448 192 l 25
 320 192 l 25
 320 128 l 25
 448 128 l 25
128 128 m 25
 128 192 l 25
 0 192 l 25
 0 128 l 25
 128 128 l 25
448 64 m 25
 448 128 l 25
 320 128 l 25
 320 64 l 25
 448 64 l 25
128 64 m 25
 128 128 l 25
 0 128 l 25
 0 64 l 25
 128 64 l 25
EndSplineSet
EndChar
StartChar: 00C4
Encoding: 196 196 159
Width: 512
Flags: HW
TeX: 0 0 0 0
Fore
448 768 m 25
 448 832 l 25
 320 832 l 25
 320 768 l 25
 448 768 l 25
128 768 m 25
 128 832 l 25
 0 832 l 25
 0 768 l 25
 128 768 l 25
256 640 m 25
 256 704 l 25
 192 704 l 25
 192 640 l 25
 256 640 l 25
320 576 m 25
 320 640 l 25
 128 640 l 25
 128 576 l 25
 320 576 l 25
384 512 m 25
 384 576 l 25
 256 576 l 25
 256 512 l 25
 384 512 l 25
192 512 m 25
 192 576 l 25
 64 576 l 25
 64 512 l 25
 192 512 l 25
448 448 m 25
 448 512 l 25
 320 512 l 25
 320 448 l 25
 448 448 l 25
128 448 m 25
 128 512 l 25
 0 512 l 25
 0 448 l 25
 128 448 l 25
448 384 m 25
 448 448 l 25
 320 448 l 25
 320 384 l 25
 448 384 l 25
128 384 m 25
 128 448 l 25
 0 448 l 25
 0 384 l 25
 128 384 l 25
448 320 m 25
 448 384 l 25
 0 384 l 25
 0 320 l 25
 448 320 l 25
448 256 m 25
 448 320 l 25
 320 320 l 25
 320 256 l 25
 448 256 l 25
128 256 m 25
 128 320 l 25
 0 320 l 25
 0 256 l 25
 128 256 l 25
448 192 m 25
 448 256 l 25
 320 256 l 25
 320 192 l 25
 448 192 l 25
128 192 m 25
 128 256 l 25
 0 256 l 25
 0 192 l 25
 128 192 l 25
448 128 m 25
 448 192 l 25
 320 192 l 25
 320 128 l 25
 448 128 l 25
128 128 m 25
 128 192 l 25
 0 192 l 25
 0 128 l 25
 128 128 l 25
448 64 m 25
 448 128 l 25
 320 128 l 25
 320 64 l 25
 448 64 l 25
128 64 m 25
 128 128 l 25
 0 128 l 25
 0 64 l 25
 128 64 l 25
EndSplineSet
EndChar
StartChar: 00C5
Encoding: 197 197 160
Width: 512
Flags: HW
TeX: 0 0 0 0
Fore
320 832 m 25
 320 896 l 25
 128 896 l 25
 128 832 l 25
 320 832 l 25
384 768 m 25
 384 832 l 25
 256 832 l 25
 256 768 l 25
 384 768 l 25
192 768 m 25
 192 832 l 25
 64 832 l 25
 64 768 l 25
 192 768 l 25
320 704 m 25
 320 768 l 25
 128 768 l 25
 128 704 l 25
 320 704 l 25
256 640 m 25
 256 704 l 25
 192 704 l 25
 192 640 l 25
 256 640 l 25
320 576 m 25
 320 640 l 25
 128 640 l 25
 128 576 l 25
 320 576 l 25
384 512 m 25
 384 576 l 25
 256 576 l 25
 256 512 l 25
 384 512 l 25
192 512 m 25
 192 576 l 25
 64 576 l 25
 64 512 l 25
 192 512 l 25
448 448 m 25
 448 512 l 25
 320 512 l 25
 320 448 l 25
 448 448 l 25
128 448 m 25
 128 512 l 25
 0 512 l 25
 0 448 l 25
 128 448 l 25
448 384 m 25
 448 448 l 25
 320 448 l 25
 320 384 l 25
 448 384 l 25
128 384 m 25
 128 448 l 25
 0 448 l 25
 0 384 l 25
 128 384 l 25
448 320 m 25
 448 384 l 25
 0 384 l 25
 0 320 l 25
 448 320 l 25
448 256 m 25
 448 320 l 25
 320 320 l 25
 320 256 l 25
 448 256 l 25
128 256 m 25
 128 320 l 25
 0 320 l 25
 0 256 l 25
 128 256 l 25
448 192 m 25
 448 256 l 25
 320 256 l 25
 320 192 l 25
 448 192 l 25
128 192 m 25
 128 256 l 25
 0 256 l 25
 0 192 l 25
 128 192 l 25
448 128 m 25
 448 192 l 25
 320 192 l 25
 320 128 l 25
 448 128 l 25
128 128 m 25
 128 192 l 25
 0 192 l 25
 0 128 l 25
 128 128 l 25
448 64 m 25
 448 128 l 25
 320 128 l 25
 320 64 l 25
 448 64 l 25
128 64 m 25
 128 128 l 25
 0 128 l 25
 0 64 l 25
 128 64 l 25
EndSplineSet
EndChar
StartChar: 00C6
Encoding: 198 198 161
Width: 512
Flags: HW
TeX: 0 0 0 0
Fore
448 640 m 25
 448 704 l 25
 128 704 l 25
 128 640 l 25
 448 640 l 25
384 576 m 25
 384 640 l 25
 256 640 l 25
 256 576 l 25
 384 576 l 25
192 576 m 25
 192 640 l 25
 64 640 l 25
 64 576 l 25
 192 576 l 25
384 512 m 25
 384 576 l 25
 256 576 l 25
 256 512 l 25
 384 512 l 25
128 512 m 25
 128 576 l 25
 0 576 l 25
 0 512 l 25
 128 512 l 25
384 448 m 25
 384 512 l 25
 256 512 l 25
 256 448 l 25
 384 448 l 25
128 448 m 25
 128 512 l 25
 0 512 l 25
 0 448 l 25
 128 448 l 25
448 384 m 25
 448 448 l 25
 0 448 l 25
 0 384 l 25
 448 384 l 25
384 320 m 25
 384 384 l 25
 256 384 l 25
 256 320 l 25
 384 320 l 25
128 320 m 25
 128 384 l 25
 0 384 l 25
 0 320 l 25
 128 320 l 25
384 256 m 25
 384 320 l 25
 256 320 l 25
 256 256 l 25
 384 256 l 25
128 256 m 25
 128 320 l 25
 0 320 l 25
 0 256 l 25
 128 256 l 25
384 192 m 25
 384 256 l 25
 256 256 l 25
 256 192 l 25
 384 192 l 25
128 192 m 25
 128 256 l 25
 0 256 l 25
 0 192 l 25
 128 192 l 25
384 128 m 25
 384 192 l 25
 256 192 l 25
 256 128 l 25
 384 128 l 25
128 128 m 25
 128 192 l 25
 0 192 l 25
 0 128 l 25
 128 128 l 25
448 64 m 25
 448 128 l 25
 256 128 l 25
 256 64 l 25
 448 64 l 25
128 64 m 25
 128 128 l 25
 0 128 l 25
 0 64 l 25
 128 64 l 25
EndSplineSet
EndChar
StartChar: 00C7
Encoding: 199 199 162
Width: 512
Flags: HW
TeX: 0 0 0 0
Fore
384 640 m 25
 384 704 l 25
 128 704 l 25
 128 640 l 25
 384 640 l 25
448 576 m 25
 448 640 l 25
 320 640 l 25
 320 576 l 25
 448 576 l 25
192 576 m 25
 192 640 l 25
 64 640 l 25
 64 576 l 25
 192 576 l 25
448 512 m 25
 448 576 l 25
 384 576 l 25
 384 512 l 25
 448 512 l 25
128 512 m 25
 128 576 l 25
 0 576 l 25
 0 512 l 25
 128 512 l 25
128 448 m 25
 128 512 l 25
 0 512 l 25
 0 448 l 25
 128 448 l 25
128 384 m 25
 128 448 l 25
 0 448 l 25
 0 384 l 25
 128 384 l 25
128 320 m 25
 128 384 l 25
 0 384 l 25
 0 320 l 25
 128 320 l 25
128 256 m 25
 128 320 l 25
 0 320 l 25
 0 256 l 25
 128 256 l 25
448 192 m 25
 448 256 l 25
 384 256 l 25
 384 192 l 25
 448 192 l 25
128 192 m 25
 128 256 l 25
 0 256 l 25
 0 192 l 25
 128 192 l 25
448 128 m 25
 448 192 l 25
 320 192 l 25
 320 128 l 25
 448 128 l 25
192 128 m 25
 192 192 l 25
 64 192 l 25
 64 128 l 25
 192 128 l 25
384 64 m 25
 384 128 l 25
 128 128 l 25
 128 64 l 25
 384 64 l 25
320 0 m 25
 320 64 l 25
 192 64 l 25
 192 0 l 25
 320 0 l 25
384 -64 m 25
 384 0 l 25
 256 0 l 25
 256 -64 l 25
 384 -64 l 25
320 -128 m 25
 320 -64 l 25
 64 -64 l 25
 64 -128 l 25
 320 -128 l 25
EndSplineSet
EndChar
StartChar: 00C8
Encoding: 200 200 163
Width: 512
Flags: HW
TeX: 0 0 0 0
Fore
256 832 m 25
 256 896 l 25
 128 896 l 25
 128 832 l 25
 256 832 l 25
320 768 m 25
 320 832 l 25
 192 832 l 25
 192 768 l 25
 320 768 l 25
448 640 m 25
 448 704 l 25
 0 704 l 25
 0 640 l 25
 448 640 l 25
448 576 m 25
 448 640 l 25
 320 640 l 25
 320 576 l 25
 448 576 l 25
192 576 m 25
 192 640 l 25
 64 640 l 25
 64 576 l 25
 192 576 l 25
448 512 m 25
 448 576 l 25
 384 576 l 25
 384 512 l 25
 448 512 l 25
192 512 m 25
 192 576 l 25
 64 576 l 25
 64 512 l 25
 192 512 l 25
320 448 m 25
 320 512 l 25
 256 512 l 25
 256 448 l 25
 320 448 l 25
192 448 m 25
 192 512 l 25
 64 512 l 25
 64 448 l 25
 192 448 l 25
320 384 m 25
 320 448 l 25
 64 448 l 25
 64 384 l 25
 320 384 l 25
320 320 m 25
 320 384 l 25
 256 384 l 25
 256 320 l 25
 320 320 l 25
192 320 m 25
 192 384 l 25
 64 384 l 25
 64 320 l 25
 192 320 l 25
192 256 m 25
 192 320 l 25
 64 320 l 25
 64 256 l 25
 192 256 l 25
448 192 m 25
 448 256 l 25
 384 256 l 25
 384 192 l 25
 448 192 l 25
192 192 m 25
 192 256 l 25
 64 256 l 25
 64 192 l 25
 192 192 l 25
448 128 m 25
 448 192 l 25
 320 192 l 25
 320 128 l 25
 448 128 l 25
192 128 m 25
 192 192 l 25
 64 192 l 25
 64 128 l 25
 192 128 l 25
448 64 m 25
 448 128 l 25
 0 128 l 25
 0 64 l 25
 448 64 l 25
EndSplineSet
EndChar
StartChar: 00C9
Encoding: 201 201 164
Width: 512
Flags: HW
TeX: 0 0 0 0
Fore
384 832 m 25
 384 896 l 25
 256 896 l 25
 256 832 l 25
 384 832 l 25
320 768 m 25
 320 832 l 25
 192 832 l 25
 192 768 l 25
 320 768 l 25
448 640 m 25
 448 704 l 25
 0 704 l 25
 0 640 l 25
 448 640 l 25
448 576 m 25
 448 640 l 25
 320 640 l 25
 320 576 l 25
 448 576 l 25
192 576 m 25
 192 640 l 25
 64 640 l 25
 64 576 l 25
 192 576 l 25
448 512 m 25
 448 576 l 25
 384 576 l 25
 384 512 l 25
 448 512 l 25
192 512 m 25
 192 576 l 25
 64 576 l 25
 64 512 l 25
 192 512 l 25
320 448 m 25
 320 512 l 25
 256 512 l 25
 256 448 l 25
 320 448 l 25
192 448 m 25
 192 512 l 25
 64 512 l 25
 64 448 l 25
 192 448 l 25
320 384 m 25
 320 448 l 25
 64 448 l 25
 64 384 l 25
 320 384 l 25
320 320 m 25
 320 384 l 25
 256 384 l 25
 256 320 l 25
 320 320 l 25
192 320 m 25
 192 384 l 25
 64 384 l 25
 64 320 l 25
 192 320 l 25
192 256 m 25
 192 320 l 25
 64 320 l 25
 64 256 l 25
 192 256 l 25
448 192 m 25
 448 256 l 25
 384 256 l 25
 384 192 l 25
 448 192 l 25
192 192 m 25
 192 256 l 25
 64 256 l 25
 64 192 l 25
 192 192 l 25
448 128 m 25
 448 192 l 25
 320 192 l 25
 320 128 l 25
 448 128 l 25
192 128 m 25
 192 192 l 25
 64 192 l 25
 64 128 l 25
 192 128 l 25
448 64 m 25
 448 128 l 25
 0 128 l 25
 0 64 l 25
 448 64 l 25
EndSplineSet
EndChar
StartChar: 00CA
Encoding: 202 202 165
Width: 512
Flags: HW
TeX: 0 0 0 0
Fore
320 832 m 25
 320 896 l 25
 128 896 l 25
 128 832 l 25
 320 832 l 25
384 768 m 25
 384 832 l 25
 256 832 l 25
 256 768 l 25
 384 768 l 25
192 768 m 25
 192 832 l 25
 64 832 l 25
 64 768 l 25
 192 768 l 25
448 640 m 25
 448 704 l 25
 0 704 l 25
 0 640 l 25
 448 640 l 25
448 576 m 25
 448 640 l 25
 320 640 l 25
 320 576 l 25
 448 576 l 25
192 576 m 25
 192 640 l 25
 64 640 l 25
 64 576 l 25
 192 576 l 25
448 512 m 25
 448 576 l 25
 384 576 l 25
 384 512 l 25
 448 512 l 25
192 512 m 25
 192 576 l 25
 64 576 l 25
 64 512 l 25
 192 512 l 25
320 448 m 25
 320 512 l 25
 256 512 l 25
 256 448 l 25
 320 448 l 25
192 448 m 25
 192 512 l 25
 64 512 l 25
 64 448 l 25
 192 448 l 25
320 384 m 25
 320 448 l 25
 64 448 l 25
 64 384 l 25
 320 384 l 25
320 320 m 25
 320 384 l 25
 256 384 l 25
 256 320 l 25
 320 320 l 25
192 320 m 25
 192 384 l 25
 64 384 l 25
 64 320 l 25
 192 320 l 25
192 256 m 25
 192 320 l 25
 64 320 l 25
 64 256 l 25
 192 256 l 25
448 192 m 25
 448 256 l 25
 384 256 l 25
 384 192 l 25
 448 192 l 25
192 192 m 25
 192 256 l 25
 64 256 l 25
 64 192 l 25
 192 192 l 25
448 128 m 25
 448 192 l 25
 320 192 l 25
 320 128 l 25
 448 128 l 25
192 128 m 25
 192 192 l 25
 64 192 l 25
 64 128 l 25
 192 128 l 25
448 64 m 25
 448 128 l 25
 0 128 l 25
 0 64 l 25
 448 64 l 25
EndSplineSet
EndChar
StartChar: 00CB
Encoding: 203 203 166
Width: 512
Flags: HW
TeX: 0 0 0 0
Fore
448 768 m 25
 448 832 l 25
 320 832 l 25
 320 768 l 25
 448 768 l 25
128 768 m 25
 128 832 l 25
 0 832 l 25
 0 768 l 25
 128 768 l 25
448 640 m 25
 448 704 l 25
 0 704 l 25
 0 640 l 25
 448 640 l 25
448 576 m 25
 448 640 l 25
 320 640 l 25
 320 576 l 25
 448 576 l 25
192 576 m 25
 192 640 l 25
 64 640 l 25
 64 576 l 25
 192 576 l 25
448 512 m 25
 448 576 l 25
 384 576 l 25
 384 512 l 25
 448 512 l 25
192 512 m 25
 192 576 l 25
 64 576 l 25
 64 512 l 25
 192 512 l 25
320 448 m 25
 320 512 l 25
 256 512 l 25
 256 448 l 25
 320 448 l 25
192 448 m 25
 192 512 l 25
 64 512 l 25
 64 448 l 25
 192 448 l 25
320 384 m 25
 320 448 l 25
 64 448 l 25
 64 384 l 25
 320 384 l 25
320 320 m 25
 320 384 l 25
 256 384 l 25
 256 320 l 25
 320 320 l 25
192 320 m 25
 192 384 l 25
 64 384 l 25
 64 320 l 25
 192 320 l 25
192 256 m 25
 192 320 l 25
 64 320 l 25
 64 256 l 25
 192 256 l 25
448 192 m 25
 448 256 l 25
 384 256 l 25
 384 192 l 25
 448 192 l 25
192 192 m 25
 192 256 l 25
 64 256 l 25
 64 192 l 25
 192 192 l 25
448 128 m 25
 448 192 l 25
 320 192 l 25
 320 128 l 25
 448 128 l 25
192 128 m 25
 192 192 l 25
 64 192 l 25
 64 128 l 25
 192 128 l 25
448 64 m 25
 448 128 l 25
 0 128 l 25
 0 64 l 25
 448 64 l 25
EndSplineSet
EndChar
StartChar: 00CC
Encoding: 204 204 167
Width: 512
Flags: HW
TeX: 0 0 0 0
Fore
256 832 m 25
 256 896 l 25
 128 896 l 25
 128 832 l 25
 256 832 l 25
320 768 m 25
 320 832 l 25
 192 832 l 25
 192 768 l 25
 320 768 l 25
384 640 m 25
 384 704 l 25
 128 704 l 25
 128 640 l 25
 384 640 l 25
320 576 m 25
 320 640 l 25
 192 640 l 25
 192 576 l 25
 320 576 l 25
320 512 m 25
 320 576 l 25
 192 576 l 25
 192 512 l 25
 320 512 l 25
320 448 m 25
 320 512 l 25
 192 512 l 25
 192 448 l 25
 320 448 l 25
320 384 m 25
 320 448 l 25
 192 448 l 25
 192 384 l 25
 320 384 l 25
320 320 m 25
 320 384 l 25
 192 384 l 25
 192 320 l 25
 320 320 l 25
320 256 m 25
 320 320 l 25
 192 320 l 25
 192 256 l 25
 320 256 l 25
320 192 m 25
 320 256 l 25
 192 256 l 25
 192 192 l 25
 320 192 l 25
320 128 m 25
 320 192 l 25
 192 192 l 25
 192 128 l 25
 320 128 l 25
384 64 m 25
 384 128 l 25
 128 128 l 25
 128 64 l 25
 384 64 l 25
EndSplineSet
EndChar
StartChar: 00CD
Encoding: 205 205 168
Width: 512
Flags: HW
TeX: 0 0 0 0
Fore
384 832 m 25
 384 896 l 25
 256 896 l 25
 256 832 l 25
 384 832 l 25
320 768 m 25
 320 832 l 25
 192 832 l 25
 192 768 l 25
 320 768 l 25
384 640 m 25
 384 704 l 25
 128 704 l 25
 128 640 l 25
 384 640 l 25
320 576 m 25
 320 640 l 25
 192 640 l 25
 192 576 l 25
 320 576 l 25
320 512 m 25
 320 576 l 25
 192 576 l 25
 192 512 l 25
 320 512 l 25
320 448 m 25
 320 512 l 25
 192 512 l 25
 192 448 l 25
 320 448 l 25
320 384 m 25
 320 448 l 25
 192 448 l 25
 192 384 l 25
 320 384 l 25
320 320 m 25
 320 384 l 25
 192 384 l 25
 192 320 l 25
 320 320 l 25
320 256 m 25
 320 320 l 25
 192 320 l 25
 192 256 l 25
 320 256 l 25
320 192 m 25
 320 256 l 25
 192 256 l 25
 192 192 l 25
 320 192 l 25
320 128 m 25
 320 192 l 25
 192 192 l 25
 192 128 l 25
 320 128 l 25
384 64 m 25
 384 128 l 25
 128 128 l 25
 128 64 l 25
 384 64 l 25
EndSplineSet
EndChar
StartChar: 00CE
Encoding: 206 206 169
Width: 512
Flags: HW
TeX: 0 0 0 0
Fore
384 832 m 25
 384 896 l 25
 128 896 l 25
 128 832 l 25
 384 832 l 25
448 768 m 25
 448 832 l 25
 320 832 l 25
 320 768 l 25
 448 768 l 25
192 768 m 25
 192 832 l 25
 64 832 l 25
 64 768 l 25
 192 768 l 25
384 640 m 25
 384 704 l 25
 128 704 l 25
 128 640 l 25
 384 640 l 25
320 576 m 25
 320 640 l 25
 192 640 l 25
 192 576 l 25
 320 576 l 25
320 512 m 25
 320 576 l 25
 192 576 l 25
 192 512 l 25
 320 512 l 25
320 448 m 25
 320 512 l 25
 192 512 l 25
 192 448 l 25
 320 448 l 25
320 384 m 25
 320 448 l 25
 192 448 l 25
 192 384 l 25
 320 384 l 25
320 320 m 25
 320 384 l 25
 192 384 l 25
 192 320 l 25
 320 320 l 25
320 256 m 25
 320 320 l 25
 192 320 l 25
 192 256 l 25
 320 256 l 25
320 192 m 25
 320 256 l 25
 192 256 l 25
 192 192 l 25
 320 192 l 25
320 128 m 25
 320 192 l 25
 192 192 l 25
 192 128 l 25
 320 128 l 25
384 64 m 25
 384 128 l 25
 128 128 l 25
 128 64 l 25
 384 64 l 25
EndSplineSet
EndChar
StartChar: 00CF
Encoding: 207 207 170
Width: 512
Flags: HW
TeX: 0 0 0 0
Fore
448 768 m 25
 448 832 l 25
 320 832 l 25
 320 768 l 25
 448 768 l 25
192 768 m 25
 192 832 l 25
 64 832 l 25
 64 768 l 25
 192 768 l 25
384 640 m 25
 384 704 l 25
 128 704 l 25
 128 640 l 25
 384 640 l 25
320 576 m 25
 320 640 l 25
 192 640 l 25
 192 576 l 25
 320 576 l 25
320 512 m 25
 320 576 l 25
 192 576 l 25
 192 512 l 25
 320 512 l 25
320 448 m 25
 320 512 l 25
 192 512 l 25
 192 448 l 25
 320 448 l 25
320 384 m 25
 320 448 l 25
 192 448 l 25
 192 384 l 25
 320 384 l 25
320 320 m 25
 320 384 l 25
 192 384 l 25
 192 320 l 25
 320 320 l 25
320 256 m 25
 320 320 l 25
 192 320 l 25
 192 256 l 25
 320 256 l 25
320 192 m 25
 320 256 l 25
 192 256 l 25
 192 192 l 25
 320 192 l 25
320 128 m 25
 320 192 l 25
 192 192 l 25
 192 128 l 25
 320 128 l 25
384 64 m 25
 384 128 l 25
 128 128 l 25
 128 64 l 25
 384 64 l 25
EndSplineSet
EndChar
StartChar: 00D0
Encoding: 208 208 171
Width: 512
Flags: HW
TeX: 0 0 0 0
Fore
320 640 m 25
 320 704 l 25
 0 704 l 25
 0 640 l 25
 320 640 l 25
384 576 m 25
 384 640 l 25
 256 640 l 25
 256 576 l 25
 384 576 l 25
192 576 m 25
 192 640 l 25
 64 640 l 25
 64 576 l 25
 192 576 l 25
448 512 m 25
 448 576 l 25
 320 576 l 25
 320 512 l 25
 448 512 l 25
192 512 m 25
 192 576 l 25
 64 576 l 25
 64 512 l 25
 192 512 l 25
448 448 m 25
 448 512 l 25
 320 512 l 25
 320 448 l 25
 448 448 l 25
192 448 m 25
 192 512 l 25
 64 512 l 25
 64 448 l 25
 192 448 l 25
448 384 m 25
 448 448 l 25
 320 448 l 25
 320 384 l 25
 448 384 l 25
256 384 m 25
 256 448 l 25
 0 448 l 25
 0 384 l 25
 256 384 l 25
448 320 m 25
 448 384 l 25
 320 384 l 25
 320 320 l 25
 448 320 l 25
192 320 m 25
 192 384 l 25
 64 384 l 25
 64 320 l 25
 192 320 l 25
448 256 m 25
 448 320 l 25
 320 320 l 25
 320 256 l 25
 448 256 l 25
192 256 m 25
 192 320 l 25
 64 320 l 25
 64 256 l 25
 192 256 l 25
448 192 m 25
 448 256 l 25
 320 256 l 25
 320 192 l 25
 448 192 l 25
192 192 m 25
 192 256 l 25
 64 256 l 25
 64 192 l 25
 192 192 l 25
384 128 m 25
 384 192 l 25
 256 192 l 25
 256 128 l 25
 384 128 l 25
192 128 m 25
 192 192 l 25
 64 192 l 25
 64 128 l 25
 192 128 l 25
320 64 m 25
 320 128 l 25
 0 128 l 25
 0 64 l 25
 320 64 l 25
EndSplineSet
EndChar
StartChar: 00D1
Encoding: 209 209 172
Width: 512
Flags: HW
TeX: 0 0 0 0
Fore
448 832 m 25
 448 896 l 25
 320 896 l 25
 320 832 l 25
 448 832 l 25
256 832 m 25
 256 896 l 25
 64 896 l 25
 64 832 l 25
 256 832 l 25
384 768 m 25
 384 832 l 25
 192 832 l 25
 192 768 l 25
 384 768 l 25
128 768 m 25
 128 832 l 25
 0 832 l 25
 0 768 l 25
 128 768 l 25
448 640 m 25
 448 704 l 25
 320 704 l 25
 320 640 l 25
 448 640 l 25
128 640 m 25
 128 704 l 25
 0 704 l 25
 0 640 l 25
 128 640 l 25
448 576 m 25
 448 640 l 25
 320 640 l 25
 320 576 l 25
 448 576 l 25
192 576 m 25
 192 640 l 25
 0 640 l 25
 0 576 l 25
 192 576 l 25
448 512 m 25
 448 576 l 25
 320 576 l 25
 320 512 l 25
 448 512 l 25
256 512 m 25
 256 576 l 25
 0 576 l 25
 0 512 l 25
 256 512 l 25
448 448 m 25
 448 512 l 25
 0 512 l 25
 0 448 l 25
 448 448 l 25
448 384 m 25
 448 448 l 25
 192 448 l 25
 192 384 l 25
 448 384 l 25
128 384 m 25
 128 448 l 25
 0 448 l 25
 0 384 l 25
 128 384 l 25
448 320 m 25
 448 384 l 25
 256 384 l 25
 256 320 l 25
 448 320 l 25
128 320 m 25
 128 384 l 25
 0 384 l 25
 0 320 l 25
 128 320 l 25
448 256 m 25
 448 320 l 25
 320 320 l 25
 320 256 l 25
 448 256 l 25
128 256 m 25
 128 320 l 25
 0 320 l 25
 0 256 l 25
 128 256 l 25
448 192 m 25
 448 256 l 25
 320 256 l 25
 320 192 l 25
 448 192 l 25
128 192 m 25
 128 256 l 25
 0 256 l 25
 0 192 l 25
 128 192 l 25
448 128 m 25
 448 192 l 25
 320 192 l 25
 320 128 l 25
 448 128 l 25
128 128 m 25
 128 192 l 25
 0 192 l 25
 0 128 l 25
 128 128 l 25
448 64 m 25
 448 128 l 25
 320 128 l 25
 320 64 l 25
 448 64 l 25
128 64 m 25
 128 128 l 25
 0 128 l 25
 0 64 l 25
 128 64 l 25
EndSplineSet
EndChar
StartChar: 00D2
Encoding: 210 210 173
Width: 512
Flags: HW
TeX: 0 0 0 0
Fore
256 832 m 25
 256 896 l 25
 128 896 l 25
 128 832 l 25
 256 832 l 25
320 768 m 25
 320 832 l 25
 192 832 l 25
 192 768 l 25
 320 768 l 25
384 640 m 25
 384 704 l 25
 64 704 l 25
 64 640 l 25
 384 640 l 25
448 576 m 25
 448 640 l 25
 320 640 l 25
 320 576 l 25
 448 576 l 25
128 576 m 25
 128 640 l 25
 0 640 l 25
 0 576 l 25
 128 576 l 25
448 512 m 25
 448 576 l 25
 320 576 l 25
 320 512 l 25
 448 512 l 25
128 512 m 25
 128 576 l 25
 0 576 l 25
 0 512 l 25
 128 512 l 25
448 448 m 25
 448 512 l 25
 320 512 l 25
 320 448 l 25
 448 448 l 25
128 448 m 25
 128 512 l 25
 0 512 l 25
 0 448 l 25
 128 448 l 25
448 384 m 25
 448 448 l 25
 320 448 l 25
 320 384 l 25
 448 384 l 25
128 384 m 25
 128 448 l 25
 0 448 l 25
 0 384 l 25
 128 384 l 25
448 320 m 25
 448 384 l 25
 320 384 l 25
 320 320 l 25
 448 320 l 25
128 320 m 25
 128 384 l 25
 0 384 l 25
 0 320 l 25
 128 320 l 25
448 256 m 25
 448 320 l 25
 320 320 l 25
 320 256 l 25
 448 256 l 25
128 256 m 25
 128 320 l 25
 0 320 l 25
 0 256 l 25
 128 256 l 25
448 192 m 25
 448 256 l 25
 320 256 l 25
 320 192 l 25
 448 192 l 25
128 192 m 25
 128 256 l 25
 0 256 l 25
 0 192 l 25
 128 192 l 25
448 128 m 25
 448 192 l 25
 320 192 l 25
 320 128 l 25
 448 128 l 25
128 128 m 25
 128 192 l 25
 0 192 l 25
 0 128 l 25
 128 128 l 25
384 64 m 25
 384 128 l 25
 64 128 l 25
 64 64 l 25
 384 64 l 25
EndSplineSet
EndChar
StartChar: 00D3
Encoding: 211 211 174
Width: 512
Flags: HW
TeX: 0 0 0 0
Fore
384 832 m 25
 384 896 l 25
 256 896 l 25
 256 832 l 25
 384 832 l 25
320 768 m 25
 320 832 l 25
 192 832 l 25
 192 768 l 25
 320 768 l 25
384 640 m 25
 384 704 l 25
 64 704 l 25
 64 640 l 25
 384 640 l 25
448 576 m 25
 448 640 l 25
 320 640 l 25
 320 576 l 25
 448 576 l 25
128 576 m 25
 128 640 l 25
 0 640 l 25
 0 576 l 25
 128 576 l 25
448 512 m 25
 448 576 l 25
 320 576 l 25
 320 512 l 25
 448 512 l 25
128 512 m 25
 128 576 l 25
 0 576 l 25
 0 512 l 25
 128 512 l 25
448 448 m 25
 448 512 l 25
 320 512 l 25
 320 448 l 25
 448 448 l 25
128 448 m 25
 128 512 l 25
 0 512 l 25
 0 448 l 25
 128 448 l 25
448 384 m 25
 448 448 l 25
 320 448 l 25
 320 384 l 25
 448 384 l 25
128 384 m 25
 128 448 l 25
 0 448 l 25
 0 384 l 25
 128 384 l 25
448 320 m 25
 448 384 l 25
 320 384 l 25
 320 320 l 25
 448 320 l 25
128 320 m 25
 128 384 l 25
 0 384 l 25
 0 320 l 25
 128 320 l 25
448 256 m 25
 448 320 l 25
 320 320 l 25
 320 256 l 25
 448 256 l 25
128 256 m 25
 128 320 l 25
 0 320 l 25
 0 256 l 25
 128 256 l 25
448 192 m 25
 448 256 l 25
 320 256 l 25
 320 192 l 25
 448 192 l 25
128 192 m 25
 128 256 l 25
 0 256 l 25
 0 192 l 25
 128 192 l 25
448 128 m 25
 448 192 l 25
 320 192 l 25
 320 128 l 25
 448 128 l 25
128 128 m 25
 128 192 l 25
 0 192 l 25
 0 128 l 25
 128 128 l 25
384 64 m 25
 384 128 l 25
 64 128 l 25
 64 64 l 25
 384 64 l 25
EndSplineSet
EndChar
StartChar: 00D4
Encoding: 212 212 175
Width: 512
Flags: HW
TeX: 0 0 0 0
Fore
320 832 m 25
 320 896 l 25
 128 896 l 25
 128 832 l 25
 320 832 l 25
384 768 m 25
 384 832 l 25
 256 832 l 25
 256 768 l 25
 384 768 l 25
192 768 m 25
 192 832 l 25
 64 832 l 25
 64 768 l 25
 192 768 l 25
384 640 m 25
 384 704 l 25
 64 704 l 25
 64 640 l 25
 384 640 l 25
448 576 m 25
 448 640 l 25
 320 640 l 25
 320 576 l 25
 448 576 l 25
128 576 m 25
 128 640 l 25
 0 640 l 25
 0 576 l 25
 128 576 l 25
448 512 m 25
 448 576 l 25
 320 576 l 25
 320 512 l 25
 448 512 l 25
128 512 m 25
 128 576 l 25
 0 576 l 25
 0 512 l 25
 128 512 l 25
448 448 m 25
 448 512 l 25
 320 512 l 25
 320 448 l 25
 448 448 l 25
128 448 m 25
 128 512 l 25
 0 512 l 25
 0 448 l 25
 128 448 l 25
448 384 m 25
 448 448 l 25
 320 448 l 25
 320 384 l 25
 448 384 l 25
128 384 m 25
 128 448 l 25
 0 448 l 25
 0 384 l 25
 128 384 l 25
448 320 m 25
 448 384 l 25
 320 384 l 25
 320 320 l 25
 448 320 l 25
128 320 m 25
 128 384 l 25
 0 384 l 25
 0 320 l 25
 128 320 l 25
448 256 m 25
 448 320 l 25
 320 320 l 25
 320 256 l 25
 448 256 l 25
128 256 m 25
 128 320 l 25
 0 320 l 25
 0 256 l 25
 128 256 l 25
448 192 m 25
 448 256 l 25
 320 256 l 25
 320 192 l 25
 448 192 l 25
128 192 m 25
 128 256 l 25
 0 256 l 25
 0 192 l 25
 128 192 l 25
448 128 m 25
 448 192 l 25
 320 192 l 25
 320 128 l 25
 448 128 l 25
128 128 m 25
 128 192 l 25
 0 192 l 25
 0 128 l 25
 128 128 l 25
384 64 m 25
 384 128 l 25
 64 128 l 25
 64 64 l 25
 384 64 l 25
EndSplineSet
EndChar
StartChar: 00D5
Encoding: 213 213 176
Width: 512
Flags: HW
TeX: 0 0 0 0
Fore
448 832 m 25
 448 896 l 25
 320 896 l 25
 320 832 l 25
 448 832 l 25
256 832 m 25
 256 896 l 25
 64 896 l 25
 64 832 l 25
 256 832 l 25
384 768 m 25
 384 832 l 25
 192 832 l 25
 192 768 l 25
 384 768 l 25
128 768 m 25
 128 832 l 25
 0 832 l 25
 0 768 l 25
 128 768 l 25
384 640 m 25
 384 704 l 25
 64 704 l 25
 64 640 l 25
 384 640 l 25
448 576 m 25
 448 640 l 25
 320 640 l 25
 320 576 l 25
 448 576 l 25
128 576 m 25
 128 640 l 25
 0 640 l 25
 0 576 l 25
 128 576 l 25
448 512 m 25
 448 576 l 25
 320 576 l 25
 320 512 l 25
 448 512 l 25
128 512 m 25
 128 576 l 25
 0 576 l 25
 0 512 l 25
 128 512 l 25
448 448 m 25
 448 512 l 25
 320 512 l 25
 320 448 l 25
 448 448 l 25
128 448 m 25
 128 512 l 25
 0 512 l 25
 0 448 l 25
 128 448 l 25
448 384 m 25
 448 448 l 25
 320 448 l 25
 320 384 l 25
 448 384 l 25
128 384 m 25
 128 448 l 25
 0 448 l 25
 0 384 l 25
 128 384 l 25
448 320 m 25
 448 384 l 25
 320 384 l 25
 320 320 l 25
 448 320 l 25
128 320 m 25
 128 384 l 25
 0 384 l 25
 0 320 l 25
 128 320 l 25
448 256 m 25
 448 320 l 25
 320 320 l 25
 320 256 l 25
 448 256 l 25
128 256 m 25
 128 320 l 25
 0 320 l 25
 0 256 l 25
 128 256 l 25
448 192 m 25
 448 256 l 25
 320 256 l 25
 320 192 l 25
 448 192 l 25
128 192 m 25
 128 256 l 25
 0 256 l 25
 0 192 l 25
 128 192 l 25
448 128 m 25
 448 192 l 25
 320 192 l 25
 320 128 l 25
 448 128 l 25
128 128 m 25
 128 192 l 25
 0 192 l 25
 0 128 l 25
 128 128 l 25
384 64 m 25
 384 128 l 25
 64 128 l 25
 64 64 l 25
 384 64 l 25
EndSplineSet
EndChar
StartChar: 00D6
Encoding: 214 214 177
Width: 512
Flags: HW
TeX: 0 0 0 0
Fore
448 768 m 25
 448 832 l 25
 320 832 l 25
 320 768 l 25
 448 768 l 25
128 768 m 25
 128 832 l 25
 0 832 l 25
 0 768 l 25
 128 768 l 25
384 640 m 25
 384 704 l 25
 64 704 l 25
 64 640 l 25
 384 640 l 25
448 576 m 25
 448 640 l 25
 320 640 l 25
 320 576 l 25
 448 576 l 25
128 576 m 25
 128 640 l 25
 0 640 l 25
 0 576 l 25
 128 576 l 25
448 512 m 25
 448 576 l 25
 320 576 l 25
 320 512 l 25
 448 512 l 25
128 512 m 25
 128 576 l 25
 0 576 l 25
 0 512 l 25
 128 512 l 25
448 448 m 25
 448 512 l 25
 320 512 l 25
 320 448 l 25
 448 448 l 25
128 448 m 25
 128 512 l 25
 0 512 l 25
 0 448 l 25
 128 448 l 25
448 384 m 25
 448 448 l 25
 320 448 l 25
 320 384 l 25
 448 384 l 25
128 384 m 25
 128 448 l 25
 0 448 l 25
 0 384 l 25
 128 384 l 25
448 320 m 25
 448 384 l 25
 320 384 l 25
 320 320 l 25
 448 320 l 25
128 320 m 25
 128 384 l 25
 0 384 l 25
 0 320 l 25
 128 320 l 25
448 256 m 25
 448 320 l 25
 320 320 l 25
 320 256 l 25
 448 256 l 25
128 256 m 25
 128 320 l 25
 0 320 l 25
 0 256 l 25
 128 256 l 25
448 192 m 25
 448 256 l 25
 320 256 l 25
 320 192 l 25
 448 192 l 25
128 192 m 25
 128 256 l 25
 0 256 l 25
 0 192 l 25
 128 192 l 25
448 128 m 25
 448 192 l 25
 320 192 l 25
 320 128 l 25
 448 128 l 25
128 128 m 25
 128 192 l 25
 0 192 l 25
 0 128 l 25
 128 128 l 25
384 64 m 25
 384 128 l 25
 64 128 l 25
 64 64 l 25
 384 64 l 25
EndSplineSet
EndChar
StartChar: 00D7
Encoding: 215 215 178
Width: 512
Flags: HW
TeX: 0 0 0 0
Fore
448 512 m 25
 448 576 l 25
 320 576 l 25
 320 512 l 25
 448 512 l 25
128 512 m 25
 128 576 l 25
 0 576 l 25
 0 512 l 25
 128 512 l 25
384 448 m 25
 384 512 l 25
 256 512 l 25
 256 448 l 25
 384 448 l 25
192 448 m 25
 192 512 l 25
 64 512 l 25
 64 448 l 25
 192 448 l 25
320 384 m 25
 320 448 l 25
 128 448 l 25
 128 384 l 25
 320 384 l 25
320 320 m 25
 320 384 l 25
 128 384 l 25
 128 320 l 25
 320 320 l 25
384 256 m 25
 384 320 l 25
 256 320 l 25
 256 256 l 25
 384 256 l 25
192 256 m 25
 192 320 l 25
 64 320 l 25
 64 256 l 25
 192 256 l 25
448 192 m 25
 448 256 l 25
 320 256 l 25
 320 192 l 25
 448 192 l 25
128 192 m 25
 128 256 l 25
 0 256 l 25
 0 192 l 25
 128 192 l 25
EndSplineSet
EndChar
StartChar: 00D8
Encoding: 216 216 179
Width: 512
Flags: HW
TeX: 0 0 0 0
Fore
384 704 m 25
 384 768 l 25
 320 768 l 25
 320 704 l 25
 384 704 l 25
384 640 m 25
 384 704 l 25
 64 704 l 25
 64 640 l 25
 384 640 l 25
448 576 m 25
 448 640 l 25
 256 640 l 25
 256 576 l 25
 448 576 l 25
128 576 m 25
 128 640 l 25
 0 640 l 25
 0 576 l 25
 128 576 l 25
448 512 m 25
 448 576 l 25
 256 576 l 25
 256 512 l 25
 448 512 l 25
128 512 m 25
 128 576 l 25
 0 576 l 25
 0 512 l 25
 128 512 l 25
448 448 m 25
 448 512 l 25
 320 512 l 25
 320 448 l 25
 448 448 l 25
256 448 m 25
 256 512 l 25
 192 512 l 25
 192 448 l 25
 256 448 l 25
128 448 m 25
 128 512 l 25
 0 512 l 25
 0 448 l 25
 128 448 l 25
448 384 m 25
 448 448 l 25
 320 448 l 25
 320 384 l 25
 448 384 l 25
256 384 m 25
 256 448 l 25
 192 448 l 25
 192 384 l 25
 256 384 l 25
128 384 m 25
 128 448 l 25
 0 448 l 25
 0 384 l 25
 128 384 l 25
448 320 m 25
 448 384 l 25
 320 384 l 25
 320 320 l 25
 448 320 l 25
256 320 m 25
 256 384 l 25
 192 384 l 25
 192 320 l 25
 256 320 l 25
128 320 m 25
 128 384 l 25
 0 384 l 25
 0 320 l 25
 128 320 l 25
448 256 m 25
 448 320 l 25
 320 320 l 25
 320 256 l 25
 448 256 l 25
256 256 m 25
 256 320 l 25
 192 320 l 25
 192 256 l 25
 256 256 l 25
128 256 m 25
 128 320 l 25
 0 320 l 25
 0 256 l 25
 128 256 l 25
448 192 m 25
 448 256 l 25
 320 256 l 25
 320 192 l 25
 448 192 l 25
192 192 m 25
 192 256 l 25
 0 256 l 25
 0 192 l 25
 192 192 l 25
448 128 m 25
 448 192 l 25
 320 192 l 25
 320 128 l 25
 448 128 l 25
192 128 m 25
 192 192 l 25
 0 192 l 25
 0 128 l 25
 192 128 l 25
384 64 m 25
 384 128 l 25
 64 128 l 25
 64 64 l 25
 384 64 l 25
128 0 m 25
 128 64 l 25
 64 64 l 25
 64 0 l 25
 128 0 l 25
EndSplineSet
EndChar
StartChar: 00D9
Encoding: 217 217 180
Width: 512
Flags: HW
TeX: 0 0 0 0
Fore
256 832 m 25
 256 896 l 25
 128 896 l 25
 128 832 l 25
 256 832 l 25
320 768 m 25
 320 832 l 25
 192 832 l 25
 192 768 l 25
 320 768 l 25
448 640 m 25
 448 704 l 25
 320 704 l 25
 320 640 l 25
 448 640 l 25
128 640 m 25
 128 704 l 25
 0 704 l 25
 0 640 l 25
 128 640 l 25
448 576 m 25
 448 640 l 25
 320 640 l 25
 320 576 l 25
 448 576 l 25
128 576 m 25
 128 640 l 25
 0 640 l 25
 0 576 l 25
 128 576 l 25
448 512 m 25
 448 576 l 25
 320 576 l 25
 320 512 l 25
 448 512 l 25
128 512 m 25
 128 576 l 25
 0 576 l 25
 0 512 l 25
 128 512 l 25
448 448 m 25
 448 512 l 25
 320 512 l 25
 320 448 l 25
 448 448 l 25
128 448 m 25
 128 512 l 25
 0 512 l 25
 0 448 l 25
 128 448 l 25
448 384 m 25
 448 448 l 25
 320 448 l 25
 320 384 l 25
 448 384 l 25
128 384 m 25
 128 448 l 25
 0 448 l 25
 0 384 l 25
 128 384 l 25
448 320 m 25
 448 384 l 25
 320 384 l 25
 320 320 l 25
 448 320 l 25
128 320 m 25
 128 384 l 25
 0 384 l 25
 0 320 l 25
 128 320 l 25
448 256 m 25
 448 320 l 25
 320 320 l 25
 320 256 l 25
 448 256 l 25
128 256 m 25
 128 320 l 25
 0 320 l 25
 0 256 l 25
 128 256 l 25
448 192 m 25
 448 256 l 25
 320 256 l 25
 320 192 l 25
 448 192 l 25
128 192 m 25
 128 256 l 25
 0 256 l 25
 0 192 l 25
 128 192 l 25
448 128 m 25
 448 192 l 25
 320 192 l 25
 320 128 l 25
 448 128 l 25
128 128 m 25
 128 192 l 25
 0 192 l 25
 0 128 l 25
 128 128 l 25
384 64 m 25
 384 128 l 25
 64 128 l 25
 64 64 l 25
 384 64 l 25
EndSplineSet
EndChar
StartChar: 00DA
Encoding: 218 218 181
Width: 512
Flags: HW
TeX: 0 0 0 0
Fore
384 832 m 25
 384 896 l 25
 256 896 l 25
 256 832 l 25
 384 832 l 25
320 768 m 25
 320 832 l 25
 192 832 l 25
 192 768 l 25
 320 768 l 25
448 640 m 25
 448 704 l 25
 320 704 l 25
 320 640 l 25
 448 640 l 25
128 640 m 25
 128 704 l 25
 0 704 l 25
 0 640 l 25
 128 640 l 25
448 576 m 25
 448 640 l 25
 320 640 l 25
 320 576 l 25
 448 576 l 25
128 576 m 25
 128 640 l 25
 0 640 l 25
 0 576 l 25
 128 576 l 25
448 512 m 25
 448 576 l 25
 320 576 l 25
 320 512 l 25
 448 512 l 25
128 512 m 25
 128 576 l 25
 0 576 l 25
 0 512 l 25
 128 512 l 25
448 448 m 25
 448 512 l 25
 320 512 l 25
 320 448 l 25
 448 448 l 25
128 448 m 25
 128 512 l 25
 0 512 l 25
 0 448 l 25
 128 448 l 25
448 384 m 25
 448 448 l 25
 320 448 l 25
 320 384 l 25
 448 384 l 25
128 384 m 25
 128 448 l 25
 0 448 l 25
 0 384 l 25
 128 384 l 25
448 320 m 25
 448 384 l 25
 320 384 l 25
 320 320 l 25
 448 320 l 25
128 320 m 25
 128 384 l 25
 0 384 l 25
 0 320 l 25
 128 320 l 25
448 256 m 25
 448 320 l 25
 320 320 l 25
 320 256 l 25
 448 256 l 25
128 256 m 25
 128 320 l 25
 0 320 l 25
 0 256 l 25
 128 256 l 25
448 192 m 25
 448 256 l 25
 320 256 l 25
 320 192 l 25
 448 192 l 25
128 192 m 25
 128 256 l 25
 0 256 l 25
 0 192 l 25
 128 192 l 25
448 128 m 25
 448 192 l 25
 320 192 l 25
 320 128 l 25
 448 128 l 25
128 128 m 25
 128 192 l 25
 0 192 l 25
 0 128 l 25
 128 128 l 25
384 64 m 25
 384 128 l 25
 64 128 l 25
 64 64 l 25
 384 64 l 25
EndSplineSet
EndChar
StartChar: 00DB
Encoding: 219 219 182
Width: 512
Flags: HW
TeX: 0 0 0 0
Fore
320 832 m 25
 320 896 l 25
 128 896 l 25
 128 832 l 25
 320 832 l 25
384 768 m 25
 384 832 l 25
 256 832 l 25
 256 768 l 25
 384 768 l 25
192 768 m 25
 192 832 l 25
 64 832 l 25
 64 768 l 25
 192 768 l 25
448 640 m 25
 448 704 l 25
 320 704 l 25
 320 640 l 25
 448 640 l 25
128 640 m 25
 128 704 l 25
 0 704 l 25
 0 640 l 25
 128 640 l 25
448 576 m 25
 448 640 l 25
 320 640 l 25
 320 576 l 25
 448 576 l 25
128 576 m 25
 128 640 l 25
 0 640 l 25
 0 576 l 25
 128 576 l 25
448 512 m 25
 448 576 l 25
 320 576 l 25
 320 512 l 25
 448 512 l 25
128 512 m 25
 128 576 l 25
 0 576 l 25
 0 512 l 25
 128 512 l 25
448 448 m 25
 448 512 l 25
 320 512 l 25
 320 448 l 25
 448 448 l 25
128 448 m 25
 128 512 l 25
 0 512 l 25
 0 448 l 25
 128 448 l 25
448 384 m 25
 448 448 l 25
 320 448 l 25
 320 384 l 25
 448 384 l 25
128 384 m 25
 128 448 l 25
 0 448 l 25
 0 384 l 25
 128 384 l 25
448 320 m 25
 448 384 l 25
 320 384 l 25
 320 320 l 25
 448 320 l 25
128 320 m 25
 128 384 l 25
 0 384 l 25
 0 320 l 25
 128 320 l 25
448 256 m 25
 448 320 l 25
 320 320 l 25
 320 256 l 25
 448 256 l 25
128 256 m 25
 128 320 l 25
 0 320 l 25
 0 256 l 25
 128 256 l 25
448 192 m 25
 448 256 l 25
 320 256 l 25
 320 192 l 25
 448 192 l 25
128 192 m 25
 128 256 l 25
 0 256 l 25
 0 192 l 25
 128 192 l 25
448 128 m 25
 448 192 l 25
 320 192 l 25
 320 128 l 25
 448 128 l 25
128 128 m 25
 128 192 l 25
 0 192 l 25
 0 128 l 25
 128 128 l 25
384 64 m 25
 384 128 l 25
 64 128 l 25
 64 64 l 25
 384 64 l 25
EndSplineSet
EndChar
StartChar: 00DC
Encoding: 220 220 183
Width: 512
Flags: HW
TeX: 0 0 0 0
Fore
448 768 m 25
 448 832 l 25
 320 832 l 25
 320 768 l 25
 448 768 l 25
128 768 m 25
 128 832 l 25
 0 832 l 25
 0 768 l 25
 128 768 l 25
448 640 m 25
 448 704 l 25
 320 704 l 25
 320 640 l 25
 448 640 l 25
128 640 m 25
 128 704 l 25
 0 704 l 25
 0 640 l 25
 128 640 l 25
448 576 m 25
 448 640 l 25
 320 640 l 25
 320 576 l 25
 448 576 l 25
128 576 m 25
 128 640 l 25
 0 640 l 25
 0 576 l 25
 128 576 l 25
448 512 m 25
 448 576 l 25
 320 576 l 25
 320 512 l 25
 448 512 l 25
128 512 m 25
 128 576 l 25
 0 576 l 25
 0 512 l 25
 128 512 l 25
448 448 m 25
 448 512 l 25
 320 512 l 25
 320 448 l 25
 448 448 l 25
128 448 m 25
 128 512 l 25
 0 512 l 25
 0 448 l 25
 128 448 l 25
448 384 m 25
 448 448 l 25
 320 448 l 25
 320 384 l 25
 448 384 l 25
128 384 m 25
 128 448 l 25
 0 448 l 25
 0 384 l 25
 128 384 l 25
448 320 m 25
 448 384 l 25
 320 384 l 25
 320 320 l 25
 448 320 l 25
128 320 m 25
 128 384 l 25
 0 384 l 25
 0 320 l 25
 128 320 l 25
448 256 m 25
 448 320 l 25
 320 320 l 25
 320 256 l 25
 448 256 l 25
128 256 m 25
 128 320 l 25
 0 320 l 25
 0 256 l 25
 128 256 l 25
448 192 m 25
 448 256 l 25
 320 256 l 25
 320 192 l 25
 448 192 l 25
128 192 m 25
 128 256 l 25
 0 256 l 25
 0 192 l 25
 128 192 l 25
448 128 m 25
 448 192 l 25
 320 192 l 25
 320 128 l 25
 448 128 l 25
128 128 m 25
 128 192 l 25
 0 192 l 25
 0 128 l 25
 128 128 l 25
384 64 m 25
 384 128 l 25
 64 128 l 25
 64 64 l 25
 384 64 l 25
EndSplineSet
EndChar
StartChar: 00DD
Encoding: 221 221 184
Width: 512
Flags: HW
TeX: 0 0 0 0
Fore
384 832 m 25
 384 896 l 25
 256 896 l 25
 256 832 l 25
 384 832 l 25
320 768 m 25
 320 832 l 25
 192 832 l 25
 192 768 l 25
 320 768 l 25
448 640 m 25
 448 704 l 25
 320 704 l 25
 320 640 l 25
 448 640 l 25
192 640 m 25
 192 704 l 25
 64 704 l 25
 64 640 l 25
 192 640 l 25
448 576 m 25
 448 640 l 25
 320 640 l 25
 320 576 l 25
 448 576 l 25
192 576 m 25
 192 640 l 25
 64 640 l 25
 64 576 l 25
 192 576 l 25
448 512 m 25
 448 576 l 25
 320 576 l 25
 320 512 l 25
 448 512 l 25
192 512 m 25
 192 576 l 25
 64 576 l 25
 64 512 l 25
 192 512 l 25
448 448 m 25
 448 512 l 25
 320 512 l 25
 320 448 l 25
 448 448 l 25
192 448 m 25
 192 512 l 25
 64 512 l 25
 64 448 l 25
 192 448 l 25
384 384 m 25
 384 448 l 25
 128 448 l 25
 128 384 l 25
 384 384 l 25
320 320 m 25
 320 384 l 25
 192 384 l 25
 192 320 l 25
 320 320 l 25
320 256 m 25
 320 320 l 25
 192 320 l 25
 192 256 l 25
 320 256 l 25
320 192 m 25
 320 256 l 25
 192 256 l 25
 192 192 l 25
 320 192 l 25
320 128 m 25
 320 192 l 25
 192 192 l 25
 192 128 l 25
 320 128 l 25
384 64 m 25
 384 128 l 25
 128 128 l 25
 128 64 l 25
 384 64 l 25
EndSplineSet
EndChar
StartChar: 00DE
Encoding: 222 222 185
Width: 512
Flags: HW
TeX: 0 0 0 0
Fore
256 640 m 25
 256 704 l 25
 0 704 l 25
 0 640 l 25
 256 640 l 25
192 576 m 25
 192 640 l 25
 64 640 l 25
 64 576 l 25
 192 576 l 25
384 512 m 25
 384 576 l 25
 64 576 l 25
 64 512 l 25
 384 512 l 25
448 448 m 25
 448 512 l 25
 320 512 l 25
 320 448 l 25
 448 448 l 25
192 448 m 25
 192 512 l 25
 64 512 l 25
 64 448 l 25
 192 448 l 25
448 384 m 25
 448 448 l 25
 320 448 l 25
 320 384 l 25
 448 384 l 25
192 384 m 25
 192 448 l 25
 64 448 l 25
 64 384 l 25
 192 384 l 25
448 320 m 25
 448 384 l 25
 320 384 l 25
 320 320 l 25
 448 320 l 25
192 320 m 25
 192 384 l 25
 64 384 l 25
 64 320 l 25
 192 320 l 25
448 256 m 25
 448 320 l 25
 320 320 l 25
 320 256 l 25
 448 256 l 25
192 256 m 25
 192 320 l 25
 64 320 l 25
 64 256 l 25
 192 256 l 25
384 192 m 25
 384 256 l 25
 64 256 l 25
 64 192 l 25
 384 192 l 25
192 128 m 25
 192 192 l 25
 64 192 l 25
 64 128 l 25
 192 128 l 25
256 64 m 25
 256 128 l 25
 0 128 l 25
 0 64 l 25
 256 64 l 25
EndSplineSet
EndChar
StartChar: 00DF
Encoding: 223 223 186
Width: 512
Flags: HW
TeX: 0 0 0 0
Fore
320 640 m 25
 320 704 l 25
 64 704 l 25
 64 640 l 25
 320 640 l 25
384 576 m 25
 384 640 l 25
 256 640 l 25
 256 576 l 25
 384 576 l 25
128 576 m 25
 128 640 l 25
 0 640 l 25
 0 576 l 25
 128 576 l 25
384 512 m 25
 384 576 l 25
 256 576 l 25
 256 512 l 25
 384 512 l 25
128 512 m 25
 128 576 l 25
 0 576 l 25
 0 512 l 25
 128 512 l 25
384 448 m 25
 384 512 l 25
 256 512 l 25
 256 448 l 25
 384 448 l 25
128 448 m 25
 128 512 l 25
 0 512 l 25
 0 448 l 25
 128 448 l 25
320 384 m 25
 320 448 l 25
 192 448 l 25
 192 384 l 25
 320 384 l 25
128 384 m 25
 128 448 l 25
 0 448 l 25
 0 384 l 25
 128 384 l 25
384 320 m 25
 384 384 l 25
 256 384 l 25
 256 320 l 25
 384 320 l 25
128 320 m 25
 128 384 l 25
 0 384 l 25
 0 320 l 25
 128 320 l 25
448 256 m 25
 448 320 l 25
 320 320 l 25
 320 256 l 25
 448 256 l 25
128 256 m 25
 128 320 l 25
 0 320 l 25
 0 256 l 25
 128 256 l 25
448 192 m 25
 448 256 l 25
 320 256 l 25
 320 192 l 25
 448 192 l 25
128 192 m 25
 128 256 l 25
 0 256 l 25
 0 192 l 25
 128 192 l 25
448 128 m 25
 448 192 l 25
 320 192 l 25
 320 128 l 25
 448 128 l 25
128 128 m 25
 128 192 l 25
 0 192 l 25
 0 128 l 25
 128 128 l 25
384 64 m 25
 384 128 l 25
 256 128 l 25
 256 64 l 25
 384 64 l 25
128 64 m 25
 128 128 l 25
 0 128 l 25
 0 64 l 25
 128 64 l 25
EndSplineSet
EndChar
StartChar: 00E0
Encoding: 224 224 187
Width: 512
Flags: HW
TeX: 0 0 0 0
Fore
128 704 m 25
 128 768 l 25
 0 768 l 25
 0 704 l 25
 128 704 l 25
192 640 m 25
 192 704 l 25
 64 704 l 25
 64 640 l 25
 192 640 l 25
256 576 m 25
 256 640 l 25
 128 640 l 25
 128 576 l 25
 256 576 l 25
320 448 m 25
 320 512 l 25
 64 512 l 25
 64 448 l 25
 320 448 l 25
384 384 m 25
 384 448 l 25
 256 448 l 25
 256 384 l 25
 384 384 l 25
384 320 m 25
 384 384 l 25
 64 384 l 25
 64 320 l 25
 384 320 l 25
384 256 m 25
 384 320 l 25
 256 320 l 25
 256 256 l 25
 384 256 l 25
128 256 m 25
 128 320 l 25
 0 320 l 25
 0 256 l 25
 128 256 l 25
384 192 m 25
 384 256 l 25
 256 256 l 25
 256 192 l 25
 384 192 l 25
128 192 m 25
 128 256 l 25
 0 256 l 25
 0 192 l 25
 128 192 l 25
384 128 m 25
 384 192 l 25
 256 192 l 25
 256 128 l 25
 384 128 l 25
128 128 m 25
 128 192 l 25
 0 192 l 25
 0 128 l 25
 128 128 l 25
448 64 m 25
 448 128 l 25
 320 128 l 25
 320 64 l 25
 448 64 l 25
256 64 m 25
 256 128 l 25
 64 128 l 25
 64 64 l 25
 256 64 l 25
EndSplineSet
EndChar
StartChar: 00E1
Encoding: 225 225 188
Width: 512
Flags: HW
TeX: 0 0 0 0
Fore
384 704 m 25
 384 768 l 25
 256 768 l 25
 256 704 l 25
 384 704 l 25
320 640 m 25
 320 704 l 25
 192 704 l 25
 192 640 l 25
 320 640 l 25
256 576 m 25
 256 640 l 25
 128 640 l 25
 128 576 l 25
 256 576 l 25
320 448 m 25
 320 512 l 25
 64 512 l 25
 64 448 l 25
 320 448 l 25
384 384 m 25
 384 448 l 25
 256 448 l 25
 256 384 l 25
 384 384 l 25
384 320 m 25
 384 384 l 25
 64 384 l 25
 64 320 l 25
 384 320 l 25
384 256 m 25
 384 320 l 25
 256 320 l 25
 256 256 l 25
 384 256 l 25
128 256 m 25
 128 320 l 25
 0 320 l 25
 0 256 l 25
 128 256 l 25
384 192 m 25
 384 256 l 25
 256 256 l 25
 256 192 l 25
 384 192 l 25
128 192 m 25
 128 256 l 25
 0 256 l 25
 0 192 l 25
 128 192 l 25
384 128 m 25
 384 192 l 25
 256 192 l 25
 256 128 l 25
 384 128 l 25
128 128 m 25
 128 192 l 25
 0 192 l 25
 0 128 l 25
 128 128 l 25
448 64 m 25
 448 128 l 25
 320 128 l 25
 320 64 l 25
 448 64 l 25
256 64 m 25
 256 128 l 25
 64 128 l 25
 64 64 l 25
 256 64 l 25
EndSplineSet
EndChar
StartChar: 00E2
Encoding: 226 226 189
Width: 512
Flags: HW
TeX: 0 0 0 0
Fore
256 704 m 25
 256 768 l 25
 192 768 l 25
 192 704 l 25
 256 704 l 25
320 640 m 25
 320 704 l 25
 128 704 l 25
 128 640 l 25
 320 640 l 25
384 576 m 25
 384 640 l 25
 256 640 l 25
 256 576 l 25
 384 576 l 25
192 576 m 25
 192 640 l 25
 64 640 l 25
 64 576 l 25
 192 576 l 25
320 448 m 25
 320 512 l 25
 64 512 l 25
 64 448 l 25
 320 448 l 25
384 384 m 25
 384 448 l 25
 256 448 l 25
 256 384 l 25
 384 384 l 25
384 320 m 25
 384 384 l 25
 64 384 l 25
 64 320 l 25
 384 320 l 25
384 256 m 25
 384 320 l 25
 256 320 l 25
 256 256 l 25
 384 256 l 25
128 256 m 25
 128 320 l 25
 0 320 l 25
 0 256 l 25
 128 256 l 25
384 192 m 25
 384 256 l 25
 256 256 l 25
 256 192 l 25
 384 192 l 25
128 192 m 25
 128 256 l 25
 0 256 l 25
 0 192 l 25
 128 192 l 25
384 128 m 25
 384 192 l 25
 256 192 l 25
 256 128 l 25
 384 128 l 25
128 128 m 25
 128 192 l 25
 0 192 l 25
 0 128 l 25
 128 128 l 25
448 64 m 25
 448 128 l 25
 320 128 l 25
 320 64 l 25
 448 64 l 25
256 64 m 25
 256 128 l 25
 64 128 l 25
 64 64 l 25
 256 64 l 25
EndSplineSet
EndChar
StartChar: 00E3
Encoding: 227 227 190
Width: 512
Flags: HW
TeX: 0 0 0 0
Fore
448 640 m 25
 448 704 l 25
 320 704 l 25
 320 640 l 25
 448 640 l 25
256 640 m 25
 256 704 l 25
 64 704 l 25
 64 640 l 25
 256 640 l 25
384 576 m 25
 384 640 l 25
 192 640 l 25
 192 576 l 25
 384 576 l 25
128 576 m 25
 128 640 l 25
 0 640 l 25
 0 576 l 25
 128 576 l 25
320 448 m 25
 320 512 l 25
 64 512 l 25
 64 448 l 25
 320 448 l 25
384 384 m 25
 384 448 l 25
 256 448 l 25
 256 384 l 25
 384 384 l 25
384 320 m 25
 384 384 l 25
 64 384 l 25
 64 320 l 25
 384 320 l 25
384 256 m 25
 384 320 l 25
 256 320 l 25
 256 256 l 25
 384 256 l 25
128 256 m 25
 128 320 l 25
 0 320 l 25
 0 256 l 25
 128 256 l 25
384 192 m 25
 384 256 l 25
 256 256 l 25
 256 192 l 25
 384 192 l 25
128 192 m 25
 128 256 l 25
 0 256 l 25
 0 192 l 25
 128 192 l 25
384 128 m 25
 384 192 l 25
 256 192 l 25
 256 128 l 25
 384 128 l 25
128 128 m 25
 128 192 l 25
 0 192 l 25
 0 128 l 25
 128 128 l 25
448 64 m 25
 448 128 l 25
 320 128 l 25
 320 64 l 25
 448 64 l 25
256 64 m 25
 256 128 l 25
 64 128 l 25
 64 64 l 25
 256 64 l 25
EndSplineSet
EndChar
StartChar: 00E4
Encoding: 228 228 191
Width: 512
Flags: HW
TeX: 0 0 0 0
Fore
384 576 m 25
 384 640 l 25
 256 640 l 25
 256 576 l 25
 384 576 l 25
128 576 m 25
 128 640 l 25
 0 640 l 25
 0 576 l 25
 128 576 l 25
320 448 m 25
 320 512 l 25
 64 512 l 25
 64 448 l 25
 320 448 l 25
384 384 m 25
 384 448 l 25
 256 448 l 25
 256 384 l 25
 384 384 l 25
384 320 m 25
 384 384 l 25
 64 384 l 25
 64 320 l 25
 384 320 l 25
384 256 m 25
 384 320 l 25
 256 320 l 25
 256 256 l 25
 384 256 l 25
128 256 m 25
 128 320 l 25
 0 320 l 25
 0 256 l 25
 128 256 l 25
384 192 m 25
 384 256 l 25
 256 256 l 25
 256 192 l 25
 384 192 l 25
128 192 m 25
 128 256 l 25
 0 256 l 25
 0 192 l 25
 128 192 l 25
384 128 m 25
 384 192 l 25
 256 192 l 25
 256 128 l 25
 384 128 l 25
128 128 m 25
 128 192 l 25
 0 192 l 25
 0 128 l 25
 128 128 l 25
448 64 m 25
 448 128 l 25
 320 128 l 25
 320 64 l 25
 448 64 l 25
256 64 m 25
 256 128 l 25
 64 128 l 25
 64 64 l 25
 256 64 l 25
EndSplineSet
EndChar
StartChar: 00E5
Encoding: 229 229 192
Width: 512
Flags: HW
TeX: 0 0 0 0
Fore
320 704 m 25
 320 768 l 25
 128 768 l 25
 128 704 l 25
 320 704 l 25
384 640 m 25
 384 704 l 25
 256 704 l 25
 256 640 l 25
 384 640 l 25
192 640 m 25
 192 704 l 25
 64 704 l 25
 64 640 l 25
 192 640 l 25
320 576 m 25
 320 640 l 25
 128 640 l 25
 128 576 l 25
 320 576 l 25
320 448 m 25
 320 512 l 25
 64 512 l 25
 64 448 l 25
 320 448 l 25
384 384 m 25
 384 448 l 25
 256 448 l 25
 256 384 l 25
 384 384 l 25
384 320 m 25
 384 384 l 25
 64 384 l 25
 64 320 l 25
 384 320 l 25
384 256 m 25
 384 320 l 25
 256 320 l 25
 256 256 l 25
 384 256 l 25
128 256 m 25
 128 320 l 25
 0 320 l 25
 0 256 l 25
 128 256 l 25
384 192 m 25
 384 256 l 25
 256 256 l 25
 256 192 l 25
 384 192 l 25
128 192 m 25
 128 256 l 25
 0 256 l 25
 0 192 l 25
 128 192 l 25
384 128 m 25
 384 192 l 25
 256 192 l 25
 256 128 l 25
 384 128 l 25
128 128 m 25
 128 192 l 25
 0 192 l 25
 0 128 l 25
 128 128 l 25
448 64 m 25
 448 128 l 25
 320 128 l 25
 320 64 l 25
 448 64 l 25
256 64 m 25
 256 128 l 25
 64 128 l 25
 64 64 l 25
 256 64 l 25
EndSplineSet
EndChar
StartChar: 00E6
Encoding: 230 230 193
Width: 512
Flags: HW
TeX: 0 0 0 0
Fore
384 448 m 25
 384 512 l 25
 256 512 l 25
 256 448 l 25
 384 448 l 25
192 448 m 25
 192 512 l 25
 0 512 l 25
 0 448 l 25
 192 448 l 25
448 384 m 25
 448 448 l 25
 320 448 l 25
 320 384 l 25
 448 384 l 25
256 384 m 25
 256 448 l 25
 128 448 l 25
 128 384 l 25
 256 384 l 25
448 320 m 25
 448 384 l 25
 320 384 l 25
 320 320 l 25
 448 320 l 25
256 320 m 25
 256 384 l 25
 128 384 l 25
 128 320 l 25
 256 320 l 25
448 256 m 25
 448 320 l 25
 64 320 l 25
 64 256 l 25
 448 256 l 25
320 192 m 25
 320 256 l 25
 192 256 l 25
 192 192 l 25
 320 192 l 25
128 192 m 25
 128 256 l 25
 0 256 l 25
 0 192 l 25
 128 192 l 25
320 128 m 25
 320 192 l 25
 192 192 l 25
 192 128 l 25
 320 128 l 25
128 128 m 25
 128 192 l 25
 0 192 l 25
 0 128 l 25
 128 128 l 25
448 64 m 25
 448 128 l 25
 256 128 l 25
 256 64 l 25
 448 64 l 25
192 64 m 25
 192 128 l 25
 64 128 l 25
 64 64 l 25
 192 64 l 25
EndSplineSet
EndChar
StartChar: 00E7
Encoding: 231 231 194
Width: 512
Flags: HW
TeX: 0 0 0 0
Fore
384 448 m 25
 384 512 l 25
 64 512 l 25
 64 448 l 25
 384 448 l 25
448 384 m 25
 448 448 l 25
 320 448 l 25
 320 384 l 25
 448 384 l 25
128 384 m 25
 128 448 l 25
 0 448 l 25
 0 384 l 25
 128 384 l 25
128 320 m 25
 128 384 l 25
 0 384 l 25
 0 320 l 25
 128 320 l 25
128 256 m 25
 128 320 l 25
 0 320 l 25
 0 256 l 25
 128 256 l 25
128 192 m 25
 128 256 l 25
 0 256 l 25
 0 192 l 25
 128 192 l 25
448 128 m 25
 448 192 l 25
 320 192 l 25
 320 128 l 25
 448 128 l 25
128 128 m 25
 128 192 l 25
 0 192 l 25
 0 128 l 25
 128 128 l 25
384 64 m 25
 384 128 l 25
 64 128 l 25
 64 64 l 25
 384 64 l 25
320 0 m 25
 320 64 l 25
 192 64 l 25
 192 0 l 25
 320 0 l 25
384 -64 m 25
 384 0 l 25
 256 0 l 25
 256 -64 l 25
 384 -64 l 25
320 -128 m 25
 320 -64 l 25
 64 -64 l 25
 64 -128 l 25
 320 -128 l 25
EndSplineSet
EndChar
StartChar: 00E8
Encoding: 232 232 195
Width: 512
Flags: HW
TeX: 0 0 0 0
Fore
192 704 m 25
 192 768 l 25
 64 768 l 25
 64 704 l 25
 192 704 l 25
256 640 m 25
 256 704 l 25
 128 704 l 25
 128 640 l 25
 256 640 l 25
320 576 m 25
 320 640 l 25
 192 640 l 25
 192 576 l 25
 320 576 l 25
384 448 m 25
 384 512 l 25
 64 512 l 25
 64 448 l 25
 384 448 l 25
448 384 m 25
 448 448 l 25
 320 448 l 25
 320 384 l 25
 448 384 l 25
128 384 m 25
 128 448 l 25
 0 448 l 25
 0 384 l 25
 128 384 l 25
448 320 m 25
 448 384 l 25
 0 384 l 25
 0 320 l 25
 448 320 l 25
128 256 m 25
 128 320 l 25
 0 320 l 25
 0 256 l 25
 128 256 l 25
128 192 m 25
 128 256 l 25
 0 256 l 25
 0 192 l 25
 128 192 l 25
448 128 m 25
 448 192 l 25
 320 192 l 25
 320 128 l 25
 448 128 l 25
128 128 m 25
 128 192 l 25
 0 192 l 25
 0 128 l 25
 128 128 l 25
384 64 m 25
 384 128 l 25
 64 128 l 25
 64 64 l 25
 384 64 l 25
EndSplineSet
EndChar
StartChar: 00E9
Encoding: 233 233 196
Width: 512
Flags: HW
TeX: 0 0 0 0
Fore
448 704 m 25
 448 768 l 25
 320 768 l 25
 320 704 l 25
 448 704 l 25
384 640 m 25
 384 704 l 25
 256 704 l 25
 256 640 l 25
 384 640 l 25
320 576 m 25
 320 640 l 25
 192 640 l 25
 192 576 l 25
 320 576 l 25
384 448 m 25
 384 512 l 25
 64 512 l 25
 64 448 l 25
 384 448 l 25
448 384 m 25
 448 448 l 25
 320 448 l 25
 320 384 l 25
 448 384 l 25
128 384 m 25
 128 448 l 25
 0 448 l 25
 0 384 l 25
 128 384 l 25
448 320 m 25
 448 384 l 25
 0 384 l 25
 0 320 l 25
 448 320 l 25
128 256 m 25
 128 320 l 25
 0 320 l 25
 0 256 l 25
 128 256 l 25
128 192 m 25
 128 256 l 25
 0 256 l 25
 0 192 l 25
 128 192 l 25
448 128 m 25
 448 192 l 25
 320 192 l 25
 320 128 l 25
 448 128 l 25
128 128 m 25
 128 192 l 25
 0 192 l 25
 0 128 l 25
 128 128 l 25
384 64 m 25
 384 128 l 25
 64 128 l 25
 64 64 l 25
 384 64 l 25
EndSplineSet
EndChar
StartChar: 00EA
Encoding: 234 234 197
Width: 512
Flags: HW
TeX: 0 0 0 0
Fore
256 704 m 25
 256 768 l 25
 192 768 l 25
 192 704 l 25
 256 704 l 25
320 640 m 25
 320 704 l 25
 128 704 l 25
 128 640 l 25
 320 640 l 25
384 576 m 25
 384 640 l 25
 256 640 l 25
 256 576 l 25
 384 576 l 25
192 576 m 25
 192 640 l 25
 64 640 l 25
 64 576 l 25
 192 576 l 25
384 448 m 25
 384 512 l 25
 64 512 l 25
 64 448 l 25
 384 448 l 25
448 384 m 25
 448 448 l 25
 320 448 l 25
 320 384 l 25
 448 384 l 25
128 384 m 25
 128 448 l 25
 0 448 l 25
 0 384 l 25
 128 384 l 25
448 320 m 25
 448 384 l 25
 0 384 l 25
 0 320 l 25
 448 320 l 25
128 256 m 25
 128 320 l 25
 0 320 l 25
 0 256 l 25
 128 256 l 25
128 192 m 25
 128 256 l 25
 0 256 l 25
 0 192 l 25
 128 192 l 25
448 128 m 25
 448 192 l 25
 320 192 l 25
 320 128 l 25
 448 128 l 25
128 128 m 25
 128 192 l 25
 0 192 l 25
 0 128 l 25
 128 128 l 25
384 64 m 25
 384 128 l 25
 64 128 l 25
 64 64 l 25
 384 64 l 25
EndSplineSet
EndChar
StartChar: 00EB
Encoding: 235 235 198
Width: 512
Flags: HW
TeX: 0 0 0 0
Fore
448 576 m 25
 448 640 l 25
 320 640 l 25
 320 576 l 25
 448 576 l 25
128 576 m 25
 128 640 l 25
 0 640 l 25
 0 576 l 25
 128 576 l 25
384 448 m 25
 384 512 l 25
 64 512 l 25
 64 448 l 25
 384 448 l 25
448 384 m 25
 448 448 l 25
 320 448 l 25
 320 384 l 25
 448 384 l 25
128 384 m 25
 128 448 l 25
 0 448 l 25
 0 384 l 25
 128 384 l 25
448 320 m 25
 448 384 l 25
 0 384 l 25
 0 320 l 25
 448 320 l 25
128 256 m 25
 128 320 l 25
 0 320 l 25
 0 256 l 25
 128 256 l 25
128 192 m 25
 128 256 l 25
 0 256 l 25
 0 192 l 25
 128 192 l 25
448 128 m 25
 448 192 l 25
 320 192 l 25
 320 128 l 25
 448 128 l 25
128 128 m 25
 128 192 l 25
 0 192 l 25
 0 128 l 25
 128 128 l 25
384 64 m 25
 384 128 l 25
 64 128 l 25
 64 64 l 25
 384 64 l 25
EndSplineSet
EndChar
StartChar: 00EC
Encoding: 236 236 199
Width: 512
Flags: HW
TeX: 0 0 0 0
Fore
192 704 m 25
 192 768 l 25
 64 768 l 25
 64 704 l 25
 192 704 l 25
256 640 m 25
 256 704 l 25
 128 704 l 25
 128 640 l 25
 256 640 l 25
320 576 m 25
 320 640 l 25
 192 640 l 25
 192 576 l 25
 320 576 l 25
320 448 m 25
 320 512 l 25
 128 512 l 25
 128 448 l 25
 320 448 l 25
320 384 m 25
 320 448 l 25
 192 448 l 25
 192 384 l 25
 320 384 l 25
320 320 m 25
 320 384 l 25
 192 384 l 25
 192 320 l 25
 320 320 l 25
320 256 m 25
 320 320 l 25
 192 320 l 25
 192 256 l 25
 320 256 l 25
320 192 m 25
 320 256 l 25
 192 256 l 25
 192 192 l 25
 320 192 l 25
320 128 m 25
 320 192 l 25
 192 192 l 25
 192 128 l 25
 320 128 l 25
384 64 m 25
 384 128 l 25
 128 128 l 25
 128 64 l 25
 384 64 l 25
EndSplineSet
EndChar
StartChar: 00ED
Encoding: 237 237 200
Width: 512
Flags: HW
TeX: 0 0 0 0
Fore
448 704 m 25
 448 768 l 25
 320 768 l 25
 320 704 l 25
 448 704 l 25
384 640 m 25
 384 704 l 25
 256 704 l 25
 256 640 l 25
 384 640 l 25
320 576 m 25
 320 640 l 25
 192 640 l 25
 192 576 l 25
 320 576 l 25
320 448 m 25
 320 512 l 25
 128 512 l 25
 128 448 l 25
 320 448 l 25
320 384 m 25
 320 448 l 25
 192 448 l 25
 192 384 l 25
 320 384 l 25
320 320 m 25
 320 384 l 25
 192 384 l 25
 192 320 l 25
 320 320 l 25
320 256 m 25
 320 320 l 25
 192 320 l 25
 192 256 l 25
 320 256 l 25
320 192 m 25
 320 256 l 25
 192 256 l 25
 192 192 l 25
 320 192 l 25
320 128 m 25
 320 192 l 25
 192 192 l 25
 192 128 l 25
 320 128 l 25
384 64 m 25
 384 128 l 25
 128 128 l 25
 128 64 l 25
 384 64 l 25
EndSplineSet
EndChar
StartChar: 00EE
Encoding: 238 238 201
Width: 512
Flags: HW
TeX: 0 0 0 0
Fore
320 704 m 25
 320 768 l 25
 192 768 l 25
 192 704 l 25
 320 704 l 25
384 640 m 25
 384 704 l 25
 128 704 l 25
 128 640 l 25
 384 640 l 25
448 576 m 25
 448 640 l 25
 320 640 l 25
 320 576 l 25
 448 576 l 25
192 576 m 25
 192 640 l 25
 64 640 l 25
 64 576 l 25
 192 576 l 25
320 448 m 25
 320 512 l 25
 128 512 l 25
 128 448 l 25
 320 448 l 25
320 384 m 25
 320 448 l 25
 192 448 l 25
 192 384 l 25
 320 384 l 25
320 320 m 25
 320 384 l 25
 192 384 l 25
 192 320 l 25
 320 320 l 25
320 256 m 25
 320 320 l 25
 192 320 l 25
 192 256 l 25
 320 256 l 25
320 192 m 25
 320 256 l 25
 192 256 l 25
 192 192 l 25
 320 192 l 25
320 128 m 25
 320 192 l 25
 192 192 l 25
 192 128 l 25
 320 128 l 25
384 64 m 25
 384 128 l 25
 128 128 l 25
 128 64 l 25
 384 64 l 25
EndSplineSet
EndChar
StartChar: 00EF
Encoding: 239 239 202
Width: 512
Flags: HW
TeX: 0 0 0 0
Fore
448 576 m 25
 448 640 l 25
 320 640 l 25
 320 576 l 25
 448 576 l 25
192 576 m 25
 192 640 l 25
 64 640 l 25
 64 576 l 25
 192 576 l 25
320 448 m 25
 320 512 l 25
 128 512 l 25
 128 448 l 25
 320 448 l 25
320 384 m 25
 320 448 l 25
 192 448 l 25
 192 384 l 25
 320 384 l 25
320 320 m 25
 320 384 l 25
 192 384 l 25
 192 320 l 25
 320 320 l 25
320 256 m 25
 320 320 l 25
 192 320 l 25
 192 256 l 25
 320 256 l 25
320 192 m 25
 320 256 l 25
 192 256 l 25
 192 192 l 25
 320 192 l 25
320 128 m 25
 320 192 l 25
 192 192 l 25
 192 128 l 25
 320 128 l 25
384 64 m 25
 384 128 l 25
 128 128 l 25
 128 64 l 25
 384 64 l 25
EndSplineSet
EndChar
StartChar: 00F0
Encoding: 240 240 203
Width: 512
Flags: HW
TeX: 0 0 0 0
Fore
384 640 m 25
 384 704 l 25
 320 704 l 25
 320 640 l 25
 384 640 l 25
256 640 m 25
 256 704 l 25
 128 704 l 25
 128 640 l 25
 256 640 l 25
320 576 m 25
 320 640 l 25
 192 640 l 25
 192 576 l 25
 320 576 l 25
384 512 m 25
 384 576 l 25
 256 576 l 25
 256 512 l 25
 384 512 l 25
192 512 m 25
 192 576 l 25
 128 576 l 25
 128 512 l 25
 192 512 l 25
448 448 m 25
 448 512 l 25
 320 512 l 25
 320 448 l 25
 448 448 l 25
448 384 m 25
 448 448 l 25
 128 448 l 25
 128 384 l 25
 448 384 l 25
448 320 m 25
 448 384 l 25
 320 384 l 25
 320 320 l 25
 448 320 l 25
192 320 m 25
 192 384 l 25
 64 384 l 25
 64 320 l 25
 192 320 l 25
448 256 m 25
 448 320 l 25
 320 320 l 25
 320 256 l 25
 448 256 l 25
192 256 m 25
 192 320 l 25
 64 320 l 25
 64 256 l 25
 192 256 l 25
448 192 m 25
 448 256 l 25
 320 256 l 25
 320 192 l 25
 448 192 l 25
192 192 m 25
 192 256 l 25
 64 256 l 25
 64 192 l 25
 192 192 l 25
448 128 m 25
 448 192 l 25
 320 192 l 25
 320 128 l 25
 448 128 l 25
192 128 m 25
 192 192 l 25
 64 192 l 25
 64 128 l 25
 192 128 l 25
384 64 m 25
 384 128 l 25
 128 128 l 25
 128 64 l 25
 384 64 l 25
EndSplineSet
EndChar
StartChar: 00F1
Encoding: 241 241 204
Width: 512
Flags: HW
TeX: 0 0 0 0
Fore
448 640 m 25
 448 704 l 25
 320 704 l 25
 320 640 l 25
 448 640 l 25
256 640 m 25
 256 704 l 25
 64 704 l 25
 64 640 l 25
 256 640 l 25
384 576 m 25
 384 640 l 25
 192 640 l 25
 192 576 l 25
 384 576 l 25
128 576 m 25
 128 640 l 25
 0 640 l 25
 0 576 l 25
 128 576 l 25
384 448 m 25
 384 512 l 25
 192 512 l 25
 192 448 l 25
 384 448 l 25
128 448 m 25
 128 512 l 25
 0 512 l 25
 0 448 l 25
 128 448 l 25
448 384 m 25
 448 448 l 25
 320 448 l 25
 320 384 l 25
 448 384 l 25
192 384 m 25
 192 448 l 25
 64 448 l 25
 64 384 l 25
 192 384 l 25
448 320 m 25
 448 384 l 25
 320 384 l 25
 320 320 l 25
 448 320 l 25
192 320 m 25
 192 384 l 25
 64 384 l 25
 64 320 l 25
 192 320 l 25
448 256 m 25
 448 320 l 25
 320 320 l 25
 320 256 l 25
 448 256 l 25
192 256 m 25
 192 320 l 25
 64 320 l 25
 64 256 l 25
 192 256 l 25
448 192 m 25
 448 256 l 25
 320 256 l 25
 320 192 l 25
 448 192 l 25
192 192 m 25
 192 256 l 25
 64 256 l 25
 64 192 l 25
 192 192 l 25
448 128 m 25
 448 192 l 25
 320 192 l 25
 320 128 l 25
 448 128 l 25
192 128 m 25
 192 192 l 25
 64 192 l 25
 64 128 l 25
 192 128 l 25
448 64 m 25
 448 128 l 25
 320 128 l 25
 320 64 l 25
 448 64 l 25
192 64 m 25
 192 128 l 25
 64 128 l 25
 64 64 l 25
 192 64 l 25
EndSplineSet
EndChar
StartChar: 00F2
Encoding: 242 242 205
Width: 512
Flags: HW
TeX: 0 0 0 0
Fore
192 704 m 25
 192 768 l 25
 64 768 l 25
 64 704 l 25
 192 704 l 25
256 640 m 25
 256 704 l 25
 128 704 l 25
 128 640 l 25
 256 640 l 25
320 576 m 25
 320 640 l 25
 192 640 l 25
 192 576 l 25
 320 576 l 25
384 448 m 25
 384 512 l 25
 64 512 l 25
 64 448 l 25
 384 448 l 25
448 384 m 25
 448 448 l 25
 320 448 l 25
 320 384 l 25
 448 384 l 25
128 384 m 25
 128 448 l 25
 0 448 l 25
 0 384 l 25
 128 384 l 25
448 320 m 25
 448 384 l 25
 320 384 l 25
 320 320 l 25
 448 320 l 25
128 320 m 25
 128 384 l 25
 0 384 l 25
 0 320 l 25
 128 320 l 25
448 256 m 25
 448 320 l 25
 320 320 l 25
 320 256 l 25
 448 256 l 25
128 256 m 25
 128 320 l 25
 0 320 l 25
 0 256 l 25
 128 256 l 25
448 192 m 25
 448 256 l 25
 320 256 l 25
 320 192 l 25
 448 192 l 25
128 192 m 25
 128 256 l 25
 0 256 l 25
 0 192 l 25
 128 192 l 25
448 128 m 25
 448 192 l 25
 320 192 l 25
 320 128 l 25
 448 128 l 25
128 128 m 25
 128 192 l 25
 0 192 l 25
 0 128 l 25
 128 128 l 25
384 64 m 25
 384 128 l 25
 64 128 l 25
 64 64 l 25
 384 64 l 25
EndSplineSet
EndChar
StartChar: 00F3
Encoding: 243 243 206
Width: 512
Flags: HW
TeX: 0 0 0 0
Fore
448 704 m 25
 448 768 l 25
 320 768 l 25
 320 704 l 25
 448 704 l 25
384 640 m 25
 384 704 l 25
 256 704 l 25
 256 640 l 25
 384 640 l 25
320 576 m 25
 320 640 l 25
 192 640 l 25
 192 576 l 25
 320 576 l 25
384 448 m 25
 384 512 l 25
 64 512 l 25
 64 448 l 25
 384 448 l 25
448 384 m 25
 448 448 l 25
 320 448 l 25
 320 384 l 25
 448 384 l 25
128 384 m 25
 128 448 l 25
 0 448 l 25
 0 384 l 25
 128 384 l 25
448 320 m 25
 448 384 l 25
 320 384 l 25
 320 320 l 25
 448 320 l 25
128 320 m 25
 128 384 l 25
 0 384 l 25
 0 320 l 25
 128 320 l 25
448 256 m 25
 448 320 l 25
 320 320 l 25
 320 256 l 25
 448 256 l 25
128 256 m 25
 128 320 l 25
 0 320 l 25
 0 256 l 25
 128 256 l 25
448 192 m 25
 448 256 l 25
 320 256 l 25
 320 192 l 25
 448 192 l 25
128 192 m 25
 128 256 l 25
 0 256 l 25
 0 192 l 25
 128 192 l 25
448 128 m 25
 448 192 l 25
 320 192 l 25
 320 128 l 25
 448 128 l 25
128 128 m 25
 128 192 l 25
 0 192 l 25
 0 128 l 25
 128 128 l 25
384 64 m 25
 384 128 l 25
 64 128 l 25
 64 64 l 25
 384 64 l 25
EndSplineSet
EndChar
StartChar: 00F4
Encoding: 244 244 207
Width: 512
Flags: HW
TeX: 0 0 0 0
Fore
256 704 m 25
 256 768 l 25
 192 768 l 25
 192 704 l 25
 256 704 l 25
320 640 m 25
 320 704 l 25
 128 704 l 25
 128 640 l 25
 320 640 l 25
384 576 m 25
 384 640 l 25
 256 640 l 25
 256 576 l 25
 384 576 l 25
192 576 m 25
 192 640 l 25
 64 640 l 25
 64 576 l 25
 192 576 l 25
384 448 m 25
 384 512 l 25
 64 512 l 25
 64 448 l 25
 384 448 l 25
448 384 m 25
 448 448 l 25
 320 448 l 25
 320 384 l 25
 448 384 l 25
128 384 m 25
 128 448 l 25
 0 448 l 25
 0 384 l 25
 128 384 l 25
448 320 m 25
 448 384 l 25
 320 384 l 25
 320 320 l 25
 448 320 l 25
128 320 m 25
 128 384 l 25
 0 384 l 25
 0 320 l 25
 128 320 l 25
448 256 m 25
 448 320 l 25
 320 320 l 25
 320 256 l 25
 448 256 l 25
128 256 m 25
 128 320 l 25
 0 320 l 25
 0 256 l 25
 128 256 l 25
448 192 m 25
 448 256 l 25
 320 256 l 25
 320 192 l 25
 448 192 l 25
128 192 m 25
 128 256 l 25
 0 256 l 25
 0 192 l 25
 128 192 l 25
448 128 m 25
 448 192 l 25
 320 192 l 25
 320 128 l 25
 448 128 l 25
128 128 m 25
 128 192 l 25
 0 192 l 25
 0 128 l 25
 128 128 l 25
384 64 m 25
 384 128 l 25
 64 128 l 25
 64 64 l 25
 384 64 l 25
EndSplineSet
EndChar
StartChar: 00F5
Encoding: 245 245 208
Width: 512
Flags: HW
TeX: 0 0 0 0
Fore
448 640 m 25
 448 704 l 25
 320 704 l 25
 320 640 l 25
 448 640 l 25
256 640 m 25
 256 704 l 25
 64 704 l 25
 64 640 l 25
 256 640 l 25
384 576 m 25
 384 640 l 25
 192 640 l 25
 192 576 l 25
 384 576 l 25
128 576 m 25
 128 640 l 25
 0 640 l 25
 0 576 l 25
 128 576 l 25
384 448 m 25
 384 512 l 25
 64 512 l 25
 64 448 l 25
 384 448 l 25
448 384 m 25
 448 448 l 25
 320 448 l 25
 320 384 l 25
 448 384 l 25
128 384 m 25
 128 448 l 25
 0 448 l 25
 0 384 l 25
 128 384 l 25
448 320 m 25
 448 384 l 25
 320 384 l 25
 320 320 l 25
 448 320 l 25
128 320 m 25
 128 384 l 25
 0 384 l 25
 0 320 l 25
 128 320 l 25
448 256 m 25
 448 320 l 25
 320 320 l 25
 320 256 l 25
 448 256 l 25
128 256 m 25
 128 320 l 25
 0 320 l 25
 0 256 l 25
 128 256 l 25
448 192 m 25
 448 256 l 25
 320 256 l 25
 320 192 l 25
 448 192 l 25
128 192 m 25
 128 256 l 25
 0 256 l 25
 0 192 l 25
 128 192 l 25
448 128 m 25
 448 192 l 25
 320 192 l 25
 320 128 l 25
 448 128 l 25
128 128 m 25
 128 192 l 25
 0 192 l 25
 0 128 l 25
 128 128 l 25
384 64 m 25
 384 128 l 25
 64 128 l 25
 64 64 l 25
 384 64 l 25
EndSplineSet
EndChar
StartChar: 00F6
Encoding: 246 246 209
Width: 512
Flags: HW
TeX: 0 0 0 0
Fore
448 576 m 25
 448 640 l 25
 320 640 l 25
 320 576 l 25
 448 576 l 25
128 576 m 25
 128 640 l 25
 0 640 l 25
 0 576 l 25
 128 576 l 25
384 448 m 25
 384 512 l 25
 64 512 l 25
 64 448 l 25
 384 448 l 25
448 384 m 25
 448 448 l 25
 320 448 l 25
 320 384 l 25
 448 384 l 25
128 384 m 25
 128 448 l 25
 0 448 l 25
 0 384 l 25
 128 384 l 25
448 320 m 25
 448 384 l 25
 320 384 l 25
 320 320 l 25
 448 320 l 25
128 320 m 25
 128 384 l 25
 0 384 l 25
 0 320 l 25
 128 320 l 25
448 256 m 25
 448 320 l 25
 320 320 l 25
 320 256 l 25
 448 256 l 25
128 256 m 25
 128 320 l 25
 0 320 l 25
 0 256 l 25
 128 256 l 25
448 192 m 25
 448 256 l 25
 320 256 l 25
 320 192 l 25
 448 192 l 25
128 192 m 25
 128 256 l 25
 0 256 l 25
 0 192 l 25
 128 192 l 25
448 128 m 25
 448 192 l 25
 320 192 l 25
 320 128 l 25
 448 128 l 25
128 128 m 25
 128 192 l 25
 0 192 l 25
 0 128 l 25
 128 128 l 25
384 64 m 25
 384 128 l 25
 64 128 l 25
 64 64 l 25
 384 64 l 25
EndSplineSet
EndChar
StartChar: 00F7
Encoding: 247 247 210
Width: 512
Flags: HW
TeX: 0 0 0 0
Fore
320 512 m 25
 320 576 l 25
 192 576 l 25
 192 512 l 25
 320 512 l 25
448 384 m 25
 448 448 l 25
 64 448 l 25
 64 384 l 25
 448 384 l 25
320 256 m 25
 320 320 l 25
 192 320 l 25
 192 256 l 25
 320 256 l 25
EndSplineSet
EndChar
StartChar: 00F8
Encoding: 248 248 211
Width: 512
Flags: HW
TeX: 0 0 0 0
Fore
384 512 m 25
 384 576 l 25
 320 576 l 25
 320 512 l 25
 384 512 l 25
384 448 m 25
 384 512 l 25
 64 512 l 25
 64 448 l 25
 384 448 l 25
448 384 m 25
 448 448 l 25
 256 448 l 25
 256 384 l 25
 448 384 l 25
128 384 m 25
 128 448 l 25
 0 448 l 25
 0 384 l 25
 128 384 l 25
448 320 m 25
 448 384 l 25
 320 384 l 25
 320 320 l 25
 448 320 l 25
256 320 m 25
 256 384 l 25
 192 384 l 25
 192 320 l 25
 256 320 l 25
128 320 m 25
 128 384 l 25
 0 384 l 25
 0 320 l 25
 128 320 l 25
448 256 m 25
 448 320 l 25
 320 320 l 25
 320 256 l 25
 448 256 l 25
256 256 m 25
 256 320 l 25
 192 320 l 25
 192 256 l 25
 256 256 l 25
128 256 m 25
 128 320 l 25
 0 320 l 25
 0 256 l 25
 128 256 l 25
448 192 m 25
 448 256 l 25
 320 256 l 25
 320 192 l 25
 448 192 l 25
256 192 m 25
 256 256 l 25
 192 256 l 25
 192 192 l 25
 256 192 l 25
128 192 m 25
 128 256 l 25
 0 256 l 25
 0 192 l 25
 128 192 l 25
448 128 m 25
 448 192 l 25
 320 192 l 25
 320 128 l 25
 448 128 l 25
192 128 m 25
 192 192 l 25
 0 192 l 25
 0 128 l 25
 192 128 l 25
384 64 m 25
 384 128 l 25
 64 128 l 25
 64 64 l 25
 384 64 l 25
128 0 m 25
 128 64 l 25
 64 64 l 25
 64 0 l 25
 128 0 l 25
EndSplineSet
EndChar
StartChar: 00F9
Encoding: 249 249 212
Width: 512
Flags: HW
TeX: 0 0 0 0
Fore
128 704 m 25
 128 768 l 25
 0 768 l 25
 0 704 l 25
 128 704 l 25
192 640 m 25
 192 704 l 25
 64 704 l 25
 64 640 l 25
 192 640 l 25
256 576 m 25
 256 640 l 25
 128 640 l 25
 128 576 l 25
 256 576 l 25
384 448 m 25
 384 512 l 25
 256 512 l 25
 256 448 l 25
 384 448 l 25
128 448 m 25
 128 512 l 25
 0 512 l 25
 0 448 l 25
 128 448 l 25
384 384 m 25
 384 448 l 25
 256 448 l 25
 256 384 l 25
 384 384 l 25
128 384 m 25
 128 448 l 25
 0 448 l 25
 0 384 l 25
 128 384 l 25
384 320 m 25
 384 384 l 25
 256 384 l 25
 256 320 l 25
 384 320 l 25
128 320 m 25
 128 384 l 25
 0 384 l 25
 0 320 l 25
 128 320 l 25
384 256 m 25
 384 320 l 25
 256 320 l 25
 256 256 l 25
 384 256 l 25
128 256 m 25
 128 320 l 25
 0 320 l 25
 0 256 l 25
 128 256 l 25
384 192 m 25
 384 256 l 25
 256 256 l 25
 256 192 l 25
 384 192 l 25
128 192 m 25
 128 256 l 25
 0 256 l 25
 0 192 l 25
 128 192 l 25
384 128 m 25
 384 192 l 25
 256 192 l 25
 256 128 l 25
 384 128 l 25
128 128 m 25
 128 192 l 25
 0 192 l 25
 0 128 l 25
 128 128 l 25
448 64 m 25
 448 128 l 25
 320 128 l 25
 320 64 l 25
 448 64 l 25
256 64 m 25
 256 128 l 25
 64 128 l 25
 64 64 l 25
 256 64 l 25
EndSplineSet
EndChar
StartChar: 00FA
Encoding: 250 250 213
Width: 512
Flags: HW
TeX: 0 0 0 0
Fore
384 704 m 25
 384 768 l 25
 256 768 l 25
 256 704 l 25
 384 704 l 25
320 640 m 25
 320 704 l 25
 192 704 l 25
 192 640 l 25
 320 640 l 25
256 576 m 25
 256 640 l 25
 128 640 l 25
 128 576 l 25
 256 576 l 25
384 448 m 25
 384 512 l 25
 256 512 l 25
 256 448 l 25
 384 448 l 25
128 448 m 25
 128 512 l 25
 0 512 l 25
 0 448 l 25
 128 448 l 25
384 384 m 25
 384 448 l 25
 256 448 l 25
 256 384 l 25
 384 384 l 25
128 384 m 25
 128 448 l 25
 0 448 l 25
 0 384 l 25
 128 384 l 25
384 320 m 25
 384 384 l 25
 256 384 l 25
 256 320 l 25
 384 320 l 25
128 320 m 25
 128 384 l 25
 0 384 l 25
 0 320 l 25
 128 320 l 25
384 256 m 25
 384 320 l 25
 256 320 l 25
 256 256 l 25
 384 256 l 25
128 256 m 25
 128 320 l 25
 0 320 l 25
 0 256 l 25
 128 256 l 25
384 192 m 25
 384 256 l 25
 256 256 l 25
 256 192 l 25
 384 192 l 25
128 192 m 25
 128 256 l 25
 0 256 l 25
 0 192 l 25
 128 192 l 25
384 128 m 25
 384 192 l 25
 256 192 l 25
 256 128 l 25
 384 128 l 25
128 128 m 25
 128 192 l 25
 0 192 l 25
 0 128 l 25
 128 128 l 25
448 64 m 25
 448 128 l 25
 320 128 l 25
 320 64 l 25
 448 64 l 25
256 64 m 25
 256 128 l 25
 64 128 l 25
 64 64 l 25
 256 64 l 25
EndSplineSet
EndChar
StartChar: 00FB
Encoding: 251 251 214
Width: 512
Flags: HW
TeX: 0 0 0 0
Fore
256 704 m 25
 256 768 l 25
 128 768 l 25
 128 704 l 25
 256 704 l 25
320 640 m 25
 320 704 l 25
 64 704 l 25
 64 640 l 25
 320 640 l 25
384 576 m 25
 384 640 l 25
 256 640 l 25
 256 576 l 25
 384 576 l 25
128 576 m 25
 128 640 l 25
 0 640 l 25
 0 576 l 25
 128 576 l 25
384 448 m 25
 384 512 l 25
 256 512 l 25
 256 448 l 25
 384 448 l 25
128 448 m 25
 128 512 l 25
 0 512 l 25
 0 448 l 25
 128 448 l 25
384 384 m 25
 384 448 l 25
 256 448 l 25
 256 384 l 25
 384 384 l 25
128 384 m 25
 128 448 l 25
 0 448 l 25
 0 384 l 25
 128 384 l 25
384 320 m 25
 384 384 l 25
 256 384 l 25
 256 320 l 25
 384 320 l 25
128 320 m 25
 128 384 l 25
 0 384 l 25
 0 320 l 25
 128 320 l 25
384 256 m 25
 384 320 l 25
 256 320 l 25
 256 256 l 25
 384 256 l 25
128 256 m 25
 128 320 l 25
 0 320 l 25
 0 256 l 25
 128 256 l 25
384 192 m 25
 384 256 l 25
 256 256 l 25
 256 192 l 25
 384 192 l 25
128 192 m 25
 128 256 l 25
 0 256 l 25
 0 192 l 25
 128 192 l 25
384 128 m 25
 384 192 l 25
 256 192 l 25
 256 128 l 25
 384 128 l 25
128 128 m 25
 128 192 l 25
 0 192 l 25
 0 128 l 25
 128 128 l 25
448 64 m 25
 448 128 l 25
 320 128 l 25
 320 64 l 25
 448 64 l 25
256 64 m 25
 256 128 l 25
 64 128 l 25
 64 64 l 25
 256 64 l 25
EndSplineSet
EndChar
StartChar: 00FC
Encoding: 252 252 215
Width: 512
Flags: HW
TeX: 0 0 0 0
Fore
384 576 m 25
 384 640 l 25
 256 640 l 25
 256 576 l 25
 384 576 l 25
128 576 m 25
 128 640 l 25
 0 640 l 25
 0 576 l 25
 128 576 l 25
384 448 m 25
 384 512 l 25
 256 512 l 25
 256 448 l 25
 384 448 l 25
128 448 m 25
 128 512 l 25
 0 512 l 25
 0 448 l 25
 128 448 l 25
384 384 m 25
 384 448 l 25
 256 448 l 25
 256 384 l 25
 384 384 l 25
128 384 m 25
 128 448 l 25
 0 448 l 25
 0 384 l 25
 128 384 l 25
384 320 m 25
 384 384 l 25
 256 384 l 25
 256 320 l 25
 384 320 l 25
128 320 m 25
 128 384 l 25
 0 384 l 25
 0 320 l 25
 128 320 l 25
384 256 m 25
 384 320 l 25
 256 320 l 25
 256 256 l 25
 384 256 l 25
128 256 m 25
 128 320 l 25
 0 320 l 25
 0 256 l 25
 128 256 l 25
384 192 m 25
 384 256 l 25
 256 256 l 25
 256 192 l 25
 384 192 l 25
128 192 m 25
 128 256 l 25
 0 256 l 25
 0 192 l 25
 128 192 l 25
384 128 m 25
 384 192 l 25
 256 192 l 25
 256 128 l 25
 384 128 l 25
128 128 m 25
 128 192 l 25
 0 192 l 25
 0 128 l 25
 128 128 l 25
448 64 m 25
 448 128 l 25
 320 128 l 25
 320 64 l 25
 448 64 l 25
256 64 m 25
 256 128 l 25
 64 128 l 25
 64 64 l 25
 256 64 l 25
EndSplineSet
EndChar
StartChar: 00FD
Encoding: 253 253 216
Width: 512
Flags: HW
TeX: 0 0 0 0
Fore
448 704 m 25
 448 768 l 25
 320 768 l 25
 320 704 l 25
 448 704 l 25
384 640 m 25
 384 704 l 25
 256 704 l 25
 256 640 l 25
 384 640 l 25
320 576 m 25
 320 640 l 25
 192 640 l 25
 192 576 l 25
 320 576 l 25
448 448 m 25
 448 512 l 25
 320 512 l 25
 320 448 l 25
 448 448 l 25
128 448 m 25
 128 512 l 25
 0 512 l 25
 0 448 l 25
 128 448 l 25
448 384 m 25
 448 448 l 25
 320 448 l 25
 320 384 l 25
 448 384 l 25
128 384 m 25
 128 448 l 25
 0 448 l 25
 0 384 l 25
 128 384 l 25
448 320 m 25
 448 384 l 25
 320 384 l 25
 320 320 l 25
 448 320 l 25
128 320 m 25
 128 384 l 25
 0 384 l 25
 0 320 l 25
 128 320 l 25
448 256 m 25
 448 320 l 25
 320 320 l 25
 320 256 l 25
 448 256 l 25
128 256 m 25
 128 320 l 25
 0 320 l 25
 0 256 l 25
 128 256 l 25
448 192 m 25
 448 256 l 25
 320 256 l 25
 320 192 l 25
 448 192 l 25
128 192 m 25
 128 256 l 25
 0 256 l 25
 0 192 l 25
 128 192 l 25
448 128 m 25
 448 192 l 25
 320 192 l 25
 320 128 l 25
 448 128 l 25
128 128 m 25
 128 192 l 25
 0 192 l 25
 0 128 l 25
 128 128 l 25
448 64 m 25
 448 128 l 25
 64 128 l 25
 64 64 l 25
 448 64 l 25
448 0 m 25
 448 64 l 25
 320 64 l 25
 320 0 l 25
 448 0 l 25
384 -64 m 25
 384 0 l 25
 256 0 l 25
 256 -64 l 25
 384 -64 l 25
320 -128 m 25
 320 -64 l 25
 0 -64 l 25
 0 -128 l 25
 320 -128 l 25
EndSplineSet
EndChar
StartChar: 00FE
Encoding: 254 254 217
Width: 512
Flags: HW
TeX: 0 0 0 0
Fore
192 640 m 25
 192 704 l 25
 0 704 l 25
 0 640 l 25
 192 640 l 25
192 576 m 25
 192 640 l 25
 64 640 l 25
 64 576 l 25
 192 576 l 25
192 512 m 25
 192 576 l 25
 64 576 l 25
 64 512 l 25
 192 512 l 25
384 448 m 25
 384 512 l 25
 64 512 l 25
 64 448 l 25
 384 448 l 25
448 384 m 25
 448 448 l 25
 320 448 l 25
 320 384 l 25
 448 384 l 25
192 384 m 25
 192 448 l 25
 64 448 l 25
 64 384 l 25
 192 384 l 25
448 320 m 25
 448 384 l 25
 320 384 l 25
 320 320 l 25
 448 320 l 25
192 320 m 25
 192 384 l 25
 64 384 l 25
 64 320 l 25
 192 320 l 25
448 256 m 25
 448 320 l 25
 320 320 l 25
 320 256 l 25
 448 256 l 25
192 256 m 25
 192 320 l 25
 64 320 l 25
 64 256 l 25
 192 256 l 25
448 192 m 25
 448 256 l 25
 320 256 l 25
 320 192 l 25
 448 192 l 25
192 192 m 25
 192 256 l 25
 64 256 l 25
 64 192 l 25
 192 192 l 25
448 128 m 25
 448 192 l 25
 320 192 l 25
 320 128 l 25
 448 128 l 25
192 128 m 25
 192 192 l 25
 64 192 l 25
 64 128 l 25
 192 128 l 25
384 64 m 25
 384 128 l 25
 64 128 l 25
 64 64 l 25
 384 64 l 25
192 0 m 25
 192 64 l 25
 64 64 l 25
 64 0 l 25
 192 0 l 25
192 -64 m 25
 192 0 l 25
 64 0 l 25
 64 -64 l 25
 192 -64 l 25
256 -128 m 25
 256 -64 l 25
 0 -64 l 25
 0 -128 l 25
 256 -128 l 25
EndSplineSet
EndChar
StartChar: 00FF
Encoding: 255 255 218
Width: 512
Flags: HW
TeX: 0 0 0 0
Fore
448 576 m 25
 448 640 l 25
 320 640 l 25
 320 576 l 25
 448 576 l 25
128 576 m 25
 128 640 l 25
 0 640 l 25
 0 576 l 25
 128 576 l 25
448 448 m 25
 448 512 l 25
 320 512 l 25
 320 448 l 25
 448 448 l 25
128 448 m 25
 128 512 l 25
 0 512 l 25
 0 448 l 25
 128 448 l 25
448 384 m 25
 448 448 l 25
 320 448 l 25
 320 384 l 25
 448 384 l 25
128 384 m 25
 128 448 l 25
 0 448 l 25
 0 384 l 25
 128 384 l 25
448 320 m 25
 448 384 l 25
 320 384 l 25
 320 320 l 25
 448 320 l 25
128 320 m 25
 128 384 l 25
 0 384 l 25
 0 320 l 25
 128 320 l 25
448 256 m 25
 448 320 l 25
 320 320 l 25
 320 256 l 25
 448 256 l 25
128 256 m 25
 128 320 l 25
 0 320 l 25
 0 256 l 25
 128 256 l 25
448 192 m 25
 448 256 l 25
 320 256 l 25
 320 192 l 25
 448 192 l 25
128 192 m 25
 128 256 l 25
 0 256 l 25
 0 192 l 25
 128 192 l 25
448 128 m 25
 448 192 l 25
 320 192 l 25
 320 128 l 25
 448 128 l 25
128 128 m 25
 128 192 l 25
 0 192 l 25
 0 128 l 25
 128 128 l 25
448 64 m 25
 448 128 l 25
 64 128 l 25
 64 64 l 25
 448 64 l 25
448 0 m 25
 448 64 l 25
 320 64 l 25
 320 0 l 25
 448 0 l 25
384 -64 m 25
 384 0 l 25
 256 0 l 25
 256 -64 l 25
 384 -64 l 25
320 -128 m 25
 320 -64 l 25
 0 -64 l 25
 0 -128 l 25
 320 -128 l 25
EndSplineSet
EndChar
StartChar: 0100
Encoding: 256 256 219
Width: 512
Flags: HW
TeX: 0 0 0 0
Fore
448 768 m 25
 448 832 l 25
 0 832 l 25
 0 768 l 25
 448 768 l 25
256 640 m 25
 256 704 l 25
 192 704 l 25
 192 640 l 25
 256 640 l 25
320 576 m 25
 320 640 l 25
 128 640 l 25
 128 576 l 25
 320 576 l 25
384 512 m 25
 384 576 l 25
 256 576 l 25
 256 512 l 25
 384 512 l 25
192 512 m 25
 192 576 l 25
 64 576 l 25
 64 512 l 25
 192 512 l 25
448 448 m 25
 448 512 l 25
 320 512 l 25
 320 448 l 25
 448 448 l 25
128 448 m 25
 128 512 l 25
 0 512 l 25
 0 448 l 25
 128 448 l 25
448 384 m 25
 448 448 l 25
 320 448 l 25
 320 384 l 25
 448 384 l 25
128 384 m 25
 128 448 l 25
 0 448 l 25
 0 384 l 25
 128 384 l 25
448 320 m 25
 448 384 l 25
 0 384 l 25
 0 320 l 25
 448 320 l 25
448 256 m 25
 448 320 l 25
 320 320 l 25
 320 256 l 25
 448 256 l 25
128 256 m 25
 128 320 l 25
 0 320 l 25
 0 256 l 25
 128 256 l 25
448 192 m 25
 448 256 l 25
 320 256 l 25
 320 192 l 25
 448 192 l 25
128 192 m 25
 128 256 l 25
 0 256 l 25
 0 192 l 25
 128 192 l 25
448 128 m 25
 448 192 l 25
 320 192 l 25
 320 128 l 25
 448 128 l 25
128 128 m 25
 128 192 l 25
 0 192 l 25
 0 128 l 25
 128 128 l 25
448 64 m 25
 448 128 l 25
 320 128 l 25
 320 64 l 25
 448 64 l 25
128 64 m 25
 128 128 l 25
 0 128 l 25
 0 64 l 25
 128 64 l 25
EndSplineSet
EndChar
StartChar: 0101
Encoding: 257 257 220
Width: 512
Flags: HW
TeX: 0 0 0 0
Fore
448 576 m 25
 448 640 l 25
 0 640 l 25
 0 576 l 25
 448 576 l 25
320 448 m 25
 320 512 l 25
 64 512 l 25
 64 448 l 25
 320 448 l 25
384 384 m 25
 384 448 l 25
 256 448 l 25
 256 384 l 25
 384 384 l 25
384 320 m 25
 384 384 l 25
 64 384 l 25
 64 320 l 25
 384 320 l 25
384 256 m 25
 384 320 l 25
 256 320 l 25
 256 256 l 25
 384 256 l 25
128 256 m 25
 128 320 l 25
 0 320 l 25
 0 256 l 25
 128 256 l 25
384 192 m 25
 384 256 l 25
 256 256 l 25
 256 192 l 25
 384 192 l 25
128 192 m 25
 128 256 l 25
 0 256 l 25
 0 192 l 25
 128 192 l 25
384 128 m 25
 384 192 l 25
 256 192 l 25
 256 128 l 25
 384 128 l 25
128 128 m 25
 128 192 l 25
 0 192 l 25
 0 128 l 25
 128 128 l 25
448 64 m 25
 448 128 l 25
 320 128 l 25
 320 64 l 25
 448 64 l 25
256 64 m 25
 256 128 l 25
 64 128 l 25
 64 64 l 25
 256 64 l 25
EndSplineSet
EndChar
StartChar: 0102
Encoding: 258 258 221
Width: 512
Flags: HW
TeX: 0 0 0 0
Fore
448 832 m 25
 448 896 l 25
 320 896 l 25
 320 832 l 25
 448 832 l 25
128 832 m 25
 128 896 l 25
 0 896 l 25
 0 832 l 25
 128 832 l 25
384 768 m 25
 384 832 l 25
 64 832 l 25
 64 768 l 25
 384 768 l 25
256 640 m 25
 256 704 l 25
 192 704 l 25
 192 640 l 25
 256 640 l 25
320 576 m 25
 320 640 l 25
 128 640 l 25
 128 576 l 25
 320 576 l 25
384 512 m 25
 384 576 l 25
 256 576 l 25
 256 512 l 25
 384 512 l 25
192 512 m 25
 192 576 l 25
 64 576 l 25
 64 512 l 25
 192 512 l 25
448 448 m 25
 448 512 l 25
 320 512 l 25
 320 448 l 25
 448 448 l 25
128 448 m 25
 128 512 l 25
 0 512 l 25
 0 448 l 25
 128 448 l 25
448 384 m 25
 448 448 l 25
 320 448 l 25
 320 384 l 25
 448 384 l 25
128 384 m 25
 128 448 l 25
 0 448 l 25
 0 384 l 25
 128 384 l 25
448 320 m 25
 448 384 l 25
 0 384 l 25
 0 320 l 25
 448 320 l 25
448 256 m 25
 448 320 l 25
 320 320 l 25
 320 256 l 25
 448 256 l 25
128 256 m 25
 128 320 l 25
 0 320 l 25
 0 256 l 25
 128 256 l 25
448 192 m 25
 448 256 l 25
 320 256 l 25
 320 192 l 25
 448 192 l 25
128 192 m 25
 128 256 l 25
 0 256 l 25
 0 192 l 25
 128 192 l 25
448 128 m 25
 448 192 l 25
 320 192 l 25
 320 128 l 25
 448 128 l 25
128 128 m 25
 128 192 l 25
 0 192 l 25
 0 128 l 25
 128 128 l 25
448 64 m 25
 448 128 l 25
 320 128 l 25
 320 64 l 25
 448 64 l 25
128 64 m 25
 128 128 l 25
 0 128 l 25
 0 64 l 25
 128 64 l 25
EndSplineSet
EndChar
StartChar: 0103
Encoding: 259 259 222
Width: 512
Flags: HW
TeX: 0 0 0 0
Fore
448 640 m 25
 448 704 l 25
 320 704 l 25
 320 640 l 25
 448 640 l 25
128 640 m 25
 128 704 l 25
 0 704 l 25
 0 640 l 25
 128 640 l 25
384 576 m 25
 384 640 l 25
 64 640 l 25
 64 576 l 25
 384 576 l 25
320 448 m 25
 320 512 l 25
 64 512 l 25
 64 448 l 25
 320 448 l 25
384 384 m 25
 384 448 l 25
 256 448 l 25
 256 384 l 25
 384 384 l 25
384 320 m 25
 384 384 l 25
 64 384 l 25
 64 320 l 25
 384 320 l 25
384 256 m 25
 384 320 l 25
 256 320 l 25
 256 256 l 25
 384 256 l 25
128 256 m 25
 128 320 l 25
 0 320 l 25
 0 256 l 25
 128 256 l 25
384 192 m 25
 384 256 l 25
 256 256 l 25
 256 192 l 25
 384 192 l 25
128 192 m 25
 128 256 l 25
 0 256 l 25
 0 192 l 25
 128 192 l 25
384 128 m 25
 384 192 l 25
 256 192 l 25
 256 128 l 25
 384 128 l 25
128 128 m 25
 128 192 l 25
 0 192 l 25
 0 128 l 25
 128 128 l 25
448 64 m 25
 448 128 l 25
 320 128 l 25
 320 64 l 25
 448 64 l 25
256 64 m 25
 256 128 l 25
 64 128 l 25
 64 64 l 25
 256 64 l 25
EndSplineSet
EndChar
StartChar: 0104
Encoding: 260 260 223
Width: 512
Flags: HW
TeX: 0 0 0 0
Fore
256 640 m 25
 256 704 l 25
 192 704 l 25
 192 640 l 25
 256 640 l 25
320 576 m 25
 320 640 l 25
 128 640 l 25
 128 576 l 25
 320 576 l 25
384 512 m 25
 384 576 l 25
 256 576 l 25
 256 512 l 25
 384 512 l 25
192 512 m 25
 192 576 l 25
 64 576 l 25
 64 512 l 25
 192 512 l 25
448 448 m 25
 448 512 l 25
 320 512 l 25
 320 448 l 25
 448 448 l 25
128 448 m 25
 128 512 l 25
 0 512 l 25
 0 448 l 25
 128 448 l 25
448 384 m 25
 448 448 l 25
 320 448 l 25
 320 384 l 25
 448 384 l 25
128 384 m 25
 128 448 l 25
 0 448 l 25
 0 384 l 25
 128 384 l 25
448 320 m 25
 448 384 l 25
 0 384 l 25
 0 320 l 25
 448 320 l 25
448 256 m 25
 448 320 l 25
 320 320 l 25
 320 256 l 25
 448 256 l 25
128 256 m 25
 128 320 l 25
 0 320 l 25
 0 256 l 25
 128 256 l 25
448 192 m 25
 448 256 l 25
 320 256 l 25
 320 192 l 25
 448 192 l 25
128 192 m 25
 128 256 l 25
 0 256 l 25
 0 192 l 25
 128 192 l 25
448 128 m 25
 448 192 l 25
 320 192 l 25
 320 128 l 25
 448 128 l 25
128 128 m 25
 128 192 l 25
 0 192 l 25
 0 128 l 25
 128 128 l 25
448 64 m 25
 448 128 l 25
 320 128 l 25
 320 64 l 25
 448 64 l 25
128 64 m 25
 128 128 l 25
 0 128 l 25
 0 64 l 25
 128 64 l 25
320 0 m 25
 320 64 l 25
 192 64 l 25
 192 0 l 25
 320 0 l 25
256 -64 m 25
 256 0 l 25
 128 0 l 25
 128 -64 l 25
 256 -64 l 25
448 -128 m 25
 448 -64 l 25
 192 -64 l 25
 192 -128 l 25
 448 -128 l 25
EndSplineSet
EndChar
